M48
; DRILL file {KiCad (5.1.5)-3} date 2020-12-16 10:40:47
; FORMAT={-:-/ absolute / inch / decimal}
; #@! TF.CreationDate,2020-12-16T10:40:47+01:00
; #@! TF.GenerationSoftware,Kicad,Pcbnew,(5.1.5)-3
FMAT,2
INCH
T1C0.0157
T2C0.0315
T3C0.0362
T4C0.0394
T5C0.0512
T6C0.0917
%
G90
G05
T1
X0.85Y-8.6
X0.85Y-10.3898
X1.07Y-10.56
X1.16Y-8.6
X1.19Y-9.22
X1.23Y-9.55
X1.24Y-7.925
X1.3Y-8.89
X1.46Y-9.79
X1.53Y-8.57
X1.65Y-1.42
X1.65Y-1.645
X1.65Y-5.265
X1.65Y-5.475
X1.65Y-6.545
X1.65Y-6.75
X1.65Y-7.825
X1.65Y-8.05
X1.7Y-2.705
X1.7Y-2.925
X1.7Y-3.985
X1.7Y-4.2
X1.85Y-10.15
X1.8698Y-9.5302
X2.43Y-8.57
X2.79Y-10.16
X3.05Y-1.43
X3.05Y-1.65
X3.05Y-2.705
X3.05Y-2.92
X3.05Y-3.99
X3.05Y-4.2
X3.05Y-5.265
X3.05Y-5.475
X3.05Y-6.545
X3.05Y-6.775
X3.05Y-7.825
X3.05Y-8.05
X3.42Y-9.98
X3.55Y-8.57
X3.645Y-8.875
X3.88Y-9.86
X4.05Y-9.78
X4.06Y-9.17
X4.12Y-10.08
X4.165Y-9.75
X4.19Y-9.81
X4.2Y-10.29
X4.205Y-9.72
X4.24Y-10.18
X4.345Y-9.825
X4.35Y-10.13
X4.365Y-10.335
X4.39Y-9.99
X4.39Y-10.46
X4.4Y-6.545
X4.4Y-6.75
X4.4Y-7.825
X4.4Y-8.05
X4.44Y-10.32
X4.45Y-1.42
X4.45Y-1.65
X4.45Y-2.705
X4.45Y-2.925
X4.45Y-3.985
X4.45Y-4.2
X4.45Y-5.265
X4.45Y-5.475
X4.495Y-9.975
X4.54Y-9.66
X4.58Y-10.35
X4.63Y-8.95
X4.71Y-8.57
X4.715Y-10.185
X4.74Y-10.28
X4.79Y-10.03
X4.85Y-9.89
X4.92Y-9.675
X5.27Y-10.15
X5.28Y-10.32
X5.33Y-9.78
X5.35Y-10.13
X5.68Y-9.78
X5.73Y-10.225
X5.74Y-10.13
X5.74Y-10.33
X5.8Y-1.425
X5.8Y-1.65
X5.8Y-2.71
X5.8Y-2.925
X5.8Y-3.985
X5.8Y-4.2
X5.8Y-5.265
X5.8Y-5.475
X5.8Y-6.545
X5.8Y-6.75
X5.8Y-7.825
X5.8Y-8.05
X5.87Y-9.57
X6.06Y-10.07
X6.21Y-8.74
X6.41Y-9.58
X6.535Y-10.13
X6.64Y-10.0
X6.8Y-10.05
X6.89Y-9.31
X6.96Y-9.1
X7.04Y-10.14
X7.15Y-8.74
X7.16Y-9.33
X7.18Y-10.46
X7.2Y-1.425
X7.2Y-1.65
X7.2Y-2.705
X7.2Y-2.925
X7.2Y-3.985
X7.2Y-4.2
X7.2Y-5.265
X7.2Y-5.475
X7.2Y-6.545
X7.2Y-6.75
X7.2Y-7.825
X7.2Y-8.05
X7.32Y-9.35
X7.44Y-8.62
X7.66Y-10.05
X7.68Y-9.26
X7.68Y-9.86
X7.88Y-8.6
X7.98Y-9.71
X8.0Y-9.33
X8.15Y-8.73
X8.15Y-8.77
X8.15Y-8.81
X8.19Y-8.73
X8.19Y-8.77
X8.19Y-8.81
X8.23Y-8.73
X8.23Y-8.77
X8.23Y-8.81
X8.23Y-9.71
X8.55Y-1.425
X8.55Y-1.65
X8.55Y-2.705
X8.55Y-2.925
X8.55Y-3.985
X8.55Y-4.195
X8.55Y-5.265
X8.55Y-5.475
X8.55Y-6.545
X8.55Y-6.75
X8.55Y-7.825
X8.55Y-8.05
X8.55Y-10.05
X8.66Y-9.36
X8.97Y-8.62
X9.3Y-10.12
X9.51Y-9.05
X9.73Y-9.77
X9.8Y-10.05
X9.945Y-1.65
X9.95Y-1.43
X9.95Y-2.71
X9.95Y-2.925
X9.95Y-3.985
X9.95Y-4.2
X9.95Y-5.265
X9.95Y-5.475
X9.95Y-6.545
X9.95Y-6.75
X9.95Y-7.825
X9.95Y-8.05
X10.22Y-9.72
X10.35Y-8.6
X10.35Y-10.4
T2
X1.1Y-8.94
X1.1Y-9.04
X1.1Y-9.14
T3
X1.3213Y-9.5766
X1.3213Y-9.675
X1.4Y-9.5766
X1.4Y-9.675
T5
X10.25Y-9.2031
X10.25Y-9.4
T6
X1.2146Y-9.3888
X1.2146Y-9.8628
T4
G00X9.9Y-9.9933
M15
G01X9.9Y-9.9067
M16
G05
G00X10.0614Y-9.7531
M15
G01X9.9748Y-9.7531
M16
G05
G00X10.148Y-9.9933
M15
G01X10.148Y-9.9067
M16
G05
T0
M30
