G04 #@! TF.GenerationSoftware,KiCad,Pcbnew,(5.1.5)-3*
G04 #@! TF.CreationDate,2020-12-16T10:40:51+01:00*
G04 #@! TF.ProjectId,Hardware,48617264-7761-4726-952e-6b696361645f,V1*
G04 #@! TF.SameCoordinates,Original*
G04 #@! TF.FileFunction,Copper,L2,Bot*
G04 #@! TF.FilePolarity,Positive*
%FSLAX46Y46*%
G04 Gerber Fmt 4.6, Leading zero omitted, Abs format (unit mm)*
G04 Created by KiCad (PCBNEW (5.1.5)-3) date 2020-12-16 10:40:51*
%MOMM*%
%LPD*%
G04 APERTURE LIST*
%ADD10C,0.100000*%
%ADD11C,0.150000*%
%ADD12C,0.300000*%
%ADD13C,0.400000*%
%ADD14O,2.000000X1.200000*%
%ADD15R,2.000000X4.400000*%
%ADD16O,2.000000X4.200000*%
%ADD17O,4.200000X2.000000*%
%ADD18C,3.500000*%
%ADD19C,1.700000*%
%ADD20R,1.700000X1.700000*%
%ADD21C,2.500000*%
%ADD22R,2.500000X2.500000*%
%ADD23C,0.800000*%
%ADD24C,0.254000*%
%ADD25C,0.762000*%
%ADD26C,1.270000*%
G04 APERTURE END LIST*
D10*
D11*
X177002200Y-375989000D02*
X177002200Y-407989000D01*
X285002200Y-407989000D01*
X285002200Y-375989000D01*
X177002200Y-375989000D01*
D10*
D11*
X10000000Y-10000000D02*
X10000000Y-409989000D01*
X287002200Y-409989000D01*
X287002200Y-10000000D01*
X10000000Y-10000000D01*
D10*
D11*
X12000000Y-12000000D02*
X12000000Y-407989000D01*
X285002200Y-407989000D01*
X285002200Y-12000000D01*
X12000000Y-12000000D01*
D10*
D11*
X60000000Y-12000000D02*
X60000000Y-10000000D01*
D10*
D11*
X110000000Y-12000000D02*
X110000000Y-10000000D01*
D10*
D11*
X160000000Y-12000000D02*
X160000000Y-10000000D01*
D10*
D11*
X210000000Y-12000000D02*
X210000000Y-10000000D01*
D10*
D11*
X260000000Y-12000000D02*
X260000000Y-10000000D01*
D10*
D11*
X36065476Y-11588095D02*
X35322619Y-11588095D01*
X35694047Y-11588095D02*
X35694047Y-10288095D01*
X35570238Y-10473809D01*
X35446428Y-10597619D01*
X35322619Y-10659523D01*
D10*
D11*
X85322619Y-10411904D02*
X85384523Y-10350000D01*
X85508333Y-10288095D01*
X85817857Y-10288095D01*
X85941666Y-10350000D01*
X86003571Y-10411904D01*
X86065476Y-10535714D01*
X86065476Y-10659523D01*
X86003571Y-10845238D01*
X85260714Y-11588095D01*
X86065476Y-11588095D01*
D10*
D11*
X135260714Y-10288095D02*
X136065476Y-10288095D01*
X135632142Y-10783333D01*
X135817857Y-10783333D01*
X135941666Y-10845238D01*
X136003571Y-10907142D01*
X136065476Y-11030952D01*
X136065476Y-11340476D01*
X136003571Y-11464285D01*
X135941666Y-11526190D01*
X135817857Y-11588095D01*
X135446428Y-11588095D01*
X135322619Y-11526190D01*
X135260714Y-11464285D01*
D10*
D11*
X185941666Y-10721428D02*
X185941666Y-11588095D01*
X185632142Y-10226190D02*
X185322619Y-11154761D01*
X186127380Y-11154761D01*
D10*
D11*
X236003571Y-10288095D02*
X235384523Y-10288095D01*
X235322619Y-10907142D01*
X235384523Y-10845238D01*
X235508333Y-10783333D01*
X235817857Y-10783333D01*
X235941666Y-10845238D01*
X236003571Y-10907142D01*
X236065476Y-11030952D01*
X236065476Y-11340476D01*
X236003571Y-11464285D01*
X235941666Y-11526190D01*
X235817857Y-11588095D01*
X235508333Y-11588095D01*
X235384523Y-11526190D01*
X235322619Y-11464285D01*
D10*
D11*
X285941666Y-10288095D02*
X285694047Y-10288095D01*
X285570238Y-10350000D01*
X285508333Y-10411904D01*
X285384523Y-10597619D01*
X285322619Y-10845238D01*
X285322619Y-11340476D01*
X285384523Y-11464285D01*
X285446428Y-11526190D01*
X285570238Y-11588095D01*
X285817857Y-11588095D01*
X285941666Y-11526190D01*
X286003571Y-11464285D01*
X286065476Y-11340476D01*
X286065476Y-11030952D01*
X286003571Y-10907142D01*
X285941666Y-10845238D01*
X285817857Y-10783333D01*
X285570238Y-10783333D01*
X285446428Y-10845238D01*
X285384523Y-10907142D01*
X285322619Y-11030952D01*
D10*
D11*
X60000000Y-407989000D02*
X60000000Y-409989000D01*
D10*
D11*
X110000000Y-407989000D02*
X110000000Y-409989000D01*
D10*
D11*
X160000000Y-407989000D02*
X160000000Y-409989000D01*
D10*
D11*
X210000000Y-407989000D02*
X210000000Y-409989000D01*
D10*
D11*
X260000000Y-407989000D02*
X260000000Y-409989000D01*
D10*
D11*
X36065476Y-409577095D02*
X35322619Y-409577095D01*
X35694047Y-409577095D02*
X35694047Y-408277095D01*
X35570238Y-408462809D01*
X35446428Y-408586619D01*
X35322619Y-408648523D01*
D10*
D11*
X85322619Y-408400904D02*
X85384523Y-408339000D01*
X85508333Y-408277095D01*
X85817857Y-408277095D01*
X85941666Y-408339000D01*
X86003571Y-408400904D01*
X86065476Y-408524714D01*
X86065476Y-408648523D01*
X86003571Y-408834238D01*
X85260714Y-409577095D01*
X86065476Y-409577095D01*
D10*
D11*
X135260714Y-408277095D02*
X136065476Y-408277095D01*
X135632142Y-408772333D01*
X135817857Y-408772333D01*
X135941666Y-408834238D01*
X136003571Y-408896142D01*
X136065476Y-409019952D01*
X136065476Y-409329476D01*
X136003571Y-409453285D01*
X135941666Y-409515190D01*
X135817857Y-409577095D01*
X135446428Y-409577095D01*
X135322619Y-409515190D01*
X135260714Y-409453285D01*
D10*
D11*
X185941666Y-408710428D02*
X185941666Y-409577095D01*
X185632142Y-408215190D02*
X185322619Y-409143761D01*
X186127380Y-409143761D01*
D10*
D11*
X236003571Y-408277095D02*
X235384523Y-408277095D01*
X235322619Y-408896142D01*
X235384523Y-408834238D01*
X235508333Y-408772333D01*
X235817857Y-408772333D01*
X235941666Y-408834238D01*
X236003571Y-408896142D01*
X236065476Y-409019952D01*
X236065476Y-409329476D01*
X236003571Y-409453285D01*
X235941666Y-409515190D01*
X235817857Y-409577095D01*
X235508333Y-409577095D01*
X235384523Y-409515190D01*
X235322619Y-409453285D01*
D10*
D11*
X285941666Y-408277095D02*
X285694047Y-408277095D01*
X285570238Y-408339000D01*
X285508333Y-408400904D01*
X285384523Y-408586619D01*
X285322619Y-408834238D01*
X285322619Y-409329476D01*
X285384523Y-409453285D01*
X285446428Y-409515190D01*
X285570238Y-409577095D01*
X285817857Y-409577095D01*
X285941666Y-409515190D01*
X286003571Y-409453285D01*
X286065476Y-409329476D01*
X286065476Y-409019952D01*
X286003571Y-408896142D01*
X285941666Y-408834238D01*
X285817857Y-408772333D01*
X285570238Y-408772333D01*
X285446428Y-408834238D01*
X285384523Y-408896142D01*
X285322619Y-409019952D01*
D10*
D11*
X10000000Y-60000000D02*
X12000000Y-60000000D01*
D10*
D11*
X10000000Y-110000000D02*
X12000000Y-110000000D01*
D10*
D11*
X10000000Y-160000000D02*
X12000000Y-160000000D01*
D10*
D11*
X10000000Y-210000000D02*
X12000000Y-210000000D01*
D10*
D11*
X10000000Y-260000000D02*
X12000000Y-260000000D01*
D10*
D11*
X10000000Y-310000000D02*
X12000000Y-310000000D01*
D10*
D11*
X10000000Y-360000000D02*
X12000000Y-360000000D01*
D10*
D11*
X10690476Y-35216666D02*
X11309523Y-35216666D01*
X10566666Y-35588095D02*
X11000000Y-34288095D01*
X11433333Y-35588095D01*
D10*
D11*
X11092857Y-84907142D02*
X11278571Y-84969047D01*
X11340476Y-85030952D01*
X11402380Y-85154761D01*
X11402380Y-85340476D01*
X11340476Y-85464285D01*
X11278571Y-85526190D01*
X11154761Y-85588095D01*
X10659523Y-85588095D01*
X10659523Y-84288095D01*
X11092857Y-84288095D01*
X11216666Y-84350000D01*
X11278571Y-84411904D01*
X11340476Y-84535714D01*
X11340476Y-84659523D01*
X11278571Y-84783333D01*
X11216666Y-84845238D01*
X11092857Y-84907142D01*
X10659523Y-84907142D01*
D10*
D11*
X11402380Y-135464285D02*
X11340476Y-135526190D01*
X11154761Y-135588095D01*
X11030952Y-135588095D01*
X10845238Y-135526190D01*
X10721428Y-135402380D01*
X10659523Y-135278571D01*
X10597619Y-135030952D01*
X10597619Y-134845238D01*
X10659523Y-134597619D01*
X10721428Y-134473809D01*
X10845238Y-134350000D01*
X11030952Y-134288095D01*
X11154761Y-134288095D01*
X11340476Y-134350000D01*
X11402380Y-134411904D01*
D10*
D11*
X10659523Y-185588095D02*
X10659523Y-184288095D01*
X10969047Y-184288095D01*
X11154761Y-184350000D01*
X11278571Y-184473809D01*
X11340476Y-184597619D01*
X11402380Y-184845238D01*
X11402380Y-185030952D01*
X11340476Y-185278571D01*
X11278571Y-185402380D01*
X11154761Y-185526190D01*
X10969047Y-185588095D01*
X10659523Y-185588095D01*
D10*
D11*
X10721428Y-234907142D02*
X11154761Y-234907142D01*
X11340476Y-235588095D02*
X10721428Y-235588095D01*
X10721428Y-234288095D01*
X11340476Y-234288095D01*
D10*
D11*
X11185714Y-284907142D02*
X10752380Y-284907142D01*
X10752380Y-285588095D02*
X10752380Y-284288095D01*
X11371428Y-284288095D01*
D10*
D11*
X11340476Y-334350000D02*
X11216666Y-334288095D01*
X11030952Y-334288095D01*
X10845238Y-334350000D01*
X10721428Y-334473809D01*
X10659523Y-334597619D01*
X10597619Y-334845238D01*
X10597619Y-335030952D01*
X10659523Y-335278571D01*
X10721428Y-335402380D01*
X10845238Y-335526190D01*
X11030952Y-335588095D01*
X11154761Y-335588095D01*
X11340476Y-335526190D01*
X11402380Y-335464285D01*
X11402380Y-335030952D01*
X11154761Y-335030952D01*
D10*
D11*
X10628571Y-385588095D02*
X10628571Y-384288095D01*
X10628571Y-384907142D02*
X11371428Y-384907142D01*
X11371428Y-385588095D02*
X11371428Y-384288095D01*
D10*
D11*
X287002200Y-60000000D02*
X285002200Y-60000000D01*
D10*
D11*
X287002200Y-110000000D02*
X285002200Y-110000000D01*
D10*
D11*
X287002200Y-160000000D02*
X285002200Y-160000000D01*
D10*
D11*
X287002200Y-210000000D02*
X285002200Y-210000000D01*
D10*
D11*
X287002200Y-260000000D02*
X285002200Y-260000000D01*
D10*
D11*
X287002200Y-310000000D02*
X285002200Y-310000000D01*
D10*
D11*
X287002200Y-360000000D02*
X285002200Y-360000000D01*
D10*
D11*
X285692676Y-35216666D02*
X286311723Y-35216666D01*
X285568866Y-35588095D02*
X286002200Y-34288095D01*
X286435533Y-35588095D01*
D10*
D11*
X286095057Y-84907142D02*
X286280771Y-84969047D01*
X286342676Y-85030952D01*
X286404580Y-85154761D01*
X286404580Y-85340476D01*
X286342676Y-85464285D01*
X286280771Y-85526190D01*
X286156961Y-85588095D01*
X285661723Y-85588095D01*
X285661723Y-84288095D01*
X286095057Y-84288095D01*
X286218866Y-84350000D01*
X286280771Y-84411904D01*
X286342676Y-84535714D01*
X286342676Y-84659523D01*
X286280771Y-84783333D01*
X286218866Y-84845238D01*
X286095057Y-84907142D01*
X285661723Y-84907142D01*
D10*
D11*
X286404580Y-135464285D02*
X286342676Y-135526190D01*
X286156961Y-135588095D01*
X286033152Y-135588095D01*
X285847438Y-135526190D01*
X285723628Y-135402380D01*
X285661723Y-135278571D01*
X285599819Y-135030952D01*
X285599819Y-134845238D01*
X285661723Y-134597619D01*
X285723628Y-134473809D01*
X285847438Y-134350000D01*
X286033152Y-134288095D01*
X286156961Y-134288095D01*
X286342676Y-134350000D01*
X286404580Y-134411904D01*
D10*
D11*
X285661723Y-185588095D02*
X285661723Y-184288095D01*
X285971247Y-184288095D01*
X286156961Y-184350000D01*
X286280771Y-184473809D01*
X286342676Y-184597619D01*
X286404580Y-184845238D01*
X286404580Y-185030952D01*
X286342676Y-185278571D01*
X286280771Y-185402380D01*
X286156961Y-185526190D01*
X285971247Y-185588095D01*
X285661723Y-185588095D01*
D10*
D11*
X285723628Y-234907142D02*
X286156961Y-234907142D01*
X286342676Y-235588095D02*
X285723628Y-235588095D01*
X285723628Y-234288095D01*
X286342676Y-234288095D01*
D10*
D11*
X286187914Y-284907142D02*
X285754580Y-284907142D01*
X285754580Y-285588095D02*
X285754580Y-284288095D01*
X286373628Y-284288095D01*
D10*
D11*
X286342676Y-334350000D02*
X286218866Y-334288095D01*
X286033152Y-334288095D01*
X285847438Y-334350000D01*
X285723628Y-334473809D01*
X285661723Y-334597619D01*
X285599819Y-334845238D01*
X285599819Y-335030952D01*
X285661723Y-335278571D01*
X285723628Y-335402380D01*
X285847438Y-335526190D01*
X286033152Y-335588095D01*
X286156961Y-335588095D01*
X286342676Y-335526190D01*
X286404580Y-335464285D01*
X286404580Y-335030952D01*
X286156961Y-335030952D01*
D10*
D11*
X285630771Y-385588095D02*
X285630771Y-384288095D01*
X285630771Y-384907142D02*
X286373628Y-384907142D01*
X286373628Y-385588095D02*
X286373628Y-384288095D01*
D10*
D11*
X200434342Y-403767571D02*
X200434342Y-402267571D01*
X200791485Y-402267571D01*
X201005771Y-402339000D01*
X201148628Y-402481857D01*
X201220057Y-402624714D01*
X201291485Y-402910428D01*
X201291485Y-403124714D01*
X201220057Y-403410428D01*
X201148628Y-403553285D01*
X201005771Y-403696142D01*
X200791485Y-403767571D01*
X200434342Y-403767571D01*
X202577200Y-403767571D02*
X202577200Y-402981857D01*
X202505771Y-402839000D01*
X202362914Y-402767571D01*
X202077200Y-402767571D01*
X201934342Y-402839000D01*
X202577200Y-403696142D02*
X202434342Y-403767571D01*
X202077200Y-403767571D01*
X201934342Y-403696142D01*
X201862914Y-403553285D01*
X201862914Y-403410428D01*
X201934342Y-403267571D01*
X202077200Y-403196142D01*
X202434342Y-403196142D01*
X202577200Y-403124714D01*
X203077200Y-402767571D02*
X203648628Y-402767571D01*
X203291485Y-402267571D02*
X203291485Y-403553285D01*
X203362914Y-403696142D01*
X203505771Y-403767571D01*
X203648628Y-403767571D01*
X204720057Y-403696142D02*
X204577200Y-403767571D01*
X204291485Y-403767571D01*
X204148628Y-403696142D01*
X204077200Y-403553285D01*
X204077200Y-402981857D01*
X204148628Y-402839000D01*
X204291485Y-402767571D01*
X204577200Y-402767571D01*
X204720057Y-402839000D01*
X204791485Y-402981857D01*
X204791485Y-403124714D01*
X204077200Y-403267571D01*
X205434342Y-403624714D02*
X205505771Y-403696142D01*
X205434342Y-403767571D01*
X205362914Y-403696142D01*
X205434342Y-403624714D01*
X205434342Y-403767571D01*
X205434342Y-402839000D02*
X205505771Y-402910428D01*
X205434342Y-402981857D01*
X205362914Y-402910428D01*
X205434342Y-402839000D01*
X205434342Y-402981857D01*
X207220057Y-402410428D02*
X207291485Y-402339000D01*
X207434342Y-402267571D01*
X207791485Y-402267571D01*
X207934342Y-402339000D01*
X208005771Y-402410428D01*
X208077200Y-402553285D01*
X208077200Y-402696142D01*
X208005771Y-402910428D01*
X207148628Y-403767571D01*
X208077200Y-403767571D01*
X209005771Y-402267571D02*
X209148628Y-402267571D01*
X209291485Y-402339000D01*
X209362914Y-402410428D01*
X209434342Y-402553285D01*
X209505771Y-402839000D01*
X209505771Y-403196142D01*
X209434342Y-403481857D01*
X209362914Y-403624714D01*
X209291485Y-403696142D01*
X209148628Y-403767571D01*
X209005771Y-403767571D01*
X208862914Y-403696142D01*
X208791485Y-403624714D01*
X208720057Y-403481857D01*
X208648628Y-403196142D01*
X208648628Y-402839000D01*
X208720057Y-402553285D01*
X208791485Y-402410428D01*
X208862914Y-402339000D01*
X209005771Y-402267571D01*
X210077200Y-402410428D02*
X210148628Y-402339000D01*
X210291485Y-402267571D01*
X210648628Y-402267571D01*
X210791485Y-402339000D01*
X210862914Y-402410428D01*
X210934342Y-402553285D01*
X210934342Y-402696142D01*
X210862914Y-402910428D01*
X210005771Y-403767571D01*
X210934342Y-403767571D01*
X211862914Y-402267571D02*
X212005771Y-402267571D01*
X212148628Y-402339000D01*
X212220057Y-402410428D01*
X212291485Y-402553285D01*
X212362914Y-402839000D01*
X212362914Y-403196142D01*
X212291485Y-403481857D01*
X212220057Y-403624714D01*
X212148628Y-403696142D01*
X212005771Y-403767571D01*
X211862914Y-403767571D01*
X211720057Y-403696142D01*
X211648628Y-403624714D01*
X211577200Y-403481857D01*
X211505771Y-403196142D01*
X211505771Y-402839000D01*
X211577200Y-402553285D01*
X211648628Y-402410428D01*
X211720057Y-402339000D01*
X211862914Y-402267571D01*
X213005771Y-403196142D02*
X214148628Y-403196142D01*
X215648628Y-403767571D02*
X214791485Y-403767571D01*
X215220057Y-403767571D02*
X215220057Y-402267571D01*
X215077200Y-402481857D01*
X214934342Y-402624714D01*
X214791485Y-402696142D01*
X217077200Y-403767571D02*
X216220057Y-403767571D01*
X216648628Y-403767571D02*
X216648628Y-402267571D01*
X216505771Y-402481857D01*
X216362914Y-402624714D01*
X216220057Y-402696142D01*
X217720057Y-403196142D02*
X218862914Y-403196142D01*
X219505771Y-402410428D02*
X219577200Y-402339000D01*
X219720057Y-402267571D01*
X220077200Y-402267571D01*
X220220057Y-402339000D01*
X220291485Y-402410428D01*
X220362914Y-402553285D01*
X220362914Y-402696142D01*
X220291485Y-402910428D01*
X219434342Y-403767571D01*
X220362914Y-403767571D01*
X221648628Y-402267571D02*
X221362914Y-402267571D01*
X221220057Y-402339000D01*
X221148628Y-402410428D01*
X221005771Y-402624714D01*
X220934342Y-402910428D01*
X220934342Y-403481857D01*
X221005771Y-403624714D01*
X221077200Y-403696142D01*
X221220057Y-403767571D01*
X221505771Y-403767571D01*
X221648628Y-403696142D01*
X221720057Y-403624714D01*
X221791485Y-403481857D01*
X221791485Y-403124714D01*
X221720057Y-402981857D01*
X221648628Y-402910428D01*
X221505771Y-402839000D01*
X221220057Y-402839000D01*
X221077200Y-402910428D01*
X221005771Y-402981857D01*
X220934342Y-403124714D01*
D10*
D11*
X177002200Y-404489000D02*
X285002200Y-404489000D01*
D10*
D11*
X178434342Y-406567571D02*
X178434342Y-405067571D01*
X179291485Y-406567571D02*
X178648628Y-405710428D01*
X179291485Y-405067571D02*
X178434342Y-405924714D01*
X179934342Y-406567571D02*
X179934342Y-405567571D01*
X179934342Y-405067571D02*
X179862914Y-405139000D01*
X179934342Y-405210428D01*
X180005771Y-405139000D01*
X179934342Y-405067571D01*
X179934342Y-405210428D01*
X181505771Y-406424714D02*
X181434342Y-406496142D01*
X181220057Y-406567571D01*
X181077200Y-406567571D01*
X180862914Y-406496142D01*
X180720057Y-406353285D01*
X180648628Y-406210428D01*
X180577200Y-405924714D01*
X180577200Y-405710428D01*
X180648628Y-405424714D01*
X180720057Y-405281857D01*
X180862914Y-405139000D01*
X181077200Y-405067571D01*
X181220057Y-405067571D01*
X181434342Y-405139000D01*
X181505771Y-405210428D01*
X182791485Y-406567571D02*
X182791485Y-405781857D01*
X182720057Y-405639000D01*
X182577200Y-405567571D01*
X182291485Y-405567571D01*
X182148628Y-405639000D01*
X182791485Y-406496142D02*
X182648628Y-406567571D01*
X182291485Y-406567571D01*
X182148628Y-406496142D01*
X182077200Y-406353285D01*
X182077200Y-406210428D01*
X182148628Y-406067571D01*
X182291485Y-405996142D01*
X182648628Y-405996142D01*
X182791485Y-405924714D01*
X184148628Y-406567571D02*
X184148628Y-405067571D01*
X184148628Y-406496142D02*
X184005771Y-406567571D01*
X183720057Y-406567571D01*
X183577200Y-406496142D01*
X183505771Y-406424714D01*
X183434342Y-406281857D01*
X183434342Y-405853285D01*
X183505771Y-405710428D01*
X183577200Y-405639000D01*
X183720057Y-405567571D01*
X184005771Y-405567571D01*
X184148628Y-405639000D01*
X186005771Y-405781857D02*
X186505771Y-405781857D01*
X186720057Y-406567571D02*
X186005771Y-406567571D01*
X186005771Y-405067571D01*
X186720057Y-405067571D01*
X187362914Y-406424714D02*
X187434342Y-406496142D01*
X187362914Y-406567571D01*
X187291485Y-406496142D01*
X187362914Y-406424714D01*
X187362914Y-406567571D01*
X188077200Y-406567571D02*
X188077200Y-405067571D01*
X188434342Y-405067571D01*
X188648628Y-405139000D01*
X188791485Y-405281857D01*
X188862914Y-405424714D01*
X188934342Y-405710428D01*
X188934342Y-405924714D01*
X188862914Y-406210428D01*
X188791485Y-406353285D01*
X188648628Y-406496142D01*
X188434342Y-406567571D01*
X188077200Y-406567571D01*
X189577200Y-406424714D02*
X189648628Y-406496142D01*
X189577200Y-406567571D01*
X189505771Y-406496142D01*
X189577200Y-406424714D01*
X189577200Y-406567571D01*
X190220057Y-406139000D02*
X190934342Y-406139000D01*
X190077200Y-406567571D02*
X190577200Y-405067571D01*
X191077200Y-406567571D01*
X191577200Y-406424714D02*
X191648628Y-406496142D01*
X191577200Y-406567571D01*
X191505771Y-406496142D01*
X191577200Y-406424714D01*
X191577200Y-406567571D01*
X194577200Y-406567571D02*
X194577200Y-405067571D01*
X194720057Y-405996142D02*
X195148628Y-406567571D01*
X195148628Y-405567571D02*
X194577200Y-406139000D01*
X195791485Y-406567571D02*
X195791485Y-405567571D01*
X195791485Y-405067571D02*
X195720057Y-405139000D01*
X195791485Y-405210428D01*
X195862914Y-405139000D01*
X195791485Y-405067571D01*
X195791485Y-405210428D01*
X197148628Y-406496142D02*
X197005771Y-406567571D01*
X196720057Y-406567571D01*
X196577200Y-406496142D01*
X196505771Y-406424714D01*
X196434342Y-406281857D01*
X196434342Y-405853285D01*
X196505771Y-405710428D01*
X196577200Y-405639000D01*
X196720057Y-405567571D01*
X197005771Y-405567571D01*
X197148628Y-405639000D01*
X198434342Y-406567571D02*
X198434342Y-405781857D01*
X198362914Y-405639000D01*
X198220057Y-405567571D01*
X197934342Y-405567571D01*
X197791485Y-405639000D01*
X198434342Y-406496142D02*
X198291485Y-406567571D01*
X197934342Y-406567571D01*
X197791485Y-406496142D01*
X197720057Y-406353285D01*
X197720057Y-406210428D01*
X197791485Y-406067571D01*
X197934342Y-405996142D01*
X198291485Y-405996142D01*
X198434342Y-405924714D01*
X199791485Y-406567571D02*
X199791485Y-405067571D01*
X199791485Y-406496142D02*
X199648628Y-406567571D01*
X199362914Y-406567571D01*
X199220057Y-406496142D01*
X199148628Y-406424714D01*
X199077200Y-406281857D01*
X199077200Y-405853285D01*
X199148628Y-405710428D01*
X199220057Y-405639000D01*
X199362914Y-405567571D01*
X199648628Y-405567571D01*
X199791485Y-405639000D01*
X202077200Y-407139000D02*
X202005771Y-407067571D01*
X201862914Y-406853285D01*
X201791485Y-406710428D01*
X201720057Y-406496142D01*
X201648628Y-406139000D01*
X201648628Y-405853285D01*
X201720057Y-405496142D01*
X201791485Y-405281857D01*
X201862914Y-405139000D01*
X202005771Y-404924714D01*
X202077200Y-404853285D01*
X203362914Y-405067571D02*
X202648628Y-405067571D01*
X202577200Y-405781857D01*
X202648628Y-405710428D01*
X202791485Y-405639000D01*
X203148628Y-405639000D01*
X203291485Y-405710428D01*
X203362914Y-405781857D01*
X203434342Y-405924714D01*
X203434342Y-406281857D01*
X203362914Y-406424714D01*
X203291485Y-406496142D01*
X203148628Y-406567571D01*
X202791485Y-406567571D01*
X202648628Y-406496142D01*
X202577200Y-406424714D01*
X204077200Y-406424714D02*
X204148628Y-406496142D01*
X204077200Y-406567571D01*
X204005771Y-406496142D01*
X204077200Y-406424714D01*
X204077200Y-406567571D01*
X205577200Y-406567571D02*
X204720057Y-406567571D01*
X205148628Y-406567571D02*
X205148628Y-405067571D01*
X205005771Y-405281857D01*
X204862914Y-405424714D01*
X204720057Y-405496142D01*
X206220057Y-406424714D02*
X206291485Y-406496142D01*
X206220057Y-406567571D01*
X206148628Y-406496142D01*
X206220057Y-406424714D01*
X206220057Y-406567571D01*
X207648628Y-405067571D02*
X206934342Y-405067571D01*
X206862914Y-405781857D01*
X206934342Y-405710428D01*
X207077200Y-405639000D01*
X207434342Y-405639000D01*
X207577200Y-405710428D01*
X207648628Y-405781857D01*
X207720057Y-405924714D01*
X207720057Y-406281857D01*
X207648628Y-406424714D01*
X207577200Y-406496142D01*
X207434342Y-406567571D01*
X207077200Y-406567571D01*
X206934342Y-406496142D01*
X206862914Y-406424714D01*
X208220057Y-407139000D02*
X208291485Y-407067571D01*
X208434342Y-406853285D01*
X208505771Y-406710428D01*
X208577200Y-406496142D01*
X208648628Y-406139000D01*
X208648628Y-405853285D01*
X208577200Y-405496142D01*
X208505771Y-405281857D01*
X208434342Y-405139000D01*
X208291485Y-404924714D01*
X208220057Y-404853285D01*
X209362914Y-405996142D02*
X210505771Y-405996142D01*
X211077200Y-405067571D02*
X212005771Y-405067571D01*
X211505771Y-405639000D01*
X211720057Y-405639000D01*
X211862914Y-405710428D01*
X211934342Y-405781857D01*
X212005771Y-405924714D01*
X212005771Y-406281857D01*
X211934342Y-406424714D01*
X211862914Y-406496142D01*
X211720057Y-406567571D01*
X211291485Y-406567571D01*
X211148628Y-406496142D01*
X211077200Y-406424714D01*
D10*
D11*
X177002200Y-401489000D02*
X285002200Y-401489000D01*
D10*
D12*
X264411485Y-403767571D02*
X263911485Y-403053285D01*
X263554342Y-403767571D02*
X263554342Y-402267571D01*
X264125771Y-402267571D01*
X264268628Y-402339000D01*
X264340057Y-402410428D01*
X264411485Y-402553285D01*
X264411485Y-402767571D01*
X264340057Y-402910428D01*
X264268628Y-402981857D01*
X264125771Y-403053285D01*
X263554342Y-403053285D01*
X265625771Y-403696142D02*
X265482914Y-403767571D01*
X265197200Y-403767571D01*
X265054342Y-403696142D01*
X264982914Y-403553285D01*
X264982914Y-402981857D01*
X265054342Y-402839000D01*
X265197200Y-402767571D01*
X265482914Y-402767571D01*
X265625771Y-402839000D01*
X265697200Y-402981857D01*
X265697200Y-403124714D01*
X264982914Y-403267571D01*
X266197200Y-402767571D02*
X266554342Y-403767571D01*
X266911485Y-402767571D01*
X267482914Y-403624714D02*
X267554342Y-403696142D01*
X267482914Y-403767571D01*
X267411485Y-403696142D01*
X267482914Y-403624714D01*
X267482914Y-403767571D01*
X267482914Y-402839000D02*
X267554342Y-402910428D01*
X267482914Y-402981857D01*
X267411485Y-402910428D01*
X267482914Y-402839000D01*
X267482914Y-402981857D01*
X269125771Y-402267571D02*
X269625771Y-403767571D01*
X270125771Y-402267571D01*
X271411485Y-403767571D02*
X270554342Y-403767571D01*
X270982914Y-403767571D02*
X270982914Y-402267571D01*
X270840057Y-402481857D01*
X270697200Y-402624714D01*
X270554342Y-402696142D01*
D10*
D11*
X178362914Y-403696142D02*
X178577200Y-403767571D01*
X178934342Y-403767571D01*
X179077200Y-403696142D01*
X179148628Y-403624714D01*
X179220057Y-403481857D01*
X179220057Y-403339000D01*
X179148628Y-403196142D01*
X179077200Y-403124714D01*
X178934342Y-403053285D01*
X178648628Y-402981857D01*
X178505771Y-402910428D01*
X178434342Y-402839000D01*
X178362914Y-402696142D01*
X178362914Y-402553285D01*
X178434342Y-402410428D01*
X178505771Y-402339000D01*
X178648628Y-402267571D01*
X179005771Y-402267571D01*
X179220057Y-402339000D01*
X179862914Y-403767571D02*
X179862914Y-402767571D01*
X179862914Y-402267571D02*
X179791485Y-402339000D01*
X179862914Y-402410428D01*
X179934342Y-402339000D01*
X179862914Y-402267571D01*
X179862914Y-402410428D01*
X180434342Y-402767571D02*
X181220057Y-402767571D01*
X180434342Y-403767571D01*
X181220057Y-403767571D01*
X182362914Y-403696142D02*
X182220057Y-403767571D01*
X181934342Y-403767571D01*
X181791485Y-403696142D01*
X181720057Y-403553285D01*
X181720057Y-402981857D01*
X181791485Y-402839000D01*
X181934342Y-402767571D01*
X182220057Y-402767571D01*
X182362914Y-402839000D01*
X182434342Y-402981857D01*
X182434342Y-403124714D01*
X181720057Y-403267571D01*
X183077200Y-403624714D02*
X183148628Y-403696142D01*
X183077200Y-403767571D01*
X183005771Y-403696142D01*
X183077200Y-403624714D01*
X183077200Y-403767571D01*
X183077200Y-402839000D02*
X183148628Y-402910428D01*
X183077200Y-402981857D01*
X183005771Y-402910428D01*
X183077200Y-402839000D01*
X183077200Y-402981857D01*
X184862914Y-403339000D02*
X185577200Y-403339000D01*
X184720057Y-403767571D02*
X185220057Y-402267571D01*
X185720057Y-403767571D01*
X186077200Y-402267571D02*
X187005771Y-402267571D01*
X186505771Y-402839000D01*
X186720057Y-402839000D01*
X186862914Y-402910428D01*
X186934342Y-402981857D01*
X187005771Y-403124714D01*
X187005771Y-403481857D01*
X186934342Y-403624714D01*
X186862914Y-403696142D01*
X186720057Y-403767571D01*
X186291485Y-403767571D01*
X186148628Y-403696142D01*
X186077200Y-403624714D01*
D10*
D11*
X263434342Y-406567571D02*
X263434342Y-405067571D01*
X264791485Y-406567571D02*
X264791485Y-405067571D01*
X264791485Y-406496142D02*
X264648628Y-406567571D01*
X264362914Y-406567571D01*
X264220057Y-406496142D01*
X264148628Y-406424714D01*
X264077200Y-406281857D01*
X264077200Y-405853285D01*
X264148628Y-405710428D01*
X264220057Y-405639000D01*
X264362914Y-405567571D01*
X264648628Y-405567571D01*
X264791485Y-405639000D01*
X265505771Y-406424714D02*
X265577200Y-406496142D01*
X265505771Y-406567571D01*
X265434342Y-406496142D01*
X265505771Y-406424714D01*
X265505771Y-406567571D01*
X265505771Y-405639000D02*
X265577200Y-405710428D01*
X265505771Y-405781857D01*
X265434342Y-405710428D01*
X265505771Y-405639000D01*
X265505771Y-405781857D01*
X268148628Y-406567571D02*
X267291485Y-406567571D01*
X267720057Y-406567571D02*
X267720057Y-405067571D01*
X267577200Y-405281857D01*
X267434342Y-405424714D01*
X267291485Y-405496142D01*
X269862914Y-404996142D02*
X268577200Y-406924714D01*
X271148628Y-406567571D02*
X270291485Y-406567571D01*
X270720057Y-406567571D02*
X270720057Y-405067571D01*
X270577200Y-405281857D01*
X270434342Y-405424714D01*
X270291485Y-405496142D01*
D10*
D11*
X177002200Y-397489000D02*
X285002200Y-397489000D01*
D10*
D13*
X178714580Y-398193761D02*
X179857438Y-398193761D01*
X179036009Y-400193761D02*
X179286009Y-398193761D01*
X180274104Y-400193761D02*
X180440771Y-398860428D01*
X180524104Y-398193761D02*
X180416961Y-398289000D01*
X180500295Y-398384238D01*
X180607438Y-398289000D01*
X180524104Y-398193761D01*
X180500295Y-398384238D01*
X181107438Y-398860428D02*
X181869342Y-398860428D01*
X181476485Y-398193761D02*
X181262200Y-399908047D01*
X181333628Y-400098523D01*
X181512200Y-400193761D01*
X181702676Y-400193761D01*
X182655057Y-400193761D02*
X182476485Y-400098523D01*
X182405057Y-399908047D01*
X182619342Y-398193761D01*
X184190771Y-400098523D02*
X183988390Y-400193761D01*
X183607438Y-400193761D01*
X183428866Y-400098523D01*
X183357438Y-399908047D01*
X183452676Y-399146142D01*
X183571723Y-398955666D01*
X183774104Y-398860428D01*
X184155057Y-398860428D01*
X184333628Y-398955666D01*
X184405057Y-399146142D01*
X184381247Y-399336619D01*
X183405057Y-399527095D01*
X185155057Y-400003285D02*
X185238390Y-400098523D01*
X185131247Y-400193761D01*
X185047914Y-400098523D01*
X185155057Y-400003285D01*
X185131247Y-400193761D01*
X185286009Y-398955666D02*
X185369342Y-399050904D01*
X185262200Y-399146142D01*
X185178866Y-399050904D01*
X185286009Y-398955666D01*
X185262200Y-399146142D01*
X187571723Y-398193761D02*
X187988390Y-400193761D01*
X188905057Y-398193761D01*
X189321723Y-400193761D02*
X189488390Y-398860428D01*
X189571723Y-398193761D02*
X189464580Y-398289000D01*
X189547914Y-398384238D01*
X189655057Y-398289000D01*
X189571723Y-398193761D01*
X189547914Y-398384238D01*
X191047914Y-400098523D02*
X190845533Y-400193761D01*
X190464580Y-400193761D01*
X190286009Y-400098523D01*
X190214580Y-399908047D01*
X190309819Y-399146142D01*
X190428866Y-398955666D01*
X190631247Y-398860428D01*
X191012200Y-398860428D01*
X191190771Y-398955666D01*
X191262200Y-399146142D01*
X191238390Y-399336619D01*
X190262200Y-399527095D01*
X191988390Y-400193761D02*
X192155057Y-398860428D01*
X192107438Y-399241380D02*
X192226485Y-399050904D01*
X192333628Y-398955666D01*
X192536009Y-398860428D01*
X192726485Y-398860428D01*
X196036009Y-398289000D02*
X195857438Y-398193761D01*
X195571723Y-398193761D01*
X195274104Y-398289000D01*
X195059819Y-398479476D01*
X194940771Y-398669952D01*
X194797914Y-399050904D01*
X194762200Y-399336619D01*
X194809819Y-399717571D01*
X194881247Y-399908047D01*
X195047914Y-400098523D01*
X195321723Y-400193761D01*
X195512200Y-400193761D01*
X195809819Y-400098523D01*
X195916961Y-400003285D01*
X196000295Y-399336619D01*
X195619342Y-399336619D01*
X197524104Y-400098523D02*
X197321723Y-400193761D01*
X196940771Y-400193761D01*
X196762200Y-400098523D01*
X196690771Y-399908047D01*
X196786009Y-399146142D01*
X196905057Y-398955666D01*
X197107438Y-398860428D01*
X197488390Y-398860428D01*
X197666961Y-398955666D01*
X197738390Y-399146142D01*
X197714580Y-399336619D01*
X196738390Y-399527095D01*
X198440771Y-398860428D02*
X198655057Y-400193761D01*
X199155057Y-399241380D01*
X199416961Y-400193761D01*
X199964580Y-398860428D01*
X200559819Y-400193761D02*
X200726485Y-398860428D01*
X200809819Y-398193761D02*
X200702676Y-398289000D01*
X200786009Y-398384238D01*
X200893152Y-398289000D01*
X200809819Y-398193761D01*
X200786009Y-398384238D01*
X201678866Y-398860428D02*
X201512200Y-400193761D01*
X201655057Y-399050904D02*
X201762200Y-398955666D01*
X201964580Y-398860428D01*
X202250295Y-398860428D01*
X202428866Y-398955666D01*
X202500295Y-399146142D01*
X202369342Y-400193761D01*
X203488390Y-398860428D02*
X203321723Y-400193761D01*
X203464580Y-399050904D02*
X203571723Y-398955666D01*
X203774104Y-398860428D01*
X204059819Y-398860428D01*
X204238390Y-398955666D01*
X204309819Y-399146142D01*
X204178866Y-400193761D01*
X205012200Y-398860428D02*
X205774104Y-398860428D01*
X205381247Y-398193761D02*
X205166961Y-399908047D01*
X205238390Y-400098523D01*
X205416961Y-400193761D01*
X205607438Y-400193761D01*
D10*
D11*
X178934342Y-395581857D02*
X178434342Y-395581857D01*
X178434342Y-396367571D02*
X178434342Y-394867571D01*
X179148628Y-394867571D01*
X179720057Y-396367571D02*
X179720057Y-395367571D01*
X179720057Y-394867571D02*
X179648628Y-394939000D01*
X179720057Y-395010428D01*
X179791485Y-394939000D01*
X179720057Y-394867571D01*
X179720057Y-395010428D01*
X180648628Y-396367571D02*
X180505771Y-396296142D01*
X180434342Y-396153285D01*
X180434342Y-394867571D01*
X181791485Y-396296142D02*
X181648628Y-396367571D01*
X181362914Y-396367571D01*
X181220057Y-396296142D01*
X181148628Y-396153285D01*
X181148628Y-395581857D01*
X181220057Y-395439000D01*
X181362914Y-395367571D01*
X181648628Y-395367571D01*
X181791485Y-395439000D01*
X181862914Y-395581857D01*
X181862914Y-395724714D01*
X181148628Y-395867571D01*
X182505771Y-396224714D02*
X182577200Y-396296142D01*
X182505771Y-396367571D01*
X182434342Y-396296142D01*
X182505771Y-396224714D01*
X182505771Y-396367571D01*
X182505771Y-395439000D02*
X182577200Y-395510428D01*
X182505771Y-395581857D01*
X182434342Y-395510428D01*
X182505771Y-395439000D01*
X182505771Y-395581857D01*
X184362914Y-396367571D02*
X184362914Y-394867571D01*
X184362914Y-395581857D02*
X185220057Y-395581857D01*
X185220057Y-396367571D02*
X185220057Y-394867571D01*
X186577200Y-396367571D02*
X186577200Y-395581857D01*
X186505771Y-395439000D01*
X186362914Y-395367571D01*
X186077200Y-395367571D01*
X185934342Y-395439000D01*
X186577200Y-396296142D02*
X186434342Y-396367571D01*
X186077200Y-396367571D01*
X185934342Y-396296142D01*
X185862914Y-396153285D01*
X185862914Y-396010428D01*
X185934342Y-395867571D01*
X186077200Y-395796142D01*
X186434342Y-395796142D01*
X186577200Y-395724714D01*
X187291485Y-396367571D02*
X187291485Y-395367571D01*
X187291485Y-395653285D02*
X187362914Y-395510428D01*
X187434342Y-395439000D01*
X187577200Y-395367571D01*
X187720057Y-395367571D01*
X188862914Y-396367571D02*
X188862914Y-394867571D01*
X188862914Y-396296142D02*
X188720057Y-396367571D01*
X188434342Y-396367571D01*
X188291485Y-396296142D01*
X188220057Y-396224714D01*
X188148628Y-396081857D01*
X188148628Y-395653285D01*
X188220057Y-395510428D01*
X188291485Y-395439000D01*
X188434342Y-395367571D01*
X188720057Y-395367571D01*
X188862914Y-395439000D01*
X189434342Y-395367571D02*
X189720057Y-396367571D01*
X190005771Y-395653285D01*
X190291485Y-396367571D01*
X190577200Y-395367571D01*
X191791485Y-396367571D02*
X191791485Y-395581857D01*
X191720057Y-395439000D01*
X191577200Y-395367571D01*
X191291485Y-395367571D01*
X191148628Y-395439000D01*
X191791485Y-396296142D02*
X191648628Y-396367571D01*
X191291485Y-396367571D01*
X191148628Y-396296142D01*
X191077200Y-396153285D01*
X191077200Y-396010428D01*
X191148628Y-395867571D01*
X191291485Y-395796142D01*
X191648628Y-395796142D01*
X191791485Y-395724714D01*
X192505771Y-396367571D02*
X192505771Y-395367571D01*
X192505771Y-395653285D02*
X192577200Y-395510428D01*
X192648628Y-395439000D01*
X192791485Y-395367571D01*
X192934342Y-395367571D01*
X194005771Y-396296142D02*
X193862914Y-396367571D01*
X193577200Y-396367571D01*
X193434342Y-396296142D01*
X193362914Y-396153285D01*
X193362914Y-395581857D01*
X193434342Y-395439000D01*
X193577200Y-395367571D01*
X193862914Y-395367571D01*
X194005771Y-395439000D01*
X194077200Y-395581857D01*
X194077200Y-395724714D01*
X193362914Y-395867571D01*
X194720057Y-396224714D02*
X194791485Y-396296142D01*
X194720057Y-396367571D01*
X194648628Y-396296142D01*
X194720057Y-396224714D01*
X194720057Y-396367571D01*
X195434342Y-396367571D02*
X195434342Y-394867571D01*
X195577200Y-395796142D02*
X196005771Y-396367571D01*
X196005771Y-395367571D02*
X195434342Y-395939000D01*
X196648628Y-396367571D02*
X196648628Y-395367571D01*
X196648628Y-394867571D02*
X196577200Y-394939000D01*
X196648628Y-395010428D01*
X196720057Y-394939000D01*
X196648628Y-394867571D01*
X196648628Y-395010428D01*
X198005771Y-396296142D02*
X197862914Y-396367571D01*
X197577200Y-396367571D01*
X197434342Y-396296142D01*
X197362914Y-396224714D01*
X197291485Y-396081857D01*
X197291485Y-395653285D01*
X197362914Y-395510428D01*
X197434342Y-395439000D01*
X197577200Y-395367571D01*
X197862914Y-395367571D01*
X198005771Y-395439000D01*
X199291485Y-396367571D02*
X199291485Y-395581857D01*
X199220057Y-395439000D01*
X199077200Y-395367571D01*
X198791485Y-395367571D01*
X198648628Y-395439000D01*
X199291485Y-396296142D02*
X199148628Y-396367571D01*
X198791485Y-396367571D01*
X198648628Y-396296142D01*
X198577200Y-396153285D01*
X198577200Y-396010428D01*
X198648628Y-395867571D01*
X198791485Y-395796142D01*
X199148628Y-395796142D01*
X199291485Y-395724714D01*
X200648628Y-396367571D02*
X200648628Y-394867571D01*
X200648628Y-396296142D02*
X200505771Y-396367571D01*
X200220057Y-396367571D01*
X200077200Y-396296142D01*
X200005771Y-396224714D01*
X199934342Y-396081857D01*
X199934342Y-395653285D01*
X200005771Y-395510428D01*
X200077200Y-395439000D01*
X200220057Y-395367571D01*
X200505771Y-395367571D01*
X200648628Y-395439000D01*
X201005771Y-396510428D02*
X202148628Y-396510428D01*
X202505771Y-395367571D02*
X202505771Y-396867571D01*
X202505771Y-395439000D02*
X202648628Y-395367571D01*
X202934342Y-395367571D01*
X203077200Y-395439000D01*
X203148628Y-395510428D01*
X203220057Y-395653285D01*
X203220057Y-396081857D01*
X203148628Y-396224714D01*
X203077200Y-396296142D01*
X202934342Y-396367571D01*
X202648628Y-396367571D01*
X202505771Y-396296142D01*
X204505771Y-396296142D02*
X204362914Y-396367571D01*
X204077200Y-396367571D01*
X203934342Y-396296142D01*
X203862914Y-396224714D01*
X203791485Y-396081857D01*
X203791485Y-395653285D01*
X203862914Y-395510428D01*
X203934342Y-395439000D01*
X204077200Y-395367571D01*
X204362914Y-395367571D01*
X204505771Y-395439000D01*
X205148628Y-396367571D02*
X205148628Y-394867571D01*
X205148628Y-395439000D02*
X205291485Y-395367571D01*
X205577200Y-395367571D01*
X205720057Y-395439000D01*
X205791485Y-395510428D01*
X205862914Y-395653285D01*
X205862914Y-396081857D01*
X205791485Y-396224714D01*
X205720057Y-396296142D01*
X205577200Y-396367571D01*
X205291485Y-396367571D01*
X205148628Y-396296142D01*
D10*
D11*
X177002200Y-391489000D02*
X285002200Y-391489000D01*
D10*
D11*
X178362914Y-393596142D02*
X178577200Y-393667571D01*
X178934342Y-393667571D01*
X179077200Y-393596142D01*
X179148628Y-393524714D01*
X179220057Y-393381857D01*
X179220057Y-393239000D01*
X179148628Y-393096142D01*
X179077200Y-393024714D01*
X178934342Y-392953285D01*
X178648628Y-392881857D01*
X178505771Y-392810428D01*
X178434342Y-392739000D01*
X178362914Y-392596142D01*
X178362914Y-392453285D01*
X178434342Y-392310428D01*
X178505771Y-392239000D01*
X178648628Y-392167571D01*
X179005771Y-392167571D01*
X179220057Y-392239000D01*
X179862914Y-393667571D02*
X179862914Y-392167571D01*
X180505771Y-393667571D02*
X180505771Y-392881857D01*
X180434342Y-392739000D01*
X180291485Y-392667571D01*
X180077200Y-392667571D01*
X179934342Y-392739000D01*
X179862914Y-392810428D01*
X181791485Y-393596142D02*
X181648628Y-393667571D01*
X181362914Y-393667571D01*
X181220057Y-393596142D01*
X181148628Y-393453285D01*
X181148628Y-392881857D01*
X181220057Y-392739000D01*
X181362914Y-392667571D01*
X181648628Y-392667571D01*
X181791485Y-392739000D01*
X181862914Y-392881857D01*
X181862914Y-393024714D01*
X181148628Y-393167571D01*
X183077200Y-393596142D02*
X182934342Y-393667571D01*
X182648628Y-393667571D01*
X182505771Y-393596142D01*
X182434342Y-393453285D01*
X182434342Y-392881857D01*
X182505771Y-392739000D01*
X182648628Y-392667571D01*
X182934342Y-392667571D01*
X183077200Y-392739000D01*
X183148628Y-392881857D01*
X183148628Y-393024714D01*
X182434342Y-393167571D01*
X183577200Y-392667571D02*
X184148628Y-392667571D01*
X183791485Y-392167571D02*
X183791485Y-393453285D01*
X183862914Y-393596142D01*
X184005771Y-393667571D01*
X184148628Y-393667571D01*
X184648628Y-393524714D02*
X184720057Y-393596142D01*
X184648628Y-393667571D01*
X184577200Y-393596142D01*
X184648628Y-393524714D01*
X184648628Y-393667571D01*
X184648628Y-392739000D02*
X184720057Y-392810428D01*
X184648628Y-392881857D01*
X184577200Y-392810428D01*
X184648628Y-392739000D01*
X184648628Y-392881857D01*
D10*
D12*
X178482914Y-390596142D02*
X178697200Y-390667571D01*
X179054342Y-390667571D01*
X179197200Y-390596142D01*
X179268628Y-390524714D01*
X179340057Y-390381857D01*
X179340057Y-390239000D01*
X179268628Y-390096142D01*
X179197200Y-390024714D01*
X179054342Y-389953285D01*
X178768628Y-389881857D01*
X178625771Y-389810428D01*
X178554342Y-389739000D01*
X178482914Y-389596142D01*
X178482914Y-389453285D01*
X178554342Y-389310428D01*
X178625771Y-389239000D01*
X178768628Y-389167571D01*
X179125771Y-389167571D01*
X179340057Y-389239000D01*
X179982914Y-390667571D02*
X179982914Y-389667571D01*
X179982914Y-389167571D02*
X179911485Y-389239000D01*
X179982914Y-389310428D01*
X180054342Y-389239000D01*
X179982914Y-389167571D01*
X179982914Y-389310428D01*
X181268628Y-390596142D02*
X181125771Y-390667571D01*
X180840057Y-390667571D01*
X180697200Y-390596142D01*
X180625771Y-390453285D01*
X180625771Y-389881857D01*
X180697200Y-389739000D01*
X180840057Y-389667571D01*
X181125771Y-389667571D01*
X181268628Y-389739000D01*
X181340057Y-389881857D01*
X181340057Y-390024714D01*
X180625771Y-390167571D01*
X181982914Y-390667571D02*
X181982914Y-389667571D01*
X181982914Y-389810428D02*
X182054342Y-389739000D01*
X182197200Y-389667571D01*
X182411485Y-389667571D01*
X182554342Y-389739000D01*
X182625771Y-389881857D01*
X182625771Y-390667571D01*
X182625771Y-389881857D02*
X182697200Y-389739000D01*
X182840057Y-389667571D01*
X183054342Y-389667571D01*
X183197200Y-389739000D01*
X183268628Y-389881857D01*
X183268628Y-390667571D01*
X184554342Y-390596142D02*
X184411485Y-390667571D01*
X184125771Y-390667571D01*
X183982914Y-390596142D01*
X183911485Y-390453285D01*
X183911485Y-389881857D01*
X183982914Y-389739000D01*
X184125771Y-389667571D01*
X184411485Y-389667571D01*
X184554342Y-389739000D01*
X184625771Y-389881857D01*
X184625771Y-390024714D01*
X183911485Y-390167571D01*
X185268628Y-389667571D02*
X185268628Y-390667571D01*
X185268628Y-389810428D02*
X185340057Y-389739000D01*
X185482914Y-389667571D01*
X185697200Y-389667571D01*
X185840057Y-389739000D01*
X185911485Y-389881857D01*
X185911485Y-390667571D01*
X186554342Y-390596142D02*
X186697200Y-390667571D01*
X186982914Y-390667571D01*
X187125771Y-390596142D01*
X187197200Y-390453285D01*
X187197200Y-390381857D01*
X187125771Y-390239000D01*
X186982914Y-390167571D01*
X186768628Y-390167571D01*
X186625771Y-390096142D01*
X186554342Y-389953285D01*
X186554342Y-389881857D01*
X186625771Y-389739000D01*
X186768628Y-389667571D01*
X186982914Y-389667571D01*
X187125771Y-389739000D01*
X188982914Y-390667571D02*
X188982914Y-389167571D01*
X189482914Y-390239000D01*
X189982914Y-389167571D01*
X189982914Y-390667571D01*
X190911485Y-390667571D02*
X190768628Y-390596142D01*
X190697200Y-390524714D01*
X190625771Y-390381857D01*
X190625771Y-389953285D01*
X190697200Y-389810428D01*
X190768628Y-389739000D01*
X190911485Y-389667571D01*
X191125771Y-389667571D01*
X191268628Y-389739000D01*
X191340057Y-389810428D01*
X191411485Y-389953285D01*
X191411485Y-390381857D01*
X191340057Y-390524714D01*
X191268628Y-390596142D01*
X191125771Y-390667571D01*
X190911485Y-390667571D01*
X192054342Y-390667571D02*
X192054342Y-389167571D01*
X192054342Y-389739000D02*
X192197200Y-389667571D01*
X192482914Y-389667571D01*
X192625771Y-389739000D01*
X192697200Y-389810428D01*
X192768628Y-389953285D01*
X192768628Y-390381857D01*
X192697200Y-390524714D01*
X192625771Y-390596142D01*
X192482914Y-390667571D01*
X192197200Y-390667571D01*
X192054342Y-390596142D01*
X193411485Y-390667571D02*
X193411485Y-389667571D01*
X193411485Y-389167571D02*
X193340057Y-389239000D01*
X193411485Y-389310428D01*
X193482914Y-389239000D01*
X193411485Y-389167571D01*
X193411485Y-389310428D01*
X194340057Y-390667571D02*
X194197200Y-390596142D01*
X194125771Y-390453285D01*
X194125771Y-389167571D01*
X194911485Y-390667571D02*
X194911485Y-389667571D01*
X194911485Y-389167571D02*
X194840057Y-389239000D01*
X194911485Y-389310428D01*
X194982914Y-389239000D01*
X194911485Y-389167571D01*
X194911485Y-389310428D01*
X195411485Y-389667571D02*
X195982914Y-389667571D01*
X195625771Y-389167571D02*
X195625771Y-390453285D01*
X195697200Y-390596142D01*
X195840057Y-390667571D01*
X195982914Y-390667571D01*
X196340057Y-389667571D02*
X196697200Y-390667571D01*
X197054342Y-389667571D02*
X196697200Y-390667571D01*
X196554342Y-391024714D01*
X196482914Y-391096142D01*
X196340057Y-391167571D01*
X199554342Y-389239000D02*
X199411485Y-389167571D01*
X199197200Y-389167571D01*
X198982914Y-389239000D01*
X198840057Y-389381857D01*
X198768628Y-389524714D01*
X198697200Y-389810428D01*
X198697200Y-390024714D01*
X198768628Y-390310428D01*
X198840057Y-390453285D01*
X198982914Y-390596142D01*
X199197200Y-390667571D01*
X199340057Y-390667571D01*
X199554342Y-390596142D01*
X199625771Y-390524714D01*
X199625771Y-390024714D01*
X199340057Y-390024714D01*
X200268628Y-390667571D02*
X200268628Y-389667571D01*
X200268628Y-389810428D02*
X200340057Y-389739000D01*
X200482914Y-389667571D01*
X200697200Y-389667571D01*
X200840057Y-389739000D01*
X200911485Y-389881857D01*
X200911485Y-390667571D01*
X200911485Y-389881857D02*
X200982914Y-389739000D01*
X201125771Y-389667571D01*
X201340057Y-389667571D01*
X201482914Y-389739000D01*
X201554342Y-389881857D01*
X201554342Y-390667571D01*
X202268628Y-390667571D02*
X202268628Y-389167571D01*
X202268628Y-389739000D02*
X202411485Y-389667571D01*
X202697200Y-389667571D01*
X202840057Y-389739000D01*
X202911485Y-389810428D01*
X202982914Y-389953285D01*
X202982914Y-390381857D01*
X202911485Y-390524714D01*
X202840057Y-390596142D01*
X202697200Y-390667571D01*
X202411485Y-390667571D01*
X202268628Y-390596142D01*
X203625771Y-390667571D02*
X203625771Y-389167571D01*
X203625771Y-389881857D02*
X204482914Y-389881857D01*
X204482914Y-390667571D02*
X204482914Y-389167571D01*
D10*
D11*
X179148628Y-387667571D02*
X178434342Y-387667571D01*
X178434342Y-386167571D01*
X179648628Y-387667571D02*
X179648628Y-386667571D01*
X179648628Y-386167571D02*
X179577200Y-386239000D01*
X179648628Y-386310428D01*
X179720057Y-386239000D01*
X179648628Y-386167571D01*
X179648628Y-386310428D01*
X180362914Y-386667571D02*
X180362914Y-387667571D01*
X180362914Y-386810428D02*
X180434342Y-386739000D01*
X180577200Y-386667571D01*
X180791485Y-386667571D01*
X180934342Y-386739000D01*
X181005771Y-386881857D01*
X181005771Y-387667571D01*
X182362914Y-387667571D02*
X182362914Y-386167571D01*
X182362914Y-387596142D02*
X182220057Y-387667571D01*
X181934342Y-387667571D01*
X181791485Y-387596142D01*
X181720057Y-387524714D01*
X181648628Y-387381857D01*
X181648628Y-386953285D01*
X181720057Y-386810428D01*
X181791485Y-386739000D01*
X181934342Y-386667571D01*
X182220057Y-386667571D01*
X182362914Y-386739000D01*
X183720057Y-387667571D02*
X183720057Y-386881857D01*
X183648628Y-386739000D01*
X183505771Y-386667571D01*
X183220057Y-386667571D01*
X183077200Y-386739000D01*
X183720057Y-387596142D02*
X183577200Y-387667571D01*
X183220057Y-387667571D01*
X183077200Y-387596142D01*
X183005771Y-387453285D01*
X183005771Y-387310428D01*
X183077200Y-387167571D01*
X183220057Y-387096142D01*
X183577200Y-387096142D01*
X183720057Y-387024714D01*
X185577200Y-387667571D02*
X185577200Y-386167571D01*
X185577200Y-386881857D02*
X186434342Y-386881857D01*
X186434342Y-387667571D02*
X186434342Y-386167571D01*
X187720057Y-387596142D02*
X187577200Y-387667571D01*
X187291485Y-387667571D01*
X187148628Y-387596142D01*
X187077200Y-387453285D01*
X187077200Y-386881857D01*
X187148628Y-386739000D01*
X187291485Y-386667571D01*
X187577200Y-386667571D01*
X187720057Y-386739000D01*
X187791485Y-386881857D01*
X187791485Y-387024714D01*
X187077200Y-387167571D01*
X188434342Y-387667571D02*
X188434342Y-386667571D01*
X188434342Y-386167571D02*
X188362914Y-386239000D01*
X188434342Y-386310428D01*
X188505771Y-386239000D01*
X188434342Y-386167571D01*
X188434342Y-386310428D01*
X189148628Y-386667571D02*
X189148628Y-387667571D01*
X189148628Y-386810428D02*
X189220057Y-386739000D01*
X189362914Y-386667571D01*
X189577200Y-386667571D01*
X189720057Y-386739000D01*
X189791485Y-386881857D01*
X189791485Y-387667571D01*
X190505771Y-387667571D02*
X190505771Y-386667571D01*
X190505771Y-386953285D02*
X190577200Y-386810428D01*
X190648628Y-386739000D01*
X190791485Y-386667571D01*
X190934342Y-386667571D01*
X191434342Y-387667571D02*
X191434342Y-386667571D01*
X191434342Y-386167571D02*
X191362914Y-386239000D01*
X191434342Y-386310428D01*
X191505771Y-386239000D01*
X191434342Y-386167571D01*
X191434342Y-386310428D01*
X192791485Y-387596142D02*
X192648628Y-387667571D01*
X192362914Y-387667571D01*
X192220057Y-387596142D01*
X192148628Y-387524714D01*
X192077200Y-387381857D01*
X192077200Y-386953285D01*
X192148628Y-386810428D01*
X192220057Y-386739000D01*
X192362914Y-386667571D01*
X192648628Y-386667571D01*
X192791485Y-386739000D01*
X193434342Y-387667571D02*
X193434342Y-386167571D01*
X194077200Y-387667571D02*
X194077200Y-386881857D01*
X194005771Y-386739000D01*
X193862914Y-386667571D01*
X193648628Y-386667571D01*
X193505771Y-386739000D01*
X193434342Y-386810428D01*
D10*
D11*
X178434342Y-384667571D02*
X178434342Y-383167571D01*
X178934342Y-384239000D01*
X179434342Y-383167571D01*
X179434342Y-384667571D01*
X180791485Y-384667571D02*
X180791485Y-383881857D01*
X180720057Y-383739000D01*
X180577200Y-383667571D01*
X180291485Y-383667571D01*
X180148628Y-383739000D01*
X180791485Y-384596142D02*
X180648628Y-384667571D01*
X180291485Y-384667571D01*
X180148628Y-384596142D01*
X180077200Y-384453285D01*
X180077200Y-384310428D01*
X180148628Y-384167571D01*
X180291485Y-384096142D01*
X180648628Y-384096142D01*
X180791485Y-384024714D01*
X181291485Y-383667571D02*
X181862914Y-383667571D01*
X181505771Y-383167571D02*
X181505771Y-384453285D01*
X181577200Y-384596142D01*
X181720057Y-384667571D01*
X181862914Y-384667571D01*
X182362914Y-384667571D02*
X182362914Y-383167571D01*
X183005771Y-384667571D02*
X183005771Y-383881857D01*
X182934342Y-383739000D01*
X182791485Y-383667571D01*
X182577200Y-383667571D01*
X182434342Y-383739000D01*
X182362914Y-383810428D01*
X183720057Y-384667571D02*
X183720057Y-383667571D01*
X183720057Y-383167571D02*
X183648628Y-383239000D01*
X183720057Y-383310428D01*
X183791485Y-383239000D01*
X183720057Y-383167571D01*
X183720057Y-383310428D01*
X184362914Y-384596142D02*
X184505771Y-384667571D01*
X184791485Y-384667571D01*
X184934342Y-384596142D01*
X185005771Y-384453285D01*
X185005771Y-384381857D01*
X184934342Y-384239000D01*
X184791485Y-384167571D01*
X184577200Y-384167571D01*
X184434342Y-384096142D01*
X184362914Y-383953285D01*
X184362914Y-383881857D01*
X184434342Y-383739000D01*
X184577200Y-383667571D01*
X184791485Y-383667571D01*
X184934342Y-383739000D01*
X187505771Y-384667571D02*
X186791485Y-384667571D01*
X186791485Y-383167571D01*
X188577200Y-384596142D02*
X188434342Y-384667571D01*
X188148628Y-384667571D01*
X188005771Y-384596142D01*
X187934342Y-384453285D01*
X187934342Y-383881857D01*
X188005771Y-383739000D01*
X188148628Y-383667571D01*
X188434342Y-383667571D01*
X188577200Y-383739000D01*
X188648628Y-383881857D01*
X188648628Y-384024714D01*
X187934342Y-384167571D01*
X189291485Y-384667571D02*
X189291485Y-383167571D01*
X189934342Y-384667571D02*
X189934342Y-383881857D01*
X189862914Y-383739000D01*
X189720057Y-383667571D01*
X189505771Y-383667571D01*
X189362914Y-383739000D01*
X189291485Y-383810428D01*
X190648628Y-384667571D02*
X190648628Y-383667571D01*
X190648628Y-383810428D02*
X190720057Y-383739000D01*
X190862914Y-383667571D01*
X191077200Y-383667571D01*
X191220057Y-383739000D01*
X191291485Y-383881857D01*
X191291485Y-384667571D01*
X191291485Y-383881857D02*
X191362914Y-383739000D01*
X191505771Y-383667571D01*
X191720057Y-383667571D01*
X191862914Y-383739000D01*
X191934342Y-383881857D01*
X191934342Y-384667571D01*
X193291485Y-384667571D02*
X193291485Y-383881857D01*
X193220057Y-383739000D01*
X193077200Y-383667571D01*
X192791485Y-383667571D01*
X192648628Y-383739000D01*
X193291485Y-384596142D02*
X193148628Y-384667571D01*
X192791485Y-384667571D01*
X192648628Y-384596142D01*
X192577200Y-384453285D01*
X192577200Y-384310428D01*
X192648628Y-384167571D01*
X192791485Y-384096142D01*
X193148628Y-384096142D01*
X193291485Y-384024714D01*
X194005771Y-383667571D02*
X194005771Y-384667571D01*
X194005771Y-383810428D02*
X194077200Y-383739000D01*
X194220057Y-383667571D01*
X194434342Y-383667571D01*
X194577200Y-383739000D01*
X194648628Y-383881857D01*
X194648628Y-384667571D01*
X195362914Y-383667571D02*
X195362914Y-384667571D01*
X195362914Y-383810428D02*
X195434342Y-383739000D01*
X195577200Y-383667571D01*
X195791485Y-383667571D01*
X195934342Y-383739000D01*
X196005771Y-383881857D01*
X196005771Y-384667571D01*
D10*
D11*
X197002200Y-401489000D02*
X197002200Y-404489000D01*
D10*
D11*
X261002200Y-401489000D02*
X261002200Y-407989000D01*
D14*
X27940000Y-232156000D03*
X27940000Y-229616000D03*
X27940000Y-227076000D03*
D15*
X251460000Y-252730000D03*
D16*
X257760000Y-252730000D03*
D17*
X254460000Y-247730000D03*
D18*
X30850000Y-238475000D03*
X30850000Y-250515000D03*
D19*
X33560000Y-245745000D03*
X33560000Y-243245000D03*
X35560000Y-243245000D03*
D20*
X35560000Y-245745000D03*
D21*
X260350000Y-233760000D03*
D22*
X260350000Y-238760000D03*
D23*
X21590000Y-218440000D03*
X21590000Y-263900000D03*
X262890000Y-264160000D03*
X262890000Y-218440000D03*
X106426000Y-249174000D03*
X195072000Y-250444000D03*
X195072000Y-235204000D03*
X185928000Y-237490000D03*
X178816000Y-257556000D03*
X175006000Y-236474000D03*
X168656000Y-254000000D03*
X153924000Y-255778000D03*
X149098000Y-243078000D03*
X123190000Y-251206000D03*
X104648000Y-256032000D03*
X111506000Y-253746000D03*
X33020000Y-225806000D03*
X117602000Y-227330000D03*
X103124000Y-232918000D03*
X86868000Y-253492000D03*
X37084000Y-248666000D03*
X247142000Y-248158000D03*
X259588000Y-246888000D03*
X236220000Y-257048000D03*
X219964000Y-237744000D03*
X98552000Y-250444000D03*
X107696000Y-258572000D03*
X110490000Y-257302000D03*
X106680000Y-261366000D03*
X116332000Y-262890000D03*
X120396000Y-261112000D03*
X121666000Y-254762000D03*
X115316000Y-245364000D03*
X102870000Y-248412000D03*
X31242000Y-242570000D03*
X30226000Y-234188000D03*
X29464000Y-218440000D03*
X38862000Y-217678000D03*
X61722000Y-217678000D03*
X90170000Y-217678000D03*
X119634000Y-217678000D03*
X200152000Y-218440000D03*
X188976000Y-218948000D03*
X181610000Y-221996000D03*
X157734000Y-221996000D03*
X181864000Y-236982000D03*
X248920000Y-255270000D03*
X182372000Y-265684000D03*
X227838000Y-218948000D03*
X241554000Y-229870000D03*
X27178000Y-268224000D03*
X46990000Y-257810000D03*
X70866000Y-258064000D03*
X162814000Y-243332000D03*
X176784000Y-231140000D03*
X202692000Y-246634000D03*
X209042000Y-246634000D03*
X203200000Y-236982000D03*
X145796000Y-262382000D03*
X134112000Y-262128000D03*
X135382000Y-248412000D03*
X144272000Y-248412000D03*
X135890000Y-257302000D03*
X145796000Y-257302000D03*
X106807000Y-246888000D03*
X47492001Y-242067999D03*
X105791000Y-247650000D03*
X110363000Y-249555000D03*
X114173000Y-253365000D03*
X31496000Y-201295000D03*
X133858000Y-257810000D03*
X110871000Y-262509000D03*
X145542000Y-259715000D03*
X111506000Y-265684000D03*
X112776000Y-262128000D03*
X119761000Y-258699000D03*
X124968000Y-245745000D03*
X92583000Y-225425000D03*
X165989000Y-257302000D03*
X41910000Y-171450000D03*
X41910000Y-166243000D03*
X77470000Y-166243000D03*
X77470000Y-172085000D03*
X111760000Y-171450000D03*
X111760000Y-166243000D03*
X147320000Y-166243000D03*
X147320000Y-171450000D03*
X182880000Y-166243000D03*
X182880000Y-171450000D03*
X217170000Y-204470000D03*
X217170000Y-198755000D03*
X217170000Y-166243000D03*
X217170000Y-171450000D03*
X252730000Y-166243000D03*
X252730000Y-171450000D03*
X41910000Y-204470000D03*
X41910000Y-198755000D03*
X77470000Y-204470000D03*
X77470000Y-198755000D03*
X111760000Y-198755000D03*
X111760000Y-204470000D03*
X147320000Y-204470000D03*
X147320000Y-198755000D03*
X182880000Y-198755000D03*
X182880000Y-204470000D03*
X252730000Y-204470000D03*
X252730000Y-198755000D03*
X41910000Y-133731000D03*
X41910000Y-139065000D03*
X77470000Y-139065000D03*
X77470000Y-133731000D03*
X113030000Y-133731000D03*
X113030000Y-139065000D03*
X147320000Y-139065000D03*
X147320000Y-133731000D03*
X182880000Y-133731000D03*
X182880000Y-139065000D03*
X217170000Y-133731000D03*
X217170000Y-139065000D03*
X252730000Y-133731000D03*
X252730000Y-139065000D03*
X252730000Y-106680000D03*
X252730000Y-101219000D03*
X252730000Y-74295000D03*
X252730000Y-68834000D03*
X252603000Y-41910000D03*
X252730000Y-36322000D03*
X217170000Y-36195000D03*
X217170000Y-41910000D03*
X217170000Y-74295000D03*
X217170000Y-68707000D03*
X182880000Y-36195000D03*
X182880000Y-41910000D03*
X147320000Y-36195000D03*
X147320000Y-41910000D03*
X147320000Y-68834000D03*
X147320000Y-74295000D03*
X147320000Y-101219000D03*
X147320000Y-106680000D03*
X182880000Y-106680000D03*
X182880000Y-101219000D03*
X182880000Y-74295000D03*
X182880000Y-68707000D03*
X217170000Y-106553000D03*
X217170000Y-101219000D03*
X113030000Y-106680000D03*
X113030000Y-101219000D03*
X113030000Y-74295000D03*
X113030000Y-68707000D03*
X113030000Y-41910000D03*
X113030000Y-36068000D03*
X77470000Y-36322000D03*
X77470000Y-41910000D03*
X77470000Y-68707000D03*
X77470000Y-74168000D03*
X43180000Y-74295000D03*
X43180000Y-68707000D03*
X41910000Y-41783000D03*
X41910000Y-36068000D03*
X43180000Y-106680000D03*
X43180000Y-101219000D03*
X77470000Y-106680000D03*
X77470000Y-101346000D03*
X209042000Y-222758000D03*
X208026000Y-222758000D03*
X208026000Y-221742000D03*
X209042000Y-221742000D03*
X207010000Y-222758000D03*
X207010000Y-221742000D03*
X207010000Y-223774000D03*
X208026000Y-223774000D03*
X209042000Y-223774000D03*
X172720000Y-255270000D03*
X217170000Y-255270000D03*
X194564000Y-255270000D03*
D24*
X34409999Y-242395001D02*
X33560000Y-243245000D01*
X34737001Y-242067999D02*
X34409999Y-242395001D01*
X101986999Y-242067999D02*
X47492001Y-242067999D01*
X106807000Y-246888000D02*
X101986999Y-242067999D01*
X47492001Y-242067999D02*
X34737001Y-242067999D01*
X35560000Y-243245000D02*
X101386000Y-243245000D01*
X101386000Y-243245000D02*
X105791000Y-247650000D01*
D25*
X27940000Y-243332000D02*
X27940000Y-232156000D01*
X32512000Y-247904000D02*
X27940000Y-243332000D01*
X34798000Y-247904000D02*
X32512000Y-247904000D01*
X35560000Y-245745000D02*
X35560000Y-247142000D01*
X35560000Y-247142000D02*
X34798000Y-247904000D01*
D24*
X110363000Y-249555000D02*
X114173000Y-253365000D01*
X133858000Y-253559038D02*
X133858000Y-257810000D01*
X100770962Y-220472000D02*
X133858000Y-253559038D01*
X35052000Y-220472000D02*
X100770962Y-220472000D01*
X31496000Y-201295000D02*
X31496000Y-216916000D01*
X31496000Y-216916000D02*
X35052000Y-220472000D01*
X110871000Y-262509000D02*
X113665000Y-259715000D01*
X113665000Y-259715000D02*
X145542000Y-259715000D01*
X111506000Y-265684000D02*
X111506000Y-263398000D01*
X111506000Y-263398000D02*
X112776000Y-262128000D01*
X119761000Y-258699000D02*
X124968000Y-253492000D01*
X124968000Y-253492000D02*
X124968000Y-245745000D01*
X124968000Y-245745000D02*
X104648000Y-225425000D01*
X104648000Y-225425000D02*
X92583000Y-225425000D01*
X165989000Y-257302000D02*
X164338000Y-258953000D01*
X164084000Y-258699000D02*
X119761000Y-258699000D01*
X164338000Y-258953000D02*
X164084000Y-258699000D01*
D26*
X257830000Y-238760000D02*
X260350000Y-238760000D01*
X251460000Y-245130000D02*
X257830000Y-238760000D01*
X251460000Y-245130000D02*
X251440000Y-245130000D01*
X251440000Y-245130000D02*
X250698000Y-245872000D01*
X250698000Y-245872000D02*
X250698000Y-248412000D01*
X251460000Y-249174000D02*
X251460000Y-252730000D01*
X250698000Y-248412000D02*
X251460000Y-249174000D01*
D24*
X172720000Y-255270000D02*
X194564000Y-255270000D01*
X194564000Y-255270000D02*
X217170000Y-255270000D01*
G36*
X261294608Y-20674635D02*
G01*
X260854506Y-20856931D01*
X260458424Y-21121585D01*
X260121585Y-21458424D01*
X259856931Y-21854506D01*
X259674635Y-22294608D01*
X259581701Y-22761818D01*
X259581701Y-23238182D01*
X259674635Y-23705392D01*
X259856931Y-24145494D01*
X260121585Y-24541576D01*
X260458424Y-24878415D01*
X260854506Y-25143069D01*
X261294608Y-25325365D01*
X261761818Y-25418299D01*
X262238182Y-25418299D01*
X262705392Y-25325365D01*
X263145494Y-25143069D01*
X263541576Y-24878415D01*
X263878415Y-24541576D01*
X264033000Y-24310224D01*
X264033000Y-143689776D01*
X263878415Y-143458424D01*
X263541576Y-143121585D01*
X263145494Y-142856931D01*
X262705392Y-142674635D01*
X262238182Y-142581701D01*
X261761818Y-142581701D01*
X261294608Y-142674635D01*
X260854506Y-142856931D01*
X260458424Y-143121585D01*
X260121585Y-143458424D01*
X259856931Y-143854506D01*
X259674635Y-144294608D01*
X259581701Y-144761818D01*
X259581701Y-145238182D01*
X259674635Y-145705392D01*
X259856931Y-146145494D01*
X260121585Y-146541576D01*
X260458424Y-146878415D01*
X260854506Y-147143069D01*
X261294608Y-147325365D01*
X261761818Y-147418299D01*
X262238182Y-147418299D01*
X262705392Y-147325365D01*
X263145494Y-147143069D01*
X263541576Y-146878415D01*
X263878415Y-146541576D01*
X264033000Y-146310224D01*
X264033000Y-213233000D01*
X224790000Y-213233000D01*
X224765224Y-213235440D01*
X224741399Y-213242667D01*
X224719443Y-213254403D01*
X224700197Y-213270197D01*
X224684403Y-213289443D01*
X224672667Y-213311399D01*
X224665440Y-213335224D01*
X224663000Y-213360000D01*
X224663000Y-233553000D01*
X203327000Y-233553000D01*
X203327000Y-213360000D01*
X203324560Y-213335224D01*
X203317333Y-213311399D01*
X203305597Y-213289443D01*
X203289803Y-213270197D01*
X203270557Y-213254403D01*
X203248601Y-213242667D01*
X203224776Y-213235440D01*
X203200000Y-213233000D01*
X32258000Y-213233000D01*
X32258000Y-201996711D01*
X32299937Y-201954774D01*
X32413205Y-201785256D01*
X32491226Y-201596898D01*
X32531000Y-201396939D01*
X32531000Y-201193061D01*
X32491226Y-200993102D01*
X32413205Y-200804744D01*
X32299937Y-200635226D01*
X32155774Y-200491063D01*
X31986256Y-200377795D01*
X31797898Y-200299774D01*
X31597939Y-200260000D01*
X31394061Y-200260000D01*
X31194102Y-200299774D01*
X31005744Y-200377795D01*
X30836226Y-200491063D01*
X30692063Y-200635226D01*
X30578795Y-200804744D01*
X30500774Y-200993102D01*
X30461000Y-201193061D01*
X30461000Y-201396939D01*
X30500774Y-201596898D01*
X30578795Y-201785256D01*
X30692063Y-201954774D01*
X30734000Y-201996711D01*
X30734001Y-213233000D01*
X20660000Y-213233000D01*
X20660000Y-145631817D01*
X20674635Y-145705392D01*
X20856931Y-146145494D01*
X21121585Y-146541576D01*
X21458424Y-146878415D01*
X21854506Y-147143069D01*
X22294608Y-147325365D01*
X22761818Y-147418299D01*
X23238182Y-147418299D01*
X23705392Y-147325365D01*
X24145494Y-147143069D01*
X24541576Y-146878415D01*
X24878415Y-146541576D01*
X25143069Y-146145494D01*
X25325365Y-145705392D01*
X25418299Y-145238182D01*
X25418299Y-144761818D01*
X140081701Y-144761818D01*
X140081701Y-145238182D01*
X140174635Y-145705392D01*
X140356931Y-146145494D01*
X140621585Y-146541576D01*
X140958424Y-146878415D01*
X141354506Y-147143069D01*
X141794608Y-147325365D01*
X142261818Y-147418299D01*
X142738182Y-147418299D01*
X143205392Y-147325365D01*
X143645494Y-147143069D01*
X144041576Y-146878415D01*
X144378415Y-146541576D01*
X144643069Y-146145494D01*
X144825365Y-145705392D01*
X144918299Y-145238182D01*
X144918299Y-144761818D01*
X144825365Y-144294608D01*
X144643069Y-143854506D01*
X144378415Y-143458424D01*
X144041576Y-143121585D01*
X143645494Y-142856931D01*
X143205392Y-142674635D01*
X142738182Y-142581701D01*
X142261818Y-142581701D01*
X141794608Y-142674635D01*
X141354506Y-142856931D01*
X140958424Y-143121585D01*
X140621585Y-143458424D01*
X140356931Y-143854506D01*
X140174635Y-144294608D01*
X140081701Y-144761818D01*
X25418299Y-144761818D01*
X25325365Y-144294608D01*
X25143069Y-143854506D01*
X24878415Y-143458424D01*
X24541576Y-143121585D01*
X24145494Y-142856931D01*
X23705392Y-142674635D01*
X23238182Y-142581701D01*
X22761818Y-142581701D01*
X22294608Y-142674635D01*
X21854506Y-142856931D01*
X21458424Y-143121585D01*
X21121585Y-143458424D01*
X20856931Y-143854506D01*
X20674635Y-144294608D01*
X20660000Y-144368183D01*
X20660000Y-23631817D01*
X20674635Y-23705392D01*
X20856931Y-24145494D01*
X21121585Y-24541576D01*
X21458424Y-24878415D01*
X21854506Y-25143069D01*
X22294608Y-25325365D01*
X22761818Y-25418299D01*
X23238182Y-25418299D01*
X23705392Y-25325365D01*
X24145494Y-25143069D01*
X24541576Y-24878415D01*
X24878415Y-24541576D01*
X25143069Y-24145494D01*
X25325365Y-23705392D01*
X25418299Y-23238182D01*
X25418299Y-22761818D01*
X25325365Y-22294608D01*
X25143069Y-21854506D01*
X24878415Y-21458424D01*
X24541576Y-21121585D01*
X24145494Y-20856931D01*
X23705392Y-20674635D01*
X23631817Y-20660000D01*
X261368183Y-20660000D01*
X261294608Y-20674635D01*
G37*
X261294608Y-20674635D02*
X260854506Y-20856931D01*
X260458424Y-21121585D01*
X260121585Y-21458424D01*
X259856931Y-21854506D01*
X259674635Y-22294608D01*
X259581701Y-22761818D01*
X259581701Y-23238182D01*
X259674635Y-23705392D01*
X259856931Y-24145494D01*
X260121585Y-24541576D01*
X260458424Y-24878415D01*
X260854506Y-25143069D01*
X261294608Y-25325365D01*
X261761818Y-25418299D01*
X262238182Y-25418299D01*
X262705392Y-25325365D01*
X263145494Y-25143069D01*
X263541576Y-24878415D01*
X263878415Y-24541576D01*
X264033000Y-24310224D01*
X264033000Y-143689776D01*
X263878415Y-143458424D01*
X263541576Y-143121585D01*
X263145494Y-142856931D01*
X262705392Y-142674635D01*
X262238182Y-142581701D01*
X261761818Y-142581701D01*
X261294608Y-142674635D01*
X260854506Y-142856931D01*
X260458424Y-143121585D01*
X260121585Y-143458424D01*
X259856931Y-143854506D01*
X259674635Y-144294608D01*
X259581701Y-144761818D01*
X259581701Y-145238182D01*
X259674635Y-145705392D01*
X259856931Y-146145494D01*
X260121585Y-146541576D01*
X260458424Y-146878415D01*
X260854506Y-147143069D01*
X261294608Y-147325365D01*
X261761818Y-147418299D01*
X262238182Y-147418299D01*
X262705392Y-147325365D01*
X263145494Y-147143069D01*
X263541576Y-146878415D01*
X263878415Y-146541576D01*
X264033000Y-146310224D01*
X264033000Y-213233000D01*
X224790000Y-213233000D01*
X224765224Y-213235440D01*
X224741399Y-213242667D01*
X224719443Y-213254403D01*
X224700197Y-213270197D01*
X224684403Y-213289443D01*
X224672667Y-213311399D01*
X224665440Y-213335224D01*
X224663000Y-213360000D01*
X224663000Y-233553000D01*
X203327000Y-233553000D01*
X203327000Y-213360000D01*
X203324560Y-213335224D01*
X203317333Y-213311399D01*
X203305597Y-213289443D01*
X203289803Y-213270197D01*
X203270557Y-213254403D01*
X203248601Y-213242667D01*
X203224776Y-213235440D01*
X203200000Y-213233000D01*
X32258000Y-213233000D01*
X32258000Y-201996711D01*
X32299937Y-201954774D01*
X32413205Y-201785256D01*
X32491226Y-201596898D01*
X32531000Y-201396939D01*
X32531000Y-201193061D01*
X32491226Y-200993102D01*
X32413205Y-200804744D01*
X32299937Y-200635226D01*
X32155774Y-200491063D01*
X31986256Y-200377795D01*
X31797898Y-200299774D01*
X31597939Y-200260000D01*
X31394061Y-200260000D01*
X31194102Y-200299774D01*
X31005744Y-200377795D01*
X30836226Y-200491063D01*
X30692063Y-200635226D01*
X30578795Y-200804744D01*
X30500774Y-200993102D01*
X30461000Y-201193061D01*
X30461000Y-201396939D01*
X30500774Y-201596898D01*
X30578795Y-201785256D01*
X30692063Y-201954774D01*
X30734000Y-201996711D01*
X30734001Y-213233000D01*
X20660000Y-213233000D01*
X20660000Y-145631817D01*
X20674635Y-145705392D01*
X20856931Y-146145494D01*
X21121585Y-146541576D01*
X21458424Y-146878415D01*
X21854506Y-147143069D01*
X22294608Y-147325365D01*
X22761818Y-147418299D01*
X23238182Y-147418299D01*
X23705392Y-147325365D01*
X24145494Y-147143069D01*
X24541576Y-146878415D01*
X24878415Y-146541576D01*
X25143069Y-146145494D01*
X25325365Y-145705392D01*
X25418299Y-145238182D01*
X25418299Y-144761818D01*
X140081701Y-144761818D01*
X140081701Y-145238182D01*
X140174635Y-145705392D01*
X140356931Y-146145494D01*
X140621585Y-146541576D01*
X140958424Y-146878415D01*
X141354506Y-147143069D01*
X141794608Y-147325365D01*
X142261818Y-147418299D01*
X142738182Y-147418299D01*
X143205392Y-147325365D01*
X143645494Y-147143069D01*
X144041576Y-146878415D01*
X144378415Y-146541576D01*
X144643069Y-146145494D01*
X144825365Y-145705392D01*
X144918299Y-145238182D01*
X144918299Y-144761818D01*
X144825365Y-144294608D01*
X144643069Y-143854506D01*
X144378415Y-143458424D01*
X144041576Y-143121585D01*
X143645494Y-142856931D01*
X143205392Y-142674635D01*
X142738182Y-142581701D01*
X142261818Y-142581701D01*
X141794608Y-142674635D01*
X141354506Y-142856931D01*
X140958424Y-143121585D01*
X140621585Y-143458424D01*
X140356931Y-143854506D01*
X140174635Y-144294608D01*
X140081701Y-144761818D01*
X25418299Y-144761818D01*
X25325365Y-144294608D01*
X25143069Y-143854506D01*
X24878415Y-143458424D01*
X24541576Y-143121585D01*
X24145494Y-142856931D01*
X23705392Y-142674635D01*
X23238182Y-142581701D01*
X22761818Y-142581701D01*
X22294608Y-142674635D01*
X21854506Y-142856931D01*
X21458424Y-143121585D01*
X21121585Y-143458424D01*
X20856931Y-143854506D01*
X20674635Y-144294608D01*
X20660000Y-144368183D01*
X20660000Y-23631817D01*
X20674635Y-23705392D01*
X20856931Y-24145494D01*
X21121585Y-24541576D01*
X21458424Y-24878415D01*
X21854506Y-25143069D01*
X22294608Y-25325365D01*
X22761818Y-25418299D01*
X23238182Y-25418299D01*
X23705392Y-25325365D01*
X24145494Y-25143069D01*
X24541576Y-24878415D01*
X24878415Y-24541576D01*
X25143069Y-24145494D01*
X25325365Y-23705392D01*
X25418299Y-23238182D01*
X25418299Y-22761818D01*
X25325365Y-22294608D01*
X25143069Y-21854506D01*
X24878415Y-21458424D01*
X24541576Y-21121585D01*
X24145494Y-20856931D01*
X23705392Y-20674635D01*
X23631817Y-20660000D01*
X261368183Y-20660000D01*
X261294608Y-20674635D01*
G36*
X30859355Y-217341392D02*
G01*
X30930721Y-217428351D01*
X30954579Y-217457422D01*
X30983649Y-217481279D01*
X34486720Y-220984351D01*
X34510578Y-221013422D01*
X34626608Y-221108645D01*
X34758985Y-221179402D01*
X34902622Y-221222974D01*
X35014574Y-221234000D01*
X35014576Y-221234000D01*
X35051999Y-221237686D01*
X35089422Y-221234000D01*
X100455332Y-221234000D01*
X103884332Y-224663000D01*
X93284711Y-224663000D01*
X93242774Y-224621063D01*
X93073256Y-224507795D01*
X92884898Y-224429774D01*
X92684939Y-224390000D01*
X92481061Y-224390000D01*
X92281102Y-224429774D01*
X92092744Y-224507795D01*
X91923226Y-224621063D01*
X91779063Y-224765226D01*
X91665795Y-224934744D01*
X91587774Y-225123102D01*
X91548000Y-225323061D01*
X91548000Y-225526939D01*
X91587774Y-225726898D01*
X91665795Y-225915256D01*
X91779063Y-226084774D01*
X91923226Y-226228937D01*
X92092744Y-226342205D01*
X92281102Y-226420226D01*
X92481061Y-226460000D01*
X92684939Y-226460000D01*
X92884898Y-226420226D01*
X93073256Y-226342205D01*
X93242774Y-226228937D01*
X93284711Y-226187000D01*
X104332370Y-226187000D01*
X123933000Y-245787630D01*
X123933000Y-245846939D01*
X123972774Y-246046898D01*
X124050795Y-246235256D01*
X124164063Y-246404774D01*
X124206001Y-246446712D01*
X124206000Y-253176369D01*
X119718370Y-257664000D01*
X119659061Y-257664000D01*
X119459102Y-257703774D01*
X119270744Y-257781795D01*
X119101226Y-257895063D01*
X118957063Y-258039226D01*
X118843795Y-258208744D01*
X118765774Y-258397102D01*
X118726000Y-258597061D01*
X118726000Y-258800939D01*
X118756247Y-258953000D01*
X113702423Y-258953000D01*
X113665000Y-258949314D01*
X113627577Y-258953000D01*
X113627574Y-258953000D01*
X113515622Y-258964026D01*
X113371985Y-259007598D01*
X113310364Y-259040535D01*
X113239607Y-259078355D01*
X113197219Y-259113143D01*
X113123578Y-259173578D01*
X113099716Y-259202654D01*
X110828370Y-261474000D01*
X110769061Y-261474000D01*
X110569102Y-261513774D01*
X110380744Y-261591795D01*
X110211226Y-261705063D01*
X110067063Y-261849226D01*
X109953795Y-262018744D01*
X109875774Y-262207102D01*
X109836000Y-262407061D01*
X109836000Y-262610939D01*
X109875774Y-262810898D01*
X109953795Y-262999256D01*
X110067063Y-263168774D01*
X110211226Y-263312937D01*
X110380744Y-263426205D01*
X110569102Y-263504226D01*
X110744001Y-263539015D01*
X110744000Y-264982289D01*
X110702063Y-265024226D01*
X110588795Y-265193744D01*
X110510774Y-265382102D01*
X110471000Y-265582061D01*
X110471000Y-265785939D01*
X110510774Y-265985898D01*
X110588795Y-266174256D01*
X110702063Y-266343774D01*
X110846226Y-266487937D01*
X111015744Y-266601205D01*
X111204102Y-266679226D01*
X111404061Y-266719000D01*
X111607939Y-266719000D01*
X111807898Y-266679226D01*
X111996256Y-266601205D01*
X112165774Y-266487937D01*
X112309937Y-266343774D01*
X112423205Y-266174256D01*
X112501226Y-265985898D01*
X112541000Y-265785939D01*
X112541000Y-265582061D01*
X112501226Y-265382102D01*
X112423205Y-265193744D01*
X112309937Y-265024226D01*
X112268000Y-264982289D01*
X112268000Y-263713630D01*
X112818631Y-263163000D01*
X112877939Y-263163000D01*
X113077898Y-263123226D01*
X113266256Y-263045205D01*
X113435774Y-262931937D01*
X113579937Y-262787774D01*
X113693205Y-262618256D01*
X113771226Y-262429898D01*
X113811000Y-262229939D01*
X113811000Y-262026061D01*
X113771226Y-261826102D01*
X113693205Y-261637744D01*
X113579937Y-261468226D01*
X113435774Y-261324063D01*
X113266256Y-261210795D01*
X113252523Y-261205107D01*
X113980630Y-260477000D01*
X144840289Y-260477000D01*
X144882226Y-260518937D01*
X145051744Y-260632205D01*
X145240102Y-260710226D01*
X145440061Y-260750000D01*
X145643939Y-260750000D01*
X145843898Y-260710226D01*
X146032256Y-260632205D01*
X146201774Y-260518937D01*
X146345937Y-260374774D01*
X146459205Y-260205256D01*
X146537226Y-260016898D01*
X146577000Y-259816939D01*
X146577000Y-259613061D01*
X146546753Y-259461000D01*
X163768370Y-259461000D01*
X163772724Y-259465354D01*
X163796579Y-259494421D01*
X163825646Y-259518276D01*
X163825649Y-259518279D01*
X163854698Y-259542119D01*
X163912608Y-259589645D01*
X163998874Y-259635755D01*
X164044984Y-259660401D01*
X164188621Y-259703973D01*
X164337999Y-259718686D01*
X164338000Y-259718686D01*
X164487378Y-259703973D01*
X164631015Y-259660401D01*
X164763392Y-259589645D01*
X164850351Y-259518279D01*
X164850355Y-259518275D01*
X164879421Y-259494421D01*
X164903275Y-259465355D01*
X166031630Y-258337000D01*
X166090939Y-258337000D01*
X166290898Y-258297226D01*
X166479256Y-258219205D01*
X166648774Y-258105937D01*
X166792937Y-257961774D01*
X166906205Y-257792256D01*
X166984226Y-257603898D01*
X167024000Y-257403939D01*
X167024000Y-257200061D01*
X166984226Y-257000102D01*
X166906205Y-256811744D01*
X166792937Y-256642226D01*
X166648774Y-256498063D01*
X166479256Y-256384795D01*
X166290898Y-256306774D01*
X166090939Y-256267000D01*
X165887061Y-256267000D01*
X165687102Y-256306774D01*
X165498744Y-256384795D01*
X165329226Y-256498063D01*
X165185063Y-256642226D01*
X165071795Y-256811744D01*
X164993774Y-257000102D01*
X164954000Y-257200061D01*
X164954000Y-257259370D01*
X164257904Y-257955466D01*
X164233378Y-257948026D01*
X164121426Y-257937000D01*
X164121423Y-257937000D01*
X164084000Y-257933314D01*
X164046577Y-257937000D01*
X134888015Y-257937000D01*
X134893000Y-257911939D01*
X134893000Y-257708061D01*
X134853226Y-257508102D01*
X134775205Y-257319744D01*
X134661937Y-257150226D01*
X134620000Y-257108289D01*
X134620000Y-255168061D01*
X171685000Y-255168061D01*
X171685000Y-255371939D01*
X171724774Y-255571898D01*
X171802795Y-255760256D01*
X171916063Y-255929774D01*
X172060226Y-256073937D01*
X172229744Y-256187205D01*
X172418102Y-256265226D01*
X172618061Y-256305000D01*
X172821939Y-256305000D01*
X173021898Y-256265226D01*
X173210256Y-256187205D01*
X173379774Y-256073937D01*
X173421711Y-256032000D01*
X193862289Y-256032000D01*
X193904226Y-256073937D01*
X194073744Y-256187205D01*
X194262102Y-256265226D01*
X194462061Y-256305000D01*
X194665939Y-256305000D01*
X194865898Y-256265226D01*
X195054256Y-256187205D01*
X195223774Y-256073937D01*
X195265711Y-256032000D01*
X216468289Y-256032000D01*
X216510226Y-256073937D01*
X216679744Y-256187205D01*
X216868102Y-256265226D01*
X217068061Y-256305000D01*
X217271939Y-256305000D01*
X217471898Y-256265226D01*
X217660256Y-256187205D01*
X217829774Y-256073937D01*
X217973937Y-255929774D01*
X218087205Y-255760256D01*
X218165226Y-255571898D01*
X218205000Y-255371939D01*
X218205000Y-255168061D01*
X218165226Y-254968102D01*
X218087205Y-254779744D01*
X217973937Y-254610226D01*
X217829774Y-254466063D01*
X217660256Y-254352795D01*
X217471898Y-254274774D01*
X217271939Y-254235000D01*
X217068061Y-254235000D01*
X216868102Y-254274774D01*
X216679744Y-254352795D01*
X216510226Y-254466063D01*
X216468289Y-254508000D01*
X195265711Y-254508000D01*
X195223774Y-254466063D01*
X195054256Y-254352795D01*
X194865898Y-254274774D01*
X194665939Y-254235000D01*
X194462061Y-254235000D01*
X194262102Y-254274774D01*
X194073744Y-254352795D01*
X193904226Y-254466063D01*
X193862289Y-254508000D01*
X173421711Y-254508000D01*
X173379774Y-254466063D01*
X173210256Y-254352795D01*
X173021898Y-254274774D01*
X172821939Y-254235000D01*
X172618061Y-254235000D01*
X172418102Y-254274774D01*
X172229744Y-254352795D01*
X172060226Y-254466063D01*
X171916063Y-254610226D01*
X171802795Y-254779744D01*
X171724774Y-254968102D01*
X171685000Y-255168061D01*
X134620000Y-255168061D01*
X134620000Y-253596461D01*
X134623686Y-253559038D01*
X134620000Y-253521612D01*
X134608974Y-253409660D01*
X134565402Y-253266023D01*
X134494646Y-253133647D01*
X134494645Y-253133645D01*
X134423279Y-253046686D01*
X134399422Y-253017616D01*
X134370353Y-252993760D01*
X127248593Y-245872000D01*
X249421857Y-245872000D01*
X249428000Y-245934373D01*
X249428001Y-248349618D01*
X249421857Y-248412000D01*
X249446377Y-248660963D01*
X249502873Y-248847202D01*
X249518998Y-248900359D01*
X249636926Y-249120988D01*
X249795631Y-249314370D01*
X249844086Y-249354136D01*
X250190000Y-249700051D01*
X250190000Y-249954299D01*
X250105506Y-249999463D01*
X250008815Y-250078815D01*
X249929463Y-250175506D01*
X249870498Y-250285820D01*
X249834188Y-250405518D01*
X249821928Y-250530000D01*
X249821928Y-254930000D01*
X249834188Y-255054482D01*
X249870498Y-255174180D01*
X249929463Y-255284494D01*
X250008815Y-255381185D01*
X250105506Y-255460537D01*
X250215820Y-255519502D01*
X250335518Y-255555812D01*
X250460000Y-255568072D01*
X252460000Y-255568072D01*
X252584482Y-255555812D01*
X252704180Y-255519502D01*
X252814494Y-255460537D01*
X252911185Y-255381185D01*
X252990537Y-255284494D01*
X253049502Y-255174180D01*
X253085812Y-255054482D01*
X253098072Y-254930000D01*
X253098072Y-252857000D01*
X256125000Y-252857000D01*
X256125000Y-253957000D01*
X256181193Y-254273532D01*
X256298058Y-254573020D01*
X256471105Y-254843954D01*
X256693683Y-255075922D01*
X256957239Y-255260010D01*
X257251645Y-255389144D01*
X257379566Y-255420124D01*
X257633000Y-255300777D01*
X257633000Y-252857000D01*
X257887000Y-252857000D01*
X257887000Y-255300777D01*
X258140434Y-255420124D01*
X258268355Y-255389144D01*
X258562761Y-255260010D01*
X258826317Y-255075922D01*
X259048895Y-254843954D01*
X259221942Y-254573020D01*
X259338807Y-254273532D01*
X259395000Y-253957000D01*
X259395000Y-252857000D01*
X257887000Y-252857000D01*
X257633000Y-252857000D01*
X256125000Y-252857000D01*
X253098072Y-252857000D01*
X253098072Y-251503000D01*
X256125000Y-251503000D01*
X256125000Y-252603000D01*
X257633000Y-252603000D01*
X257633000Y-250159223D01*
X257887000Y-250159223D01*
X257887000Y-252603000D01*
X259395000Y-252603000D01*
X259395000Y-251503000D01*
X259338807Y-251186468D01*
X259221942Y-250886980D01*
X259048895Y-250616046D01*
X258826317Y-250384078D01*
X258562761Y-250199990D01*
X258268355Y-250070856D01*
X258140434Y-250039876D01*
X257887000Y-250159223D01*
X257633000Y-250159223D01*
X257379566Y-250039876D01*
X257251645Y-250070856D01*
X256957239Y-250199990D01*
X256693683Y-250384078D01*
X256471105Y-250616046D01*
X256298058Y-250886980D01*
X256181193Y-251186468D01*
X256125000Y-251503000D01*
X253098072Y-251503000D01*
X253098072Y-250530000D01*
X253085812Y-250405518D01*
X253049502Y-250285820D01*
X252990537Y-250175506D01*
X252911185Y-250078815D01*
X252814494Y-249999463D01*
X252730000Y-249954299D01*
X252730000Y-249247165D01*
X252731285Y-249247852D01*
X253039484Y-249341343D01*
X253279678Y-249365000D01*
X255640322Y-249365000D01*
X255880516Y-249341343D01*
X256188715Y-249247852D01*
X256472752Y-249096031D01*
X256721714Y-248891714D01*
X256926031Y-248642752D01*
X257077852Y-248358715D01*
X257171343Y-248050516D01*
X257202911Y-247730000D01*
X257171343Y-247409484D01*
X257077852Y-247101285D01*
X256926031Y-246817248D01*
X256721714Y-246568286D01*
X256472752Y-246363969D01*
X256188715Y-246212148D01*
X255880516Y-246118657D01*
X255640322Y-246095000D01*
X253279678Y-246095000D01*
X253039484Y-246118657D01*
X252731285Y-246212148D01*
X252447248Y-246363969D01*
X252198286Y-246568286D01*
X251993969Y-246817248D01*
X251968000Y-246865833D01*
X251968000Y-246398050D01*
X252202375Y-246163675D01*
X252362370Y-246032370D01*
X252402141Y-245983909D01*
X258356051Y-240030000D01*
X258463898Y-240030000D01*
X258474188Y-240134482D01*
X258510498Y-240254180D01*
X258569463Y-240364494D01*
X258648815Y-240461185D01*
X258745506Y-240540537D01*
X258855820Y-240599502D01*
X258975518Y-240635812D01*
X259100000Y-240648072D01*
X261600000Y-240648072D01*
X261724482Y-240635812D01*
X261844180Y-240599502D01*
X261954494Y-240540537D01*
X262051185Y-240461185D01*
X262130537Y-240364494D01*
X262189502Y-240254180D01*
X262225812Y-240134482D01*
X262238072Y-240010000D01*
X262238072Y-237510000D01*
X262225812Y-237385518D01*
X262189502Y-237265820D01*
X262130537Y-237155506D01*
X262051185Y-237058815D01*
X261954494Y-236979463D01*
X261844180Y-236920498D01*
X261724482Y-236884188D01*
X261600000Y-236871928D01*
X259100000Y-236871928D01*
X258975518Y-236884188D01*
X258855820Y-236920498D01*
X258745506Y-236979463D01*
X258648815Y-237058815D01*
X258569463Y-237155506D01*
X258510498Y-237265820D01*
X258474188Y-237385518D01*
X258463898Y-237490000D01*
X257892372Y-237490000D01*
X257829999Y-237483857D01*
X257767626Y-237490000D01*
X257767620Y-237490000D01*
X257606755Y-237505844D01*
X257581036Y-237508377D01*
X257517891Y-237527532D01*
X257341641Y-237580997D01*
X257121012Y-237698925D01*
X256927630Y-237857630D01*
X256887863Y-237906086D01*
X250697624Y-244096326D01*
X250537630Y-244227630D01*
X250497859Y-244276091D01*
X249844091Y-244929859D01*
X249795630Y-244969630D01*
X249636925Y-245163013D01*
X249518997Y-245383642D01*
X249477205Y-245521411D01*
X249454694Y-245595622D01*
X249446377Y-245623038D01*
X249428000Y-245809621D01*
X249428000Y-245809627D01*
X249421857Y-245872000D01*
X127248593Y-245872000D01*
X101336246Y-219959654D01*
X101312384Y-219930578D01*
X101196354Y-219835355D01*
X101063977Y-219764598D01*
X100920340Y-219721026D01*
X100808388Y-219710000D01*
X100808385Y-219710000D01*
X100770962Y-219706314D01*
X100733539Y-219710000D01*
X35367631Y-219710000D01*
X32954630Y-217297000D01*
X201803000Y-217297000D01*
X201803000Y-234950000D01*
X201805440Y-234974776D01*
X201812667Y-234998601D01*
X201824403Y-235020557D01*
X201840197Y-235039803D01*
X201859443Y-235055597D01*
X201881399Y-235067333D01*
X201905224Y-235074560D01*
X201930000Y-235077000D01*
X226060000Y-235077000D01*
X226084776Y-235074560D01*
X226108601Y-235067333D01*
X226130557Y-235055597D01*
X226149803Y-235039803D01*
X226165597Y-235020557D01*
X226177333Y-234998601D01*
X226184560Y-234974776D01*
X226187000Y-234950000D01*
X226187000Y-233574344D01*
X258465000Y-233574344D01*
X258465000Y-233945656D01*
X258537439Y-234309834D01*
X258679534Y-234652882D01*
X258885825Y-234961618D01*
X259148382Y-235224175D01*
X259457118Y-235430466D01*
X259800166Y-235572561D01*
X260164344Y-235645000D01*
X260535656Y-235645000D01*
X260899834Y-235572561D01*
X261242882Y-235430466D01*
X261551618Y-235224175D01*
X261814175Y-234961618D01*
X262020466Y-234652882D01*
X262162561Y-234309834D01*
X262235000Y-233945656D01*
X262235000Y-233574344D01*
X262162561Y-233210166D01*
X262020466Y-232867118D01*
X261814175Y-232558382D01*
X261551618Y-232295825D01*
X261242882Y-232089534D01*
X260899834Y-231947439D01*
X260535656Y-231875000D01*
X260164344Y-231875000D01*
X259800166Y-231947439D01*
X259457118Y-232089534D01*
X259148382Y-232295825D01*
X258885825Y-232558382D01*
X258679534Y-232867118D01*
X258537439Y-233210166D01*
X258465000Y-233574344D01*
X226187000Y-233574344D01*
X226187000Y-217297000D01*
X264033000Y-217297000D01*
X264033000Y-265689776D01*
X263878415Y-265458424D01*
X263541576Y-265121585D01*
X263145494Y-264856931D01*
X262705392Y-264674635D01*
X262238182Y-264581701D01*
X261761818Y-264581701D01*
X261294608Y-264674635D01*
X260854506Y-264856931D01*
X260458424Y-265121585D01*
X260121585Y-265458424D01*
X259856931Y-265854506D01*
X259674635Y-266294608D01*
X259581701Y-266761818D01*
X259581701Y-267238182D01*
X259674635Y-267705392D01*
X259856931Y-268145494D01*
X260121585Y-268541576D01*
X260458424Y-268878415D01*
X260809505Y-269113000D01*
X155160000Y-269113000D01*
X155160000Y-263782419D01*
X155163193Y-263750000D01*
X155150450Y-263620617D01*
X155112710Y-263496207D01*
X155051425Y-263381550D01*
X154968948Y-263281052D01*
X154868450Y-263198575D01*
X154753793Y-263137290D01*
X154629383Y-263099550D01*
X154532419Y-263090000D01*
X154500000Y-263086807D01*
X154467581Y-263090000D01*
X126032419Y-263090000D01*
X126000000Y-263086807D01*
X125967581Y-263090000D01*
X125870617Y-263099550D01*
X125746207Y-263137290D01*
X125631550Y-263198575D01*
X125531052Y-263281052D01*
X125448575Y-263381550D01*
X125387290Y-263496207D01*
X125349550Y-263620617D01*
X125336807Y-263750000D01*
X125340001Y-263782429D01*
X125340000Y-269113000D01*
X24190495Y-269113000D01*
X24541576Y-268878415D01*
X24878415Y-268541576D01*
X25143069Y-268145494D01*
X25325365Y-267705392D01*
X25418299Y-267238182D01*
X25418299Y-266761818D01*
X25325365Y-266294608D01*
X25143069Y-265854506D01*
X24878415Y-265458424D01*
X24541576Y-265121585D01*
X24145494Y-264856931D01*
X23705392Y-264674635D01*
X23238182Y-264581701D01*
X22761818Y-264581701D01*
X22294608Y-264674635D01*
X21854506Y-264856931D01*
X21458424Y-265121585D01*
X21121585Y-265458424D01*
X20856931Y-265854506D01*
X20674635Y-266294608D01*
X20660000Y-266368183D01*
X20660000Y-252184609D01*
X29359997Y-252184609D01*
X29546073Y-252525766D01*
X29963409Y-252741513D01*
X30414815Y-252871696D01*
X30882946Y-252911313D01*
X31349811Y-252858842D01*
X31797468Y-252716297D01*
X32153927Y-252525766D01*
X32340003Y-252184609D01*
X30850000Y-250694605D01*
X29359997Y-252184609D01*
X20660000Y-252184609D01*
X20660000Y-250547946D01*
X28453687Y-250547946D01*
X28506158Y-251014811D01*
X28648703Y-251462468D01*
X28839234Y-251818927D01*
X29180391Y-252005003D01*
X30670395Y-250515000D01*
X29180391Y-249024997D01*
X28839234Y-249211073D01*
X28623487Y-249628409D01*
X28493304Y-250079815D01*
X28453687Y-250547946D01*
X20660000Y-250547946D01*
X20660000Y-232156000D01*
X26299025Y-232156000D01*
X26322870Y-232398102D01*
X26393489Y-232630901D01*
X26508167Y-232845449D01*
X26662498Y-233033502D01*
X26850551Y-233187833D01*
X26924001Y-233227093D01*
X26924000Y-243282098D01*
X26919085Y-243332000D01*
X26924000Y-243381901D01*
X26938702Y-243531170D01*
X26996798Y-243722686D01*
X27091140Y-243899190D01*
X27218104Y-244053896D01*
X27256872Y-244085712D01*
X31347408Y-248176249D01*
X31285185Y-248158304D01*
X30817054Y-248118687D01*
X30350189Y-248171158D01*
X29902532Y-248313703D01*
X29546073Y-248504234D01*
X29359997Y-248845391D01*
X30850000Y-250335395D01*
X30864142Y-250321252D01*
X31043748Y-250500858D01*
X31029605Y-250515000D01*
X32519609Y-252005003D01*
X32860766Y-251818927D01*
X33076513Y-251401591D01*
X33206696Y-250950185D01*
X33246313Y-250482054D01*
X33193842Y-250015189D01*
X33051297Y-249567532D01*
X32990112Y-249453061D01*
X109328000Y-249453061D01*
X109328000Y-249656939D01*
X109367774Y-249856898D01*
X109445795Y-250045256D01*
X109559063Y-250214774D01*
X109703226Y-250358937D01*
X109872744Y-250472205D01*
X110061102Y-250550226D01*
X110261061Y-250590000D01*
X110320370Y-250590000D01*
X113138000Y-253407630D01*
X113138000Y-253466939D01*
X113177774Y-253666898D01*
X113255795Y-253855256D01*
X113369063Y-254024774D01*
X113513226Y-254168937D01*
X113682744Y-254282205D01*
X113871102Y-254360226D01*
X114071061Y-254400000D01*
X114274939Y-254400000D01*
X114474898Y-254360226D01*
X114663256Y-254282205D01*
X114832774Y-254168937D01*
X114976937Y-254024774D01*
X115090205Y-253855256D01*
X115168226Y-253666898D01*
X115208000Y-253466939D01*
X115208000Y-253263061D01*
X115168226Y-253063102D01*
X115090205Y-252874744D01*
X114976937Y-252705226D01*
X114832774Y-252561063D01*
X114663256Y-252447795D01*
X114474898Y-252369774D01*
X114274939Y-252330000D01*
X114215630Y-252330000D01*
X111398000Y-249512370D01*
X111398000Y-249453061D01*
X111358226Y-249253102D01*
X111280205Y-249064744D01*
X111166937Y-248895226D01*
X111022774Y-248751063D01*
X110853256Y-248637795D01*
X110664898Y-248559774D01*
X110464939Y-248520000D01*
X110261061Y-248520000D01*
X110061102Y-248559774D01*
X109872744Y-248637795D01*
X109703226Y-248751063D01*
X109559063Y-248895226D01*
X109445795Y-249064744D01*
X109367774Y-249253102D01*
X109328000Y-249453061D01*
X32990112Y-249453061D01*
X32860766Y-249211073D01*
X32519610Y-249024998D01*
X32624608Y-248920000D01*
X34748098Y-248920000D01*
X34798000Y-248924915D01*
X34847902Y-248920000D01*
X34997171Y-248905298D01*
X35188687Y-248847202D01*
X35365190Y-248752860D01*
X35519896Y-248625896D01*
X35551712Y-248587128D01*
X36243133Y-247895708D01*
X36281896Y-247863896D01*
X36408860Y-247709190D01*
X36503202Y-247532687D01*
X36561298Y-247341171D01*
X36574344Y-247208720D01*
X36654180Y-247184502D01*
X36764494Y-247125537D01*
X36861185Y-247046185D01*
X36940537Y-246949494D01*
X36999502Y-246839180D01*
X37035812Y-246719482D01*
X37048072Y-246595000D01*
X37048072Y-244895000D01*
X37035812Y-244770518D01*
X36999502Y-244650820D01*
X36940537Y-244540506D01*
X36861185Y-244443815D01*
X36764494Y-244364463D01*
X36654180Y-244305498D01*
X36612310Y-244292797D01*
X36713475Y-244191632D01*
X36836842Y-244007000D01*
X101070370Y-244007000D01*
X104756000Y-247692631D01*
X104756000Y-247751939D01*
X104795774Y-247951898D01*
X104873795Y-248140256D01*
X104987063Y-248309774D01*
X105131226Y-248453937D01*
X105300744Y-248567205D01*
X105489102Y-248645226D01*
X105689061Y-248685000D01*
X105892939Y-248685000D01*
X106092898Y-248645226D01*
X106281256Y-248567205D01*
X106450774Y-248453937D01*
X106594937Y-248309774D01*
X106708205Y-248140256D01*
X106786226Y-247951898D01*
X106791974Y-247923000D01*
X106908939Y-247923000D01*
X107108898Y-247883226D01*
X107297256Y-247805205D01*
X107466774Y-247691937D01*
X107610937Y-247547774D01*
X107724205Y-247378256D01*
X107802226Y-247189898D01*
X107842000Y-246989939D01*
X107842000Y-246786061D01*
X107802226Y-246586102D01*
X107724205Y-246397744D01*
X107610937Y-246228226D01*
X107466774Y-246084063D01*
X107297256Y-245970795D01*
X107108898Y-245892774D01*
X106908939Y-245853000D01*
X106849631Y-245853000D01*
X102552283Y-241555653D01*
X102528421Y-241526577D01*
X102412391Y-241431354D01*
X102280014Y-241360597D01*
X102136377Y-241317025D01*
X102024425Y-241305999D01*
X102024422Y-241305999D01*
X101986999Y-241302313D01*
X101949576Y-241305999D01*
X48193712Y-241305999D01*
X48151775Y-241264062D01*
X47982257Y-241150794D01*
X47793899Y-241072773D01*
X47593940Y-241032999D01*
X47390062Y-241032999D01*
X47190103Y-241072773D01*
X47001745Y-241150794D01*
X46832227Y-241264062D01*
X46790290Y-241305999D01*
X34774424Y-241305999D01*
X34737001Y-241302313D01*
X34699578Y-241305999D01*
X34699575Y-241305999D01*
X34587623Y-241317025D01*
X34443986Y-241360597D01*
X34311609Y-241431354D01*
X34195579Y-241526577D01*
X34171713Y-241555658D01*
X33924049Y-241803321D01*
X33706260Y-241760000D01*
X33413740Y-241760000D01*
X33126842Y-241817068D01*
X32856589Y-241929010D01*
X32613368Y-242091525D01*
X32406525Y-242298368D01*
X32244010Y-242541589D01*
X32132068Y-242811842D01*
X32075000Y-243098740D01*
X32075000Y-243391260D01*
X32132068Y-243678158D01*
X32244010Y-243948411D01*
X32406525Y-244191632D01*
X32613368Y-244398475D01*
X32776410Y-244507416D01*
X32711208Y-244716603D01*
X33560000Y-245565395D01*
X33574143Y-245551253D01*
X33753748Y-245730858D01*
X33739605Y-245745000D01*
X33753748Y-245759143D01*
X33574143Y-245938748D01*
X33560000Y-245924605D01*
X33545858Y-245938748D01*
X33366253Y-245759143D01*
X33380395Y-245745000D01*
X32531603Y-244896208D01*
X32282528Y-244973843D01*
X32156629Y-245237883D01*
X32084661Y-245521411D01*
X32069389Y-245813531D01*
X32105212Y-246060371D01*
X28956000Y-242911160D01*
X28956000Y-240144609D01*
X29359997Y-240144609D01*
X29546073Y-240485766D01*
X29963409Y-240701513D01*
X30414815Y-240831696D01*
X30882946Y-240871313D01*
X31349811Y-240818842D01*
X31797468Y-240676297D01*
X32153927Y-240485766D01*
X32340003Y-240144609D01*
X30850000Y-238654605D01*
X29359997Y-240144609D01*
X28956000Y-240144609D01*
X28956000Y-239842614D01*
X29180391Y-239965003D01*
X30670395Y-238475000D01*
X31029605Y-238475000D01*
X32519609Y-239965003D01*
X32860766Y-239778927D01*
X33076513Y-239361591D01*
X33206696Y-238910185D01*
X33246313Y-238442054D01*
X33193842Y-237975189D01*
X33051297Y-237527532D01*
X32860766Y-237171073D01*
X32519609Y-236984997D01*
X31029605Y-238475000D01*
X30670395Y-238475000D01*
X29180391Y-236984997D01*
X28956000Y-237107386D01*
X28956000Y-236805391D01*
X29359997Y-236805391D01*
X30850000Y-238295395D01*
X32340003Y-236805391D01*
X32153927Y-236464234D01*
X31736591Y-236248487D01*
X31285185Y-236118304D01*
X30817054Y-236078687D01*
X30350189Y-236131158D01*
X29902532Y-236273703D01*
X29546073Y-236464234D01*
X29359997Y-236805391D01*
X28956000Y-236805391D01*
X28956000Y-233227092D01*
X29029449Y-233187833D01*
X29217502Y-233033502D01*
X29371833Y-232845449D01*
X29486511Y-232630901D01*
X29557130Y-232398102D01*
X29580975Y-232156000D01*
X29557130Y-231913898D01*
X29486511Y-231681099D01*
X29371833Y-231466551D01*
X29217502Y-231278498D01*
X29029449Y-231124167D01*
X28814901Y-231009489D01*
X28582102Y-230938870D01*
X28400665Y-230921000D01*
X27479335Y-230921000D01*
X27297898Y-230938870D01*
X27065099Y-231009489D01*
X26850551Y-231124167D01*
X26662498Y-231278498D01*
X26508167Y-231466551D01*
X26393489Y-231681099D01*
X26322870Y-231913898D01*
X26299025Y-232156000D01*
X20660000Y-232156000D01*
X20660000Y-229616000D01*
X26299025Y-229616000D01*
X26322870Y-229858102D01*
X26393489Y-230090901D01*
X26508167Y-230305449D01*
X26662498Y-230493502D01*
X26850551Y-230647833D01*
X27065099Y-230762511D01*
X27297898Y-230833130D01*
X27479335Y-230851000D01*
X28400665Y-230851000D01*
X28582102Y-230833130D01*
X28814901Y-230762511D01*
X29029449Y-230647833D01*
X29217502Y-230493502D01*
X29371833Y-230305449D01*
X29486511Y-230090901D01*
X29557130Y-229858102D01*
X29580975Y-229616000D01*
X29557130Y-229373898D01*
X29486511Y-229141099D01*
X29371833Y-228926551D01*
X29217502Y-228738498D01*
X29029449Y-228584167D01*
X28814901Y-228469489D01*
X28582102Y-228398870D01*
X28400665Y-228381000D01*
X27479335Y-228381000D01*
X27297898Y-228398870D01*
X27065099Y-228469489D01*
X26850551Y-228584167D01*
X26662498Y-228738498D01*
X26508167Y-228926551D01*
X26393489Y-229141099D01*
X26322870Y-229373898D01*
X26299025Y-229616000D01*
X20660000Y-229616000D01*
X20660000Y-227076000D01*
X26299025Y-227076000D01*
X26322870Y-227318102D01*
X26393489Y-227550901D01*
X26508167Y-227765449D01*
X26662498Y-227953502D01*
X26850551Y-228107833D01*
X27065099Y-228222511D01*
X27297898Y-228293130D01*
X27479335Y-228311000D01*
X28400665Y-228311000D01*
X28582102Y-228293130D01*
X28814901Y-228222511D01*
X29029449Y-228107833D01*
X29217502Y-227953502D01*
X29371833Y-227765449D01*
X29486511Y-227550901D01*
X29557130Y-227318102D01*
X29580975Y-227076000D01*
X29557130Y-226833898D01*
X29486511Y-226601099D01*
X29371833Y-226386551D01*
X29217502Y-226198498D01*
X29029449Y-226044167D01*
X28814901Y-225929489D01*
X28582102Y-225858870D01*
X28400665Y-225841000D01*
X27479335Y-225841000D01*
X27297898Y-225858870D01*
X27065099Y-225929489D01*
X26850551Y-226044167D01*
X26662498Y-226198498D01*
X26508167Y-226386551D01*
X26393489Y-226601099D01*
X26322870Y-226833898D01*
X26299025Y-227076000D01*
X20660000Y-227076000D01*
X20660000Y-217297000D01*
X30835627Y-217297000D01*
X30859355Y-217341392D01*
G37*
X30859355Y-217341392D02*
X30930721Y-217428351D01*
X30954579Y-217457422D01*
X30983649Y-217481279D01*
X34486720Y-220984351D01*
X34510578Y-221013422D01*
X34626608Y-221108645D01*
X34758985Y-221179402D01*
X34902622Y-221222974D01*
X35014574Y-221234000D01*
X35014576Y-221234000D01*
X35051999Y-221237686D01*
X35089422Y-221234000D01*
X100455332Y-221234000D01*
X103884332Y-224663000D01*
X93284711Y-224663000D01*
X93242774Y-224621063D01*
X93073256Y-224507795D01*
X92884898Y-224429774D01*
X92684939Y-224390000D01*
X92481061Y-224390000D01*
X92281102Y-224429774D01*
X92092744Y-224507795D01*
X91923226Y-224621063D01*
X91779063Y-224765226D01*
X91665795Y-224934744D01*
X91587774Y-225123102D01*
X91548000Y-225323061D01*
X91548000Y-225526939D01*
X91587774Y-225726898D01*
X91665795Y-225915256D01*
X91779063Y-226084774D01*
X91923226Y-226228937D01*
X92092744Y-226342205D01*
X92281102Y-226420226D01*
X92481061Y-226460000D01*
X92684939Y-226460000D01*
X92884898Y-226420226D01*
X93073256Y-226342205D01*
X93242774Y-226228937D01*
X93284711Y-226187000D01*
X104332370Y-226187000D01*
X123933000Y-245787630D01*
X123933000Y-245846939D01*
X123972774Y-246046898D01*
X124050795Y-246235256D01*
X124164063Y-246404774D01*
X124206001Y-246446712D01*
X124206000Y-253176369D01*
X119718370Y-257664000D01*
X119659061Y-257664000D01*
X119459102Y-257703774D01*
X119270744Y-257781795D01*
X119101226Y-257895063D01*
X118957063Y-258039226D01*
X118843795Y-258208744D01*
X118765774Y-258397102D01*
X118726000Y-258597061D01*
X118726000Y-258800939D01*
X118756247Y-258953000D01*
X113702423Y-258953000D01*
X113665000Y-258949314D01*
X113627577Y-258953000D01*
X113627574Y-258953000D01*
X113515622Y-258964026D01*
X113371985Y-259007598D01*
X113310364Y-259040535D01*
X113239607Y-259078355D01*
X113197219Y-259113143D01*
X113123578Y-259173578D01*
X113099716Y-259202654D01*
X110828370Y-261474000D01*
X110769061Y-261474000D01*
X110569102Y-261513774D01*
X110380744Y-261591795D01*
X110211226Y-261705063D01*
X110067063Y-261849226D01*
X109953795Y-262018744D01*
X109875774Y-262207102D01*
X109836000Y-262407061D01*
X109836000Y-262610939D01*
X109875774Y-262810898D01*
X109953795Y-262999256D01*
X110067063Y-263168774D01*
X110211226Y-263312937D01*
X110380744Y-263426205D01*
X110569102Y-263504226D01*
X110744001Y-263539015D01*
X110744000Y-264982289D01*
X110702063Y-265024226D01*
X110588795Y-265193744D01*
X110510774Y-265382102D01*
X110471000Y-265582061D01*
X110471000Y-265785939D01*
X110510774Y-265985898D01*
X110588795Y-266174256D01*
X110702063Y-266343774D01*
X110846226Y-266487937D01*
X111015744Y-266601205D01*
X111204102Y-266679226D01*
X111404061Y-266719000D01*
X111607939Y-266719000D01*
X111807898Y-266679226D01*
X111996256Y-266601205D01*
X112165774Y-266487937D01*
X112309937Y-266343774D01*
X112423205Y-266174256D01*
X112501226Y-265985898D01*
X112541000Y-265785939D01*
X112541000Y-265582061D01*
X112501226Y-265382102D01*
X112423205Y-265193744D01*
X112309937Y-265024226D01*
X112268000Y-264982289D01*
X112268000Y-263713630D01*
X112818631Y-263163000D01*
X112877939Y-263163000D01*
X113077898Y-263123226D01*
X113266256Y-263045205D01*
X113435774Y-262931937D01*
X113579937Y-262787774D01*
X113693205Y-262618256D01*
X113771226Y-262429898D01*
X113811000Y-262229939D01*
X113811000Y-262026061D01*
X113771226Y-261826102D01*
X113693205Y-261637744D01*
X113579937Y-261468226D01*
X113435774Y-261324063D01*
X113266256Y-261210795D01*
X113252523Y-261205107D01*
X113980630Y-260477000D01*
X144840289Y-260477000D01*
X144882226Y-260518937D01*
X145051744Y-260632205D01*
X145240102Y-260710226D01*
X145440061Y-260750000D01*
X145643939Y-260750000D01*
X145843898Y-260710226D01*
X146032256Y-260632205D01*
X146201774Y-260518937D01*
X146345937Y-260374774D01*
X146459205Y-260205256D01*
X146537226Y-260016898D01*
X146577000Y-259816939D01*
X146577000Y-259613061D01*
X146546753Y-259461000D01*
X163768370Y-259461000D01*
X163772724Y-259465354D01*
X163796579Y-259494421D01*
X163825646Y-259518276D01*
X163825649Y-259518279D01*
X163854698Y-259542119D01*
X163912608Y-259589645D01*
X163998874Y-259635755D01*
X164044984Y-259660401D01*
X164188621Y-259703973D01*
X164337999Y-259718686D01*
X164338000Y-259718686D01*
X164487378Y-259703973D01*
X164631015Y-259660401D01*
X164763392Y-259589645D01*
X164850351Y-259518279D01*
X164850355Y-259518275D01*
X164879421Y-259494421D01*
X164903275Y-259465355D01*
X166031630Y-258337000D01*
X166090939Y-258337000D01*
X166290898Y-258297226D01*
X166479256Y-258219205D01*
X166648774Y-258105937D01*
X166792937Y-257961774D01*
X166906205Y-257792256D01*
X166984226Y-257603898D01*
X167024000Y-257403939D01*
X167024000Y-257200061D01*
X166984226Y-257000102D01*
X166906205Y-256811744D01*
X166792937Y-256642226D01*
X166648774Y-256498063D01*
X166479256Y-256384795D01*
X166290898Y-256306774D01*
X166090939Y-256267000D01*
X165887061Y-256267000D01*
X165687102Y-256306774D01*
X165498744Y-256384795D01*
X165329226Y-256498063D01*
X165185063Y-256642226D01*
X165071795Y-256811744D01*
X164993774Y-257000102D01*
X164954000Y-257200061D01*
X164954000Y-257259370D01*
X164257904Y-257955466D01*
X164233378Y-257948026D01*
X164121426Y-257937000D01*
X164121423Y-257937000D01*
X164084000Y-257933314D01*
X164046577Y-257937000D01*
X134888015Y-257937000D01*
X134893000Y-257911939D01*
X134893000Y-257708061D01*
X134853226Y-257508102D01*
X134775205Y-257319744D01*
X134661937Y-257150226D01*
X134620000Y-257108289D01*
X134620000Y-255168061D01*
X171685000Y-255168061D01*
X171685000Y-255371939D01*
X171724774Y-255571898D01*
X171802795Y-255760256D01*
X171916063Y-255929774D01*
X172060226Y-256073937D01*
X172229744Y-256187205D01*
X172418102Y-256265226D01*
X172618061Y-256305000D01*
X172821939Y-256305000D01*
X173021898Y-256265226D01*
X173210256Y-256187205D01*
X173379774Y-256073937D01*
X173421711Y-256032000D01*
X193862289Y-256032000D01*
X193904226Y-256073937D01*
X194073744Y-256187205D01*
X194262102Y-256265226D01*
X194462061Y-256305000D01*
X194665939Y-256305000D01*
X194865898Y-256265226D01*
X195054256Y-256187205D01*
X195223774Y-256073937D01*
X195265711Y-256032000D01*
X216468289Y-256032000D01*
X216510226Y-256073937D01*
X216679744Y-256187205D01*
X216868102Y-256265226D01*
X217068061Y-256305000D01*
X217271939Y-256305000D01*
X217471898Y-256265226D01*
X217660256Y-256187205D01*
X217829774Y-256073937D01*
X217973937Y-255929774D01*
X218087205Y-255760256D01*
X218165226Y-255571898D01*
X218205000Y-255371939D01*
X218205000Y-255168061D01*
X218165226Y-254968102D01*
X218087205Y-254779744D01*
X217973937Y-254610226D01*
X217829774Y-254466063D01*
X217660256Y-254352795D01*
X217471898Y-254274774D01*
X217271939Y-254235000D01*
X217068061Y-254235000D01*
X216868102Y-254274774D01*
X216679744Y-254352795D01*
X216510226Y-254466063D01*
X216468289Y-254508000D01*
X195265711Y-254508000D01*
X195223774Y-254466063D01*
X195054256Y-254352795D01*
X194865898Y-254274774D01*
X194665939Y-254235000D01*
X194462061Y-254235000D01*
X194262102Y-254274774D01*
X194073744Y-254352795D01*
X193904226Y-254466063D01*
X193862289Y-254508000D01*
X173421711Y-254508000D01*
X173379774Y-254466063D01*
X173210256Y-254352795D01*
X173021898Y-254274774D01*
X172821939Y-254235000D01*
X172618061Y-254235000D01*
X172418102Y-254274774D01*
X172229744Y-254352795D01*
X172060226Y-254466063D01*
X171916063Y-254610226D01*
X171802795Y-254779744D01*
X171724774Y-254968102D01*
X171685000Y-255168061D01*
X134620000Y-255168061D01*
X134620000Y-253596461D01*
X134623686Y-253559038D01*
X134620000Y-253521612D01*
X134608974Y-253409660D01*
X134565402Y-253266023D01*
X134494646Y-253133647D01*
X134494645Y-253133645D01*
X134423279Y-253046686D01*
X134399422Y-253017616D01*
X134370353Y-252993760D01*
X127248593Y-245872000D01*
X249421857Y-245872000D01*
X249428000Y-245934373D01*
X249428001Y-248349618D01*
X249421857Y-248412000D01*
X249446377Y-248660963D01*
X249502873Y-248847202D01*
X249518998Y-248900359D01*
X249636926Y-249120988D01*
X249795631Y-249314370D01*
X249844086Y-249354136D01*
X250190000Y-249700051D01*
X250190000Y-249954299D01*
X250105506Y-249999463D01*
X250008815Y-250078815D01*
X249929463Y-250175506D01*
X249870498Y-250285820D01*
X249834188Y-250405518D01*
X249821928Y-250530000D01*
X249821928Y-254930000D01*
X249834188Y-255054482D01*
X249870498Y-255174180D01*
X249929463Y-255284494D01*
X250008815Y-255381185D01*
X250105506Y-255460537D01*
X250215820Y-255519502D01*
X250335518Y-255555812D01*
X250460000Y-255568072D01*
X252460000Y-255568072D01*
X252584482Y-255555812D01*
X252704180Y-255519502D01*
X252814494Y-255460537D01*
X252911185Y-255381185D01*
X252990537Y-255284494D01*
X253049502Y-255174180D01*
X253085812Y-255054482D01*
X253098072Y-254930000D01*
X253098072Y-252857000D01*
X256125000Y-252857000D01*
X256125000Y-253957000D01*
X256181193Y-254273532D01*
X256298058Y-254573020D01*
X256471105Y-254843954D01*
X256693683Y-255075922D01*
X256957239Y-255260010D01*
X257251645Y-255389144D01*
X257379566Y-255420124D01*
X257633000Y-255300777D01*
X257633000Y-252857000D01*
X257887000Y-252857000D01*
X257887000Y-255300777D01*
X258140434Y-255420124D01*
X258268355Y-255389144D01*
X258562761Y-255260010D01*
X258826317Y-255075922D01*
X259048895Y-254843954D01*
X259221942Y-254573020D01*
X259338807Y-254273532D01*
X259395000Y-253957000D01*
X259395000Y-252857000D01*
X257887000Y-252857000D01*
X257633000Y-252857000D01*
X256125000Y-252857000D01*
X253098072Y-252857000D01*
X253098072Y-251503000D01*
X256125000Y-251503000D01*
X256125000Y-252603000D01*
X257633000Y-252603000D01*
X257633000Y-250159223D01*
X257887000Y-250159223D01*
X257887000Y-252603000D01*
X259395000Y-252603000D01*
X259395000Y-251503000D01*
X259338807Y-251186468D01*
X259221942Y-250886980D01*
X259048895Y-250616046D01*
X258826317Y-250384078D01*
X258562761Y-250199990D01*
X258268355Y-250070856D01*
X258140434Y-250039876D01*
X257887000Y-250159223D01*
X257633000Y-250159223D01*
X257379566Y-250039876D01*
X257251645Y-250070856D01*
X256957239Y-250199990D01*
X256693683Y-250384078D01*
X256471105Y-250616046D01*
X256298058Y-250886980D01*
X256181193Y-251186468D01*
X256125000Y-251503000D01*
X253098072Y-251503000D01*
X253098072Y-250530000D01*
X253085812Y-250405518D01*
X253049502Y-250285820D01*
X252990537Y-250175506D01*
X252911185Y-250078815D01*
X252814494Y-249999463D01*
X252730000Y-249954299D01*
X252730000Y-249247165D01*
X252731285Y-249247852D01*
X253039484Y-249341343D01*
X253279678Y-249365000D01*
X255640322Y-249365000D01*
X255880516Y-249341343D01*
X256188715Y-249247852D01*
X256472752Y-249096031D01*
X256721714Y-248891714D01*
X256926031Y-248642752D01*
X257077852Y-248358715D01*
X257171343Y-248050516D01*
X257202911Y-247730000D01*
X257171343Y-247409484D01*
X257077852Y-247101285D01*
X256926031Y-246817248D01*
X256721714Y-246568286D01*
X256472752Y-246363969D01*
X256188715Y-246212148D01*
X255880516Y-246118657D01*
X255640322Y-246095000D01*
X253279678Y-246095000D01*
X253039484Y-246118657D01*
X252731285Y-246212148D01*
X252447248Y-246363969D01*
X252198286Y-246568286D01*
X251993969Y-246817248D01*
X251968000Y-246865833D01*
X251968000Y-246398050D01*
X252202375Y-246163675D01*
X252362370Y-246032370D01*
X252402141Y-245983909D01*
X258356051Y-240030000D01*
X258463898Y-240030000D01*
X258474188Y-240134482D01*
X258510498Y-240254180D01*
X258569463Y-240364494D01*
X258648815Y-240461185D01*
X258745506Y-240540537D01*
X258855820Y-240599502D01*
X258975518Y-240635812D01*
X259100000Y-240648072D01*
X261600000Y-240648072D01*
X261724482Y-240635812D01*
X261844180Y-240599502D01*
X261954494Y-240540537D01*
X262051185Y-240461185D01*
X262130537Y-240364494D01*
X262189502Y-240254180D01*
X262225812Y-240134482D01*
X262238072Y-240010000D01*
X262238072Y-237510000D01*
X262225812Y-237385518D01*
X262189502Y-237265820D01*
X262130537Y-237155506D01*
X262051185Y-237058815D01*
X261954494Y-236979463D01*
X261844180Y-236920498D01*
X261724482Y-236884188D01*
X261600000Y-236871928D01*
X259100000Y-236871928D01*
X258975518Y-236884188D01*
X258855820Y-236920498D01*
X258745506Y-236979463D01*
X258648815Y-237058815D01*
X258569463Y-237155506D01*
X258510498Y-237265820D01*
X258474188Y-237385518D01*
X258463898Y-237490000D01*
X257892372Y-237490000D01*
X257829999Y-237483857D01*
X257767626Y-237490000D01*
X257767620Y-237490000D01*
X257606755Y-237505844D01*
X257581036Y-237508377D01*
X257517891Y-237527532D01*
X257341641Y-237580997D01*
X257121012Y-237698925D01*
X256927630Y-237857630D01*
X256887863Y-237906086D01*
X250697624Y-244096326D01*
X250537630Y-244227630D01*
X250497859Y-244276091D01*
X249844091Y-244929859D01*
X249795630Y-244969630D01*
X249636925Y-245163013D01*
X249518997Y-245383642D01*
X249477205Y-245521411D01*
X249454694Y-245595622D01*
X249446377Y-245623038D01*
X249428000Y-245809621D01*
X249428000Y-245809627D01*
X249421857Y-245872000D01*
X127248593Y-245872000D01*
X101336246Y-219959654D01*
X101312384Y-219930578D01*
X101196354Y-219835355D01*
X101063977Y-219764598D01*
X100920340Y-219721026D01*
X100808388Y-219710000D01*
X100808385Y-219710000D01*
X100770962Y-219706314D01*
X100733539Y-219710000D01*
X35367631Y-219710000D01*
X32954630Y-217297000D01*
X201803000Y-217297000D01*
X201803000Y-234950000D01*
X201805440Y-234974776D01*
X201812667Y-234998601D01*
X201824403Y-235020557D01*
X201840197Y-235039803D01*
X201859443Y-235055597D01*
X201881399Y-235067333D01*
X201905224Y-235074560D01*
X201930000Y-235077000D01*
X226060000Y-235077000D01*
X226084776Y-235074560D01*
X226108601Y-235067333D01*
X226130557Y-235055597D01*
X226149803Y-235039803D01*
X226165597Y-235020557D01*
X226177333Y-234998601D01*
X226184560Y-234974776D01*
X226187000Y-234950000D01*
X226187000Y-233574344D01*
X258465000Y-233574344D01*
X258465000Y-233945656D01*
X258537439Y-234309834D01*
X258679534Y-234652882D01*
X258885825Y-234961618D01*
X259148382Y-235224175D01*
X259457118Y-235430466D01*
X259800166Y-235572561D01*
X260164344Y-235645000D01*
X260535656Y-235645000D01*
X260899834Y-235572561D01*
X261242882Y-235430466D01*
X261551618Y-235224175D01*
X261814175Y-234961618D01*
X262020466Y-234652882D01*
X262162561Y-234309834D01*
X262235000Y-233945656D01*
X262235000Y-233574344D01*
X262162561Y-233210166D01*
X262020466Y-232867118D01*
X261814175Y-232558382D01*
X261551618Y-232295825D01*
X261242882Y-232089534D01*
X260899834Y-231947439D01*
X260535656Y-231875000D01*
X260164344Y-231875000D01*
X259800166Y-231947439D01*
X259457118Y-232089534D01*
X259148382Y-232295825D01*
X258885825Y-232558382D01*
X258679534Y-232867118D01*
X258537439Y-233210166D01*
X258465000Y-233574344D01*
X226187000Y-233574344D01*
X226187000Y-217297000D01*
X264033000Y-217297000D01*
X264033000Y-265689776D01*
X263878415Y-265458424D01*
X263541576Y-265121585D01*
X263145494Y-264856931D01*
X262705392Y-264674635D01*
X262238182Y-264581701D01*
X261761818Y-264581701D01*
X261294608Y-264674635D01*
X260854506Y-264856931D01*
X260458424Y-265121585D01*
X260121585Y-265458424D01*
X259856931Y-265854506D01*
X259674635Y-266294608D01*
X259581701Y-266761818D01*
X259581701Y-267238182D01*
X259674635Y-267705392D01*
X259856931Y-268145494D01*
X260121585Y-268541576D01*
X260458424Y-268878415D01*
X260809505Y-269113000D01*
X155160000Y-269113000D01*
X155160000Y-263782419D01*
X155163193Y-263750000D01*
X155150450Y-263620617D01*
X155112710Y-263496207D01*
X155051425Y-263381550D01*
X154968948Y-263281052D01*
X154868450Y-263198575D01*
X154753793Y-263137290D01*
X154629383Y-263099550D01*
X154532419Y-263090000D01*
X154500000Y-263086807D01*
X154467581Y-263090000D01*
X126032419Y-263090000D01*
X126000000Y-263086807D01*
X125967581Y-263090000D01*
X125870617Y-263099550D01*
X125746207Y-263137290D01*
X125631550Y-263198575D01*
X125531052Y-263281052D01*
X125448575Y-263381550D01*
X125387290Y-263496207D01*
X125349550Y-263620617D01*
X125336807Y-263750000D01*
X125340001Y-263782429D01*
X125340000Y-269113000D01*
X24190495Y-269113000D01*
X24541576Y-268878415D01*
X24878415Y-268541576D01*
X25143069Y-268145494D01*
X25325365Y-267705392D01*
X25418299Y-267238182D01*
X25418299Y-266761818D01*
X25325365Y-266294608D01*
X25143069Y-265854506D01*
X24878415Y-265458424D01*
X24541576Y-265121585D01*
X24145494Y-264856931D01*
X23705392Y-264674635D01*
X23238182Y-264581701D01*
X22761818Y-264581701D01*
X22294608Y-264674635D01*
X21854506Y-264856931D01*
X21458424Y-265121585D01*
X21121585Y-265458424D01*
X20856931Y-265854506D01*
X20674635Y-266294608D01*
X20660000Y-266368183D01*
X20660000Y-252184609D01*
X29359997Y-252184609D01*
X29546073Y-252525766D01*
X29963409Y-252741513D01*
X30414815Y-252871696D01*
X30882946Y-252911313D01*
X31349811Y-252858842D01*
X31797468Y-252716297D01*
X32153927Y-252525766D01*
X32340003Y-252184609D01*
X30850000Y-250694605D01*
X29359997Y-252184609D01*
X20660000Y-252184609D01*
X20660000Y-250547946D01*
X28453687Y-250547946D01*
X28506158Y-251014811D01*
X28648703Y-251462468D01*
X28839234Y-251818927D01*
X29180391Y-252005003D01*
X30670395Y-250515000D01*
X29180391Y-249024997D01*
X28839234Y-249211073D01*
X28623487Y-249628409D01*
X28493304Y-250079815D01*
X28453687Y-250547946D01*
X20660000Y-250547946D01*
X20660000Y-232156000D01*
X26299025Y-232156000D01*
X26322870Y-232398102D01*
X26393489Y-232630901D01*
X26508167Y-232845449D01*
X26662498Y-233033502D01*
X26850551Y-233187833D01*
X26924001Y-233227093D01*
X26924000Y-243282098D01*
X26919085Y-243332000D01*
X26924000Y-243381901D01*
X26938702Y-243531170D01*
X26996798Y-243722686D01*
X27091140Y-243899190D01*
X27218104Y-244053896D01*
X27256872Y-244085712D01*
X31347408Y-248176249D01*
X31285185Y-248158304D01*
X30817054Y-248118687D01*
X30350189Y-248171158D01*
X29902532Y-248313703D01*
X29546073Y-248504234D01*
X29359997Y-248845391D01*
X30850000Y-250335395D01*
X30864142Y-250321252D01*
X31043748Y-250500858D01*
X31029605Y-250515000D01*
X32519609Y-252005003D01*
X32860766Y-251818927D01*
X33076513Y-251401591D01*
X33206696Y-250950185D01*
X33246313Y-250482054D01*
X33193842Y-250015189D01*
X33051297Y-249567532D01*
X32990112Y-249453061D01*
X109328000Y-249453061D01*
X109328000Y-249656939D01*
X109367774Y-249856898D01*
X109445795Y-250045256D01*
X109559063Y-250214774D01*
X109703226Y-250358937D01*
X109872744Y-250472205D01*
X110061102Y-250550226D01*
X110261061Y-250590000D01*
X110320370Y-250590000D01*
X113138000Y-253407630D01*
X113138000Y-253466939D01*
X113177774Y-253666898D01*
X113255795Y-253855256D01*
X113369063Y-254024774D01*
X113513226Y-254168937D01*
X113682744Y-254282205D01*
X113871102Y-254360226D01*
X114071061Y-254400000D01*
X114274939Y-254400000D01*
X114474898Y-254360226D01*
X114663256Y-254282205D01*
X114832774Y-254168937D01*
X114976937Y-254024774D01*
X115090205Y-253855256D01*
X115168226Y-253666898D01*
X115208000Y-253466939D01*
X115208000Y-253263061D01*
X115168226Y-253063102D01*
X115090205Y-252874744D01*
X114976937Y-252705226D01*
X114832774Y-252561063D01*
X114663256Y-252447795D01*
X114474898Y-252369774D01*
X114274939Y-252330000D01*
X114215630Y-252330000D01*
X111398000Y-249512370D01*
X111398000Y-249453061D01*
X111358226Y-249253102D01*
X111280205Y-249064744D01*
X111166937Y-248895226D01*
X111022774Y-248751063D01*
X110853256Y-248637795D01*
X110664898Y-248559774D01*
X110464939Y-248520000D01*
X110261061Y-248520000D01*
X110061102Y-248559774D01*
X109872744Y-248637795D01*
X109703226Y-248751063D01*
X109559063Y-248895226D01*
X109445795Y-249064744D01*
X109367774Y-249253102D01*
X109328000Y-249453061D01*
X32990112Y-249453061D01*
X32860766Y-249211073D01*
X32519610Y-249024998D01*
X32624608Y-248920000D01*
X34748098Y-248920000D01*
X34798000Y-248924915D01*
X34847902Y-248920000D01*
X34997171Y-248905298D01*
X35188687Y-248847202D01*
X35365190Y-248752860D01*
X35519896Y-248625896D01*
X35551712Y-248587128D01*
X36243133Y-247895708D01*
X36281896Y-247863896D01*
X36408860Y-247709190D01*
X36503202Y-247532687D01*
X36561298Y-247341171D01*
X36574344Y-247208720D01*
X36654180Y-247184502D01*
X36764494Y-247125537D01*
X36861185Y-247046185D01*
X36940537Y-246949494D01*
X36999502Y-246839180D01*
X37035812Y-246719482D01*
X37048072Y-246595000D01*
X37048072Y-244895000D01*
X37035812Y-244770518D01*
X36999502Y-244650820D01*
X36940537Y-244540506D01*
X36861185Y-244443815D01*
X36764494Y-244364463D01*
X36654180Y-244305498D01*
X36612310Y-244292797D01*
X36713475Y-244191632D01*
X36836842Y-244007000D01*
X101070370Y-244007000D01*
X104756000Y-247692631D01*
X104756000Y-247751939D01*
X104795774Y-247951898D01*
X104873795Y-248140256D01*
X104987063Y-248309774D01*
X105131226Y-248453937D01*
X105300744Y-248567205D01*
X105489102Y-248645226D01*
X105689061Y-248685000D01*
X105892939Y-248685000D01*
X106092898Y-248645226D01*
X106281256Y-248567205D01*
X106450774Y-248453937D01*
X106594937Y-248309774D01*
X106708205Y-248140256D01*
X106786226Y-247951898D01*
X106791974Y-247923000D01*
X106908939Y-247923000D01*
X107108898Y-247883226D01*
X107297256Y-247805205D01*
X107466774Y-247691937D01*
X107610937Y-247547774D01*
X107724205Y-247378256D01*
X107802226Y-247189898D01*
X107842000Y-246989939D01*
X107842000Y-246786061D01*
X107802226Y-246586102D01*
X107724205Y-246397744D01*
X107610937Y-246228226D01*
X107466774Y-246084063D01*
X107297256Y-245970795D01*
X107108898Y-245892774D01*
X106908939Y-245853000D01*
X106849631Y-245853000D01*
X102552283Y-241555653D01*
X102528421Y-241526577D01*
X102412391Y-241431354D01*
X102280014Y-241360597D01*
X102136377Y-241317025D01*
X102024425Y-241305999D01*
X102024422Y-241305999D01*
X101986999Y-241302313D01*
X101949576Y-241305999D01*
X48193712Y-241305999D01*
X48151775Y-241264062D01*
X47982257Y-241150794D01*
X47793899Y-241072773D01*
X47593940Y-241032999D01*
X47390062Y-241032999D01*
X47190103Y-241072773D01*
X47001745Y-241150794D01*
X46832227Y-241264062D01*
X46790290Y-241305999D01*
X34774424Y-241305999D01*
X34737001Y-241302313D01*
X34699578Y-241305999D01*
X34699575Y-241305999D01*
X34587623Y-241317025D01*
X34443986Y-241360597D01*
X34311609Y-241431354D01*
X34195579Y-241526577D01*
X34171713Y-241555658D01*
X33924049Y-241803321D01*
X33706260Y-241760000D01*
X33413740Y-241760000D01*
X33126842Y-241817068D01*
X32856589Y-241929010D01*
X32613368Y-242091525D01*
X32406525Y-242298368D01*
X32244010Y-242541589D01*
X32132068Y-242811842D01*
X32075000Y-243098740D01*
X32075000Y-243391260D01*
X32132068Y-243678158D01*
X32244010Y-243948411D01*
X32406525Y-244191632D01*
X32613368Y-244398475D01*
X32776410Y-244507416D01*
X32711208Y-244716603D01*
X33560000Y-245565395D01*
X33574143Y-245551253D01*
X33753748Y-245730858D01*
X33739605Y-245745000D01*
X33753748Y-245759143D01*
X33574143Y-245938748D01*
X33560000Y-245924605D01*
X33545858Y-245938748D01*
X33366253Y-245759143D01*
X33380395Y-245745000D01*
X32531603Y-244896208D01*
X32282528Y-244973843D01*
X32156629Y-245237883D01*
X32084661Y-245521411D01*
X32069389Y-245813531D01*
X32105212Y-246060371D01*
X28956000Y-242911160D01*
X28956000Y-240144609D01*
X29359997Y-240144609D01*
X29546073Y-240485766D01*
X29963409Y-240701513D01*
X30414815Y-240831696D01*
X30882946Y-240871313D01*
X31349811Y-240818842D01*
X31797468Y-240676297D01*
X32153927Y-240485766D01*
X32340003Y-240144609D01*
X30850000Y-238654605D01*
X29359997Y-240144609D01*
X28956000Y-240144609D01*
X28956000Y-239842614D01*
X29180391Y-239965003D01*
X30670395Y-238475000D01*
X31029605Y-238475000D01*
X32519609Y-239965003D01*
X32860766Y-239778927D01*
X33076513Y-239361591D01*
X33206696Y-238910185D01*
X33246313Y-238442054D01*
X33193842Y-237975189D01*
X33051297Y-237527532D01*
X32860766Y-237171073D01*
X32519609Y-236984997D01*
X31029605Y-238475000D01*
X30670395Y-238475000D01*
X29180391Y-236984997D01*
X28956000Y-237107386D01*
X28956000Y-236805391D01*
X29359997Y-236805391D01*
X30850000Y-238295395D01*
X32340003Y-236805391D01*
X32153927Y-236464234D01*
X31736591Y-236248487D01*
X31285185Y-236118304D01*
X30817054Y-236078687D01*
X30350189Y-236131158D01*
X29902532Y-236273703D01*
X29546073Y-236464234D01*
X29359997Y-236805391D01*
X28956000Y-236805391D01*
X28956000Y-233227092D01*
X29029449Y-233187833D01*
X29217502Y-233033502D01*
X29371833Y-232845449D01*
X29486511Y-232630901D01*
X29557130Y-232398102D01*
X29580975Y-232156000D01*
X29557130Y-231913898D01*
X29486511Y-231681099D01*
X29371833Y-231466551D01*
X29217502Y-231278498D01*
X29029449Y-231124167D01*
X28814901Y-231009489D01*
X28582102Y-230938870D01*
X28400665Y-230921000D01*
X27479335Y-230921000D01*
X27297898Y-230938870D01*
X27065099Y-231009489D01*
X26850551Y-231124167D01*
X26662498Y-231278498D01*
X26508167Y-231466551D01*
X26393489Y-231681099D01*
X26322870Y-231913898D01*
X26299025Y-232156000D01*
X20660000Y-232156000D01*
X20660000Y-229616000D01*
X26299025Y-229616000D01*
X26322870Y-229858102D01*
X26393489Y-230090901D01*
X26508167Y-230305449D01*
X26662498Y-230493502D01*
X26850551Y-230647833D01*
X27065099Y-230762511D01*
X27297898Y-230833130D01*
X27479335Y-230851000D01*
X28400665Y-230851000D01*
X28582102Y-230833130D01*
X28814901Y-230762511D01*
X29029449Y-230647833D01*
X29217502Y-230493502D01*
X29371833Y-230305449D01*
X29486511Y-230090901D01*
X29557130Y-229858102D01*
X29580975Y-229616000D01*
X29557130Y-229373898D01*
X29486511Y-229141099D01*
X29371833Y-228926551D01*
X29217502Y-228738498D01*
X29029449Y-228584167D01*
X28814901Y-228469489D01*
X28582102Y-228398870D01*
X28400665Y-228381000D01*
X27479335Y-228381000D01*
X27297898Y-228398870D01*
X27065099Y-228469489D01*
X26850551Y-228584167D01*
X26662498Y-228738498D01*
X26508167Y-228926551D01*
X26393489Y-229141099D01*
X26322870Y-229373898D01*
X26299025Y-229616000D01*
X20660000Y-229616000D01*
X20660000Y-227076000D01*
X26299025Y-227076000D01*
X26322870Y-227318102D01*
X26393489Y-227550901D01*
X26508167Y-227765449D01*
X26662498Y-227953502D01*
X26850551Y-228107833D01*
X27065099Y-228222511D01*
X27297898Y-228293130D01*
X27479335Y-228311000D01*
X28400665Y-228311000D01*
X28582102Y-228293130D01*
X28814901Y-228222511D01*
X29029449Y-228107833D01*
X29217502Y-227953502D01*
X29371833Y-227765449D01*
X29486511Y-227550901D01*
X29557130Y-227318102D01*
X29580975Y-227076000D01*
X29557130Y-226833898D01*
X29486511Y-226601099D01*
X29371833Y-226386551D01*
X29217502Y-226198498D01*
X29029449Y-226044167D01*
X28814901Y-225929489D01*
X28582102Y-225858870D01*
X28400665Y-225841000D01*
X27479335Y-225841000D01*
X27297898Y-225858870D01*
X27065099Y-225929489D01*
X26850551Y-226044167D01*
X26662498Y-226198498D01*
X26508167Y-226386551D01*
X26393489Y-226601099D01*
X26322870Y-226833898D01*
X26299025Y-227076000D01*
X20660000Y-227076000D01*
X20660000Y-217297000D01*
X30835627Y-217297000D01*
X30859355Y-217341392D01*
M02*
