G04 #@! TF.GenerationSoftware,KiCad,Pcbnew,(5.1.5)-3*
G04 #@! TF.CreationDate,2020-12-16T10:40:52+01:00*
G04 #@! TF.ProjectId,Hardware,48617264-7761-4726-952e-6b696361645f,V1*
G04 #@! TF.SameCoordinates,Original*
G04 #@! TF.FileFunction,Profile,NP*
%FSLAX46Y46*%
G04 Gerber Fmt 4.6, Leading zero omitted, Abs format (unit mm)*
G04 Created by KiCad (PCBNEW (5.1.5)-3) date 2020-12-16 10:40:52*
%MOMM*%
%LPD*%
G04 APERTURE LIST*
%ADD10C,0.100000*%
%ADD11C,0.150000*%
%ADD12C,0.300000*%
%ADD13C,0.400000*%
%ADD14C,0.050000*%
G04 APERTURE END LIST*
D10*
D11*
X177002200Y-375989000D02*
X177002200Y-407989000D01*
X285002200Y-407989000D01*
X285002200Y-375989000D01*
X177002200Y-375989000D01*
D10*
D11*
X10000000Y-10000000D02*
X10000000Y-409989000D01*
X287002200Y-409989000D01*
X287002200Y-10000000D01*
X10000000Y-10000000D01*
D10*
D11*
X12000000Y-12000000D02*
X12000000Y-407989000D01*
X285002200Y-407989000D01*
X285002200Y-12000000D01*
X12000000Y-12000000D01*
D10*
D11*
X60000000Y-12000000D02*
X60000000Y-10000000D01*
D10*
D11*
X110000000Y-12000000D02*
X110000000Y-10000000D01*
D10*
D11*
X160000000Y-12000000D02*
X160000000Y-10000000D01*
D10*
D11*
X210000000Y-12000000D02*
X210000000Y-10000000D01*
D10*
D11*
X260000000Y-12000000D02*
X260000000Y-10000000D01*
D10*
D11*
X36065476Y-11588095D02*
X35322619Y-11588095D01*
X35694047Y-11588095D02*
X35694047Y-10288095D01*
X35570238Y-10473809D01*
X35446428Y-10597619D01*
X35322619Y-10659523D01*
D10*
D11*
X85322619Y-10411904D02*
X85384523Y-10350000D01*
X85508333Y-10288095D01*
X85817857Y-10288095D01*
X85941666Y-10350000D01*
X86003571Y-10411904D01*
X86065476Y-10535714D01*
X86065476Y-10659523D01*
X86003571Y-10845238D01*
X85260714Y-11588095D01*
X86065476Y-11588095D01*
D10*
D11*
X135260714Y-10288095D02*
X136065476Y-10288095D01*
X135632142Y-10783333D01*
X135817857Y-10783333D01*
X135941666Y-10845238D01*
X136003571Y-10907142D01*
X136065476Y-11030952D01*
X136065476Y-11340476D01*
X136003571Y-11464285D01*
X135941666Y-11526190D01*
X135817857Y-11588095D01*
X135446428Y-11588095D01*
X135322619Y-11526190D01*
X135260714Y-11464285D01*
D10*
D11*
X185941666Y-10721428D02*
X185941666Y-11588095D01*
X185632142Y-10226190D02*
X185322619Y-11154761D01*
X186127380Y-11154761D01*
D10*
D11*
X236003571Y-10288095D02*
X235384523Y-10288095D01*
X235322619Y-10907142D01*
X235384523Y-10845238D01*
X235508333Y-10783333D01*
X235817857Y-10783333D01*
X235941666Y-10845238D01*
X236003571Y-10907142D01*
X236065476Y-11030952D01*
X236065476Y-11340476D01*
X236003571Y-11464285D01*
X235941666Y-11526190D01*
X235817857Y-11588095D01*
X235508333Y-11588095D01*
X235384523Y-11526190D01*
X235322619Y-11464285D01*
D10*
D11*
X285941666Y-10288095D02*
X285694047Y-10288095D01*
X285570238Y-10350000D01*
X285508333Y-10411904D01*
X285384523Y-10597619D01*
X285322619Y-10845238D01*
X285322619Y-11340476D01*
X285384523Y-11464285D01*
X285446428Y-11526190D01*
X285570238Y-11588095D01*
X285817857Y-11588095D01*
X285941666Y-11526190D01*
X286003571Y-11464285D01*
X286065476Y-11340476D01*
X286065476Y-11030952D01*
X286003571Y-10907142D01*
X285941666Y-10845238D01*
X285817857Y-10783333D01*
X285570238Y-10783333D01*
X285446428Y-10845238D01*
X285384523Y-10907142D01*
X285322619Y-11030952D01*
D10*
D11*
X60000000Y-407989000D02*
X60000000Y-409989000D01*
D10*
D11*
X110000000Y-407989000D02*
X110000000Y-409989000D01*
D10*
D11*
X160000000Y-407989000D02*
X160000000Y-409989000D01*
D10*
D11*
X210000000Y-407989000D02*
X210000000Y-409989000D01*
D10*
D11*
X260000000Y-407989000D02*
X260000000Y-409989000D01*
D10*
D11*
X36065476Y-409577095D02*
X35322619Y-409577095D01*
X35694047Y-409577095D02*
X35694047Y-408277095D01*
X35570238Y-408462809D01*
X35446428Y-408586619D01*
X35322619Y-408648523D01*
D10*
D11*
X85322619Y-408400904D02*
X85384523Y-408339000D01*
X85508333Y-408277095D01*
X85817857Y-408277095D01*
X85941666Y-408339000D01*
X86003571Y-408400904D01*
X86065476Y-408524714D01*
X86065476Y-408648523D01*
X86003571Y-408834238D01*
X85260714Y-409577095D01*
X86065476Y-409577095D01*
D10*
D11*
X135260714Y-408277095D02*
X136065476Y-408277095D01*
X135632142Y-408772333D01*
X135817857Y-408772333D01*
X135941666Y-408834238D01*
X136003571Y-408896142D01*
X136065476Y-409019952D01*
X136065476Y-409329476D01*
X136003571Y-409453285D01*
X135941666Y-409515190D01*
X135817857Y-409577095D01*
X135446428Y-409577095D01*
X135322619Y-409515190D01*
X135260714Y-409453285D01*
D10*
D11*
X185941666Y-408710428D02*
X185941666Y-409577095D01*
X185632142Y-408215190D02*
X185322619Y-409143761D01*
X186127380Y-409143761D01*
D10*
D11*
X236003571Y-408277095D02*
X235384523Y-408277095D01*
X235322619Y-408896142D01*
X235384523Y-408834238D01*
X235508333Y-408772333D01*
X235817857Y-408772333D01*
X235941666Y-408834238D01*
X236003571Y-408896142D01*
X236065476Y-409019952D01*
X236065476Y-409329476D01*
X236003571Y-409453285D01*
X235941666Y-409515190D01*
X235817857Y-409577095D01*
X235508333Y-409577095D01*
X235384523Y-409515190D01*
X235322619Y-409453285D01*
D10*
D11*
X285941666Y-408277095D02*
X285694047Y-408277095D01*
X285570238Y-408339000D01*
X285508333Y-408400904D01*
X285384523Y-408586619D01*
X285322619Y-408834238D01*
X285322619Y-409329476D01*
X285384523Y-409453285D01*
X285446428Y-409515190D01*
X285570238Y-409577095D01*
X285817857Y-409577095D01*
X285941666Y-409515190D01*
X286003571Y-409453285D01*
X286065476Y-409329476D01*
X286065476Y-409019952D01*
X286003571Y-408896142D01*
X285941666Y-408834238D01*
X285817857Y-408772333D01*
X285570238Y-408772333D01*
X285446428Y-408834238D01*
X285384523Y-408896142D01*
X285322619Y-409019952D01*
D10*
D11*
X10000000Y-60000000D02*
X12000000Y-60000000D01*
D10*
D11*
X10000000Y-110000000D02*
X12000000Y-110000000D01*
D10*
D11*
X10000000Y-160000000D02*
X12000000Y-160000000D01*
D10*
D11*
X10000000Y-210000000D02*
X12000000Y-210000000D01*
D10*
D11*
X10000000Y-260000000D02*
X12000000Y-260000000D01*
D10*
D11*
X10000000Y-310000000D02*
X12000000Y-310000000D01*
D10*
D11*
X10000000Y-360000000D02*
X12000000Y-360000000D01*
D10*
D11*
X10690476Y-35216666D02*
X11309523Y-35216666D01*
X10566666Y-35588095D02*
X11000000Y-34288095D01*
X11433333Y-35588095D01*
D10*
D11*
X11092857Y-84907142D02*
X11278571Y-84969047D01*
X11340476Y-85030952D01*
X11402380Y-85154761D01*
X11402380Y-85340476D01*
X11340476Y-85464285D01*
X11278571Y-85526190D01*
X11154761Y-85588095D01*
X10659523Y-85588095D01*
X10659523Y-84288095D01*
X11092857Y-84288095D01*
X11216666Y-84350000D01*
X11278571Y-84411904D01*
X11340476Y-84535714D01*
X11340476Y-84659523D01*
X11278571Y-84783333D01*
X11216666Y-84845238D01*
X11092857Y-84907142D01*
X10659523Y-84907142D01*
D10*
D11*
X11402380Y-135464285D02*
X11340476Y-135526190D01*
X11154761Y-135588095D01*
X11030952Y-135588095D01*
X10845238Y-135526190D01*
X10721428Y-135402380D01*
X10659523Y-135278571D01*
X10597619Y-135030952D01*
X10597619Y-134845238D01*
X10659523Y-134597619D01*
X10721428Y-134473809D01*
X10845238Y-134350000D01*
X11030952Y-134288095D01*
X11154761Y-134288095D01*
X11340476Y-134350000D01*
X11402380Y-134411904D01*
D10*
D11*
X10659523Y-185588095D02*
X10659523Y-184288095D01*
X10969047Y-184288095D01*
X11154761Y-184350000D01*
X11278571Y-184473809D01*
X11340476Y-184597619D01*
X11402380Y-184845238D01*
X11402380Y-185030952D01*
X11340476Y-185278571D01*
X11278571Y-185402380D01*
X11154761Y-185526190D01*
X10969047Y-185588095D01*
X10659523Y-185588095D01*
D10*
D11*
X10721428Y-234907142D02*
X11154761Y-234907142D01*
X11340476Y-235588095D02*
X10721428Y-235588095D01*
X10721428Y-234288095D01*
X11340476Y-234288095D01*
D10*
D11*
X11185714Y-284907142D02*
X10752380Y-284907142D01*
X10752380Y-285588095D02*
X10752380Y-284288095D01*
X11371428Y-284288095D01*
D10*
D11*
X11340476Y-334350000D02*
X11216666Y-334288095D01*
X11030952Y-334288095D01*
X10845238Y-334350000D01*
X10721428Y-334473809D01*
X10659523Y-334597619D01*
X10597619Y-334845238D01*
X10597619Y-335030952D01*
X10659523Y-335278571D01*
X10721428Y-335402380D01*
X10845238Y-335526190D01*
X11030952Y-335588095D01*
X11154761Y-335588095D01*
X11340476Y-335526190D01*
X11402380Y-335464285D01*
X11402380Y-335030952D01*
X11154761Y-335030952D01*
D10*
D11*
X10628571Y-385588095D02*
X10628571Y-384288095D01*
X10628571Y-384907142D02*
X11371428Y-384907142D01*
X11371428Y-385588095D02*
X11371428Y-384288095D01*
D10*
D11*
X287002200Y-60000000D02*
X285002200Y-60000000D01*
D10*
D11*
X287002200Y-110000000D02*
X285002200Y-110000000D01*
D10*
D11*
X287002200Y-160000000D02*
X285002200Y-160000000D01*
D10*
D11*
X287002200Y-210000000D02*
X285002200Y-210000000D01*
D10*
D11*
X287002200Y-260000000D02*
X285002200Y-260000000D01*
D10*
D11*
X287002200Y-310000000D02*
X285002200Y-310000000D01*
D10*
D11*
X287002200Y-360000000D02*
X285002200Y-360000000D01*
D10*
D11*
X285692676Y-35216666D02*
X286311723Y-35216666D01*
X285568866Y-35588095D02*
X286002200Y-34288095D01*
X286435533Y-35588095D01*
D10*
D11*
X286095057Y-84907142D02*
X286280771Y-84969047D01*
X286342676Y-85030952D01*
X286404580Y-85154761D01*
X286404580Y-85340476D01*
X286342676Y-85464285D01*
X286280771Y-85526190D01*
X286156961Y-85588095D01*
X285661723Y-85588095D01*
X285661723Y-84288095D01*
X286095057Y-84288095D01*
X286218866Y-84350000D01*
X286280771Y-84411904D01*
X286342676Y-84535714D01*
X286342676Y-84659523D01*
X286280771Y-84783333D01*
X286218866Y-84845238D01*
X286095057Y-84907142D01*
X285661723Y-84907142D01*
D10*
D11*
X286404580Y-135464285D02*
X286342676Y-135526190D01*
X286156961Y-135588095D01*
X286033152Y-135588095D01*
X285847438Y-135526190D01*
X285723628Y-135402380D01*
X285661723Y-135278571D01*
X285599819Y-135030952D01*
X285599819Y-134845238D01*
X285661723Y-134597619D01*
X285723628Y-134473809D01*
X285847438Y-134350000D01*
X286033152Y-134288095D01*
X286156961Y-134288095D01*
X286342676Y-134350000D01*
X286404580Y-134411904D01*
D10*
D11*
X285661723Y-185588095D02*
X285661723Y-184288095D01*
X285971247Y-184288095D01*
X286156961Y-184350000D01*
X286280771Y-184473809D01*
X286342676Y-184597619D01*
X286404580Y-184845238D01*
X286404580Y-185030952D01*
X286342676Y-185278571D01*
X286280771Y-185402380D01*
X286156961Y-185526190D01*
X285971247Y-185588095D01*
X285661723Y-185588095D01*
D10*
D11*
X285723628Y-234907142D02*
X286156961Y-234907142D01*
X286342676Y-235588095D02*
X285723628Y-235588095D01*
X285723628Y-234288095D01*
X286342676Y-234288095D01*
D10*
D11*
X286187914Y-284907142D02*
X285754580Y-284907142D01*
X285754580Y-285588095D02*
X285754580Y-284288095D01*
X286373628Y-284288095D01*
D10*
D11*
X286342676Y-334350000D02*
X286218866Y-334288095D01*
X286033152Y-334288095D01*
X285847438Y-334350000D01*
X285723628Y-334473809D01*
X285661723Y-334597619D01*
X285599819Y-334845238D01*
X285599819Y-335030952D01*
X285661723Y-335278571D01*
X285723628Y-335402380D01*
X285847438Y-335526190D01*
X286033152Y-335588095D01*
X286156961Y-335588095D01*
X286342676Y-335526190D01*
X286404580Y-335464285D01*
X286404580Y-335030952D01*
X286156961Y-335030952D01*
D10*
D11*
X285630771Y-385588095D02*
X285630771Y-384288095D01*
X285630771Y-384907142D02*
X286373628Y-384907142D01*
X286373628Y-385588095D02*
X286373628Y-384288095D01*
D10*
D11*
X200434342Y-403767571D02*
X200434342Y-402267571D01*
X200791485Y-402267571D01*
X201005771Y-402339000D01*
X201148628Y-402481857D01*
X201220057Y-402624714D01*
X201291485Y-402910428D01*
X201291485Y-403124714D01*
X201220057Y-403410428D01*
X201148628Y-403553285D01*
X201005771Y-403696142D01*
X200791485Y-403767571D01*
X200434342Y-403767571D01*
X202577200Y-403767571D02*
X202577200Y-402981857D01*
X202505771Y-402839000D01*
X202362914Y-402767571D01*
X202077200Y-402767571D01*
X201934342Y-402839000D01*
X202577200Y-403696142D02*
X202434342Y-403767571D01*
X202077200Y-403767571D01*
X201934342Y-403696142D01*
X201862914Y-403553285D01*
X201862914Y-403410428D01*
X201934342Y-403267571D01*
X202077200Y-403196142D01*
X202434342Y-403196142D01*
X202577200Y-403124714D01*
X203077200Y-402767571D02*
X203648628Y-402767571D01*
X203291485Y-402267571D02*
X203291485Y-403553285D01*
X203362914Y-403696142D01*
X203505771Y-403767571D01*
X203648628Y-403767571D01*
X204720057Y-403696142D02*
X204577200Y-403767571D01*
X204291485Y-403767571D01*
X204148628Y-403696142D01*
X204077200Y-403553285D01*
X204077200Y-402981857D01*
X204148628Y-402839000D01*
X204291485Y-402767571D01*
X204577200Y-402767571D01*
X204720057Y-402839000D01*
X204791485Y-402981857D01*
X204791485Y-403124714D01*
X204077200Y-403267571D01*
X205434342Y-403624714D02*
X205505771Y-403696142D01*
X205434342Y-403767571D01*
X205362914Y-403696142D01*
X205434342Y-403624714D01*
X205434342Y-403767571D01*
X205434342Y-402839000D02*
X205505771Y-402910428D01*
X205434342Y-402981857D01*
X205362914Y-402910428D01*
X205434342Y-402839000D01*
X205434342Y-402981857D01*
X207220057Y-402410428D02*
X207291485Y-402339000D01*
X207434342Y-402267571D01*
X207791485Y-402267571D01*
X207934342Y-402339000D01*
X208005771Y-402410428D01*
X208077200Y-402553285D01*
X208077200Y-402696142D01*
X208005771Y-402910428D01*
X207148628Y-403767571D01*
X208077200Y-403767571D01*
X209005771Y-402267571D02*
X209148628Y-402267571D01*
X209291485Y-402339000D01*
X209362914Y-402410428D01*
X209434342Y-402553285D01*
X209505771Y-402839000D01*
X209505771Y-403196142D01*
X209434342Y-403481857D01*
X209362914Y-403624714D01*
X209291485Y-403696142D01*
X209148628Y-403767571D01*
X209005771Y-403767571D01*
X208862914Y-403696142D01*
X208791485Y-403624714D01*
X208720057Y-403481857D01*
X208648628Y-403196142D01*
X208648628Y-402839000D01*
X208720057Y-402553285D01*
X208791485Y-402410428D01*
X208862914Y-402339000D01*
X209005771Y-402267571D01*
X210077200Y-402410428D02*
X210148628Y-402339000D01*
X210291485Y-402267571D01*
X210648628Y-402267571D01*
X210791485Y-402339000D01*
X210862914Y-402410428D01*
X210934342Y-402553285D01*
X210934342Y-402696142D01*
X210862914Y-402910428D01*
X210005771Y-403767571D01*
X210934342Y-403767571D01*
X211862914Y-402267571D02*
X212005771Y-402267571D01*
X212148628Y-402339000D01*
X212220057Y-402410428D01*
X212291485Y-402553285D01*
X212362914Y-402839000D01*
X212362914Y-403196142D01*
X212291485Y-403481857D01*
X212220057Y-403624714D01*
X212148628Y-403696142D01*
X212005771Y-403767571D01*
X211862914Y-403767571D01*
X211720057Y-403696142D01*
X211648628Y-403624714D01*
X211577200Y-403481857D01*
X211505771Y-403196142D01*
X211505771Y-402839000D01*
X211577200Y-402553285D01*
X211648628Y-402410428D01*
X211720057Y-402339000D01*
X211862914Y-402267571D01*
X213005771Y-403196142D02*
X214148628Y-403196142D01*
X215648628Y-403767571D02*
X214791485Y-403767571D01*
X215220057Y-403767571D02*
X215220057Y-402267571D01*
X215077200Y-402481857D01*
X214934342Y-402624714D01*
X214791485Y-402696142D01*
X217077200Y-403767571D02*
X216220057Y-403767571D01*
X216648628Y-403767571D02*
X216648628Y-402267571D01*
X216505771Y-402481857D01*
X216362914Y-402624714D01*
X216220057Y-402696142D01*
X217720057Y-403196142D02*
X218862914Y-403196142D01*
X219505771Y-402410428D02*
X219577200Y-402339000D01*
X219720057Y-402267571D01*
X220077200Y-402267571D01*
X220220057Y-402339000D01*
X220291485Y-402410428D01*
X220362914Y-402553285D01*
X220362914Y-402696142D01*
X220291485Y-402910428D01*
X219434342Y-403767571D01*
X220362914Y-403767571D01*
X221648628Y-402267571D02*
X221362914Y-402267571D01*
X221220057Y-402339000D01*
X221148628Y-402410428D01*
X221005771Y-402624714D01*
X220934342Y-402910428D01*
X220934342Y-403481857D01*
X221005771Y-403624714D01*
X221077200Y-403696142D01*
X221220057Y-403767571D01*
X221505771Y-403767571D01*
X221648628Y-403696142D01*
X221720057Y-403624714D01*
X221791485Y-403481857D01*
X221791485Y-403124714D01*
X221720057Y-402981857D01*
X221648628Y-402910428D01*
X221505771Y-402839000D01*
X221220057Y-402839000D01*
X221077200Y-402910428D01*
X221005771Y-402981857D01*
X220934342Y-403124714D01*
D10*
D11*
X177002200Y-404489000D02*
X285002200Y-404489000D01*
D10*
D11*
X178434342Y-406567571D02*
X178434342Y-405067571D01*
X179291485Y-406567571D02*
X178648628Y-405710428D01*
X179291485Y-405067571D02*
X178434342Y-405924714D01*
X179934342Y-406567571D02*
X179934342Y-405567571D01*
X179934342Y-405067571D02*
X179862914Y-405139000D01*
X179934342Y-405210428D01*
X180005771Y-405139000D01*
X179934342Y-405067571D01*
X179934342Y-405210428D01*
X181505771Y-406424714D02*
X181434342Y-406496142D01*
X181220057Y-406567571D01*
X181077200Y-406567571D01*
X180862914Y-406496142D01*
X180720057Y-406353285D01*
X180648628Y-406210428D01*
X180577200Y-405924714D01*
X180577200Y-405710428D01*
X180648628Y-405424714D01*
X180720057Y-405281857D01*
X180862914Y-405139000D01*
X181077200Y-405067571D01*
X181220057Y-405067571D01*
X181434342Y-405139000D01*
X181505771Y-405210428D01*
X182791485Y-406567571D02*
X182791485Y-405781857D01*
X182720057Y-405639000D01*
X182577200Y-405567571D01*
X182291485Y-405567571D01*
X182148628Y-405639000D01*
X182791485Y-406496142D02*
X182648628Y-406567571D01*
X182291485Y-406567571D01*
X182148628Y-406496142D01*
X182077200Y-406353285D01*
X182077200Y-406210428D01*
X182148628Y-406067571D01*
X182291485Y-405996142D01*
X182648628Y-405996142D01*
X182791485Y-405924714D01*
X184148628Y-406567571D02*
X184148628Y-405067571D01*
X184148628Y-406496142D02*
X184005771Y-406567571D01*
X183720057Y-406567571D01*
X183577200Y-406496142D01*
X183505771Y-406424714D01*
X183434342Y-406281857D01*
X183434342Y-405853285D01*
X183505771Y-405710428D01*
X183577200Y-405639000D01*
X183720057Y-405567571D01*
X184005771Y-405567571D01*
X184148628Y-405639000D01*
X186005771Y-405781857D02*
X186505771Y-405781857D01*
X186720057Y-406567571D02*
X186005771Y-406567571D01*
X186005771Y-405067571D01*
X186720057Y-405067571D01*
X187362914Y-406424714D02*
X187434342Y-406496142D01*
X187362914Y-406567571D01*
X187291485Y-406496142D01*
X187362914Y-406424714D01*
X187362914Y-406567571D01*
X188077200Y-406567571D02*
X188077200Y-405067571D01*
X188434342Y-405067571D01*
X188648628Y-405139000D01*
X188791485Y-405281857D01*
X188862914Y-405424714D01*
X188934342Y-405710428D01*
X188934342Y-405924714D01*
X188862914Y-406210428D01*
X188791485Y-406353285D01*
X188648628Y-406496142D01*
X188434342Y-406567571D01*
X188077200Y-406567571D01*
X189577200Y-406424714D02*
X189648628Y-406496142D01*
X189577200Y-406567571D01*
X189505771Y-406496142D01*
X189577200Y-406424714D01*
X189577200Y-406567571D01*
X190220057Y-406139000D02*
X190934342Y-406139000D01*
X190077200Y-406567571D02*
X190577200Y-405067571D01*
X191077200Y-406567571D01*
X191577200Y-406424714D02*
X191648628Y-406496142D01*
X191577200Y-406567571D01*
X191505771Y-406496142D01*
X191577200Y-406424714D01*
X191577200Y-406567571D01*
X194577200Y-406567571D02*
X194577200Y-405067571D01*
X194720057Y-405996142D02*
X195148628Y-406567571D01*
X195148628Y-405567571D02*
X194577200Y-406139000D01*
X195791485Y-406567571D02*
X195791485Y-405567571D01*
X195791485Y-405067571D02*
X195720057Y-405139000D01*
X195791485Y-405210428D01*
X195862914Y-405139000D01*
X195791485Y-405067571D01*
X195791485Y-405210428D01*
X197148628Y-406496142D02*
X197005771Y-406567571D01*
X196720057Y-406567571D01*
X196577200Y-406496142D01*
X196505771Y-406424714D01*
X196434342Y-406281857D01*
X196434342Y-405853285D01*
X196505771Y-405710428D01*
X196577200Y-405639000D01*
X196720057Y-405567571D01*
X197005771Y-405567571D01*
X197148628Y-405639000D01*
X198434342Y-406567571D02*
X198434342Y-405781857D01*
X198362914Y-405639000D01*
X198220057Y-405567571D01*
X197934342Y-405567571D01*
X197791485Y-405639000D01*
X198434342Y-406496142D02*
X198291485Y-406567571D01*
X197934342Y-406567571D01*
X197791485Y-406496142D01*
X197720057Y-406353285D01*
X197720057Y-406210428D01*
X197791485Y-406067571D01*
X197934342Y-405996142D01*
X198291485Y-405996142D01*
X198434342Y-405924714D01*
X199791485Y-406567571D02*
X199791485Y-405067571D01*
X199791485Y-406496142D02*
X199648628Y-406567571D01*
X199362914Y-406567571D01*
X199220057Y-406496142D01*
X199148628Y-406424714D01*
X199077200Y-406281857D01*
X199077200Y-405853285D01*
X199148628Y-405710428D01*
X199220057Y-405639000D01*
X199362914Y-405567571D01*
X199648628Y-405567571D01*
X199791485Y-405639000D01*
X202077200Y-407139000D02*
X202005771Y-407067571D01*
X201862914Y-406853285D01*
X201791485Y-406710428D01*
X201720057Y-406496142D01*
X201648628Y-406139000D01*
X201648628Y-405853285D01*
X201720057Y-405496142D01*
X201791485Y-405281857D01*
X201862914Y-405139000D01*
X202005771Y-404924714D01*
X202077200Y-404853285D01*
X203362914Y-405067571D02*
X202648628Y-405067571D01*
X202577200Y-405781857D01*
X202648628Y-405710428D01*
X202791485Y-405639000D01*
X203148628Y-405639000D01*
X203291485Y-405710428D01*
X203362914Y-405781857D01*
X203434342Y-405924714D01*
X203434342Y-406281857D01*
X203362914Y-406424714D01*
X203291485Y-406496142D01*
X203148628Y-406567571D01*
X202791485Y-406567571D01*
X202648628Y-406496142D01*
X202577200Y-406424714D01*
X204077200Y-406424714D02*
X204148628Y-406496142D01*
X204077200Y-406567571D01*
X204005771Y-406496142D01*
X204077200Y-406424714D01*
X204077200Y-406567571D01*
X205577200Y-406567571D02*
X204720057Y-406567571D01*
X205148628Y-406567571D02*
X205148628Y-405067571D01*
X205005771Y-405281857D01*
X204862914Y-405424714D01*
X204720057Y-405496142D01*
X206220057Y-406424714D02*
X206291485Y-406496142D01*
X206220057Y-406567571D01*
X206148628Y-406496142D01*
X206220057Y-406424714D01*
X206220057Y-406567571D01*
X207648628Y-405067571D02*
X206934342Y-405067571D01*
X206862914Y-405781857D01*
X206934342Y-405710428D01*
X207077200Y-405639000D01*
X207434342Y-405639000D01*
X207577200Y-405710428D01*
X207648628Y-405781857D01*
X207720057Y-405924714D01*
X207720057Y-406281857D01*
X207648628Y-406424714D01*
X207577200Y-406496142D01*
X207434342Y-406567571D01*
X207077200Y-406567571D01*
X206934342Y-406496142D01*
X206862914Y-406424714D01*
X208220057Y-407139000D02*
X208291485Y-407067571D01*
X208434342Y-406853285D01*
X208505771Y-406710428D01*
X208577200Y-406496142D01*
X208648628Y-406139000D01*
X208648628Y-405853285D01*
X208577200Y-405496142D01*
X208505771Y-405281857D01*
X208434342Y-405139000D01*
X208291485Y-404924714D01*
X208220057Y-404853285D01*
X209362914Y-405996142D02*
X210505771Y-405996142D01*
X211077200Y-405067571D02*
X212005771Y-405067571D01*
X211505771Y-405639000D01*
X211720057Y-405639000D01*
X211862914Y-405710428D01*
X211934342Y-405781857D01*
X212005771Y-405924714D01*
X212005771Y-406281857D01*
X211934342Y-406424714D01*
X211862914Y-406496142D01*
X211720057Y-406567571D01*
X211291485Y-406567571D01*
X211148628Y-406496142D01*
X211077200Y-406424714D01*
D10*
D11*
X177002200Y-401489000D02*
X285002200Y-401489000D01*
D10*
D12*
X264411485Y-403767571D02*
X263911485Y-403053285D01*
X263554342Y-403767571D02*
X263554342Y-402267571D01*
X264125771Y-402267571D01*
X264268628Y-402339000D01*
X264340057Y-402410428D01*
X264411485Y-402553285D01*
X264411485Y-402767571D01*
X264340057Y-402910428D01*
X264268628Y-402981857D01*
X264125771Y-403053285D01*
X263554342Y-403053285D01*
X265625771Y-403696142D02*
X265482914Y-403767571D01*
X265197200Y-403767571D01*
X265054342Y-403696142D01*
X264982914Y-403553285D01*
X264982914Y-402981857D01*
X265054342Y-402839000D01*
X265197200Y-402767571D01*
X265482914Y-402767571D01*
X265625771Y-402839000D01*
X265697200Y-402981857D01*
X265697200Y-403124714D01*
X264982914Y-403267571D01*
X266197200Y-402767571D02*
X266554342Y-403767571D01*
X266911485Y-402767571D01*
X267482914Y-403624714D02*
X267554342Y-403696142D01*
X267482914Y-403767571D01*
X267411485Y-403696142D01*
X267482914Y-403624714D01*
X267482914Y-403767571D01*
X267482914Y-402839000D02*
X267554342Y-402910428D01*
X267482914Y-402981857D01*
X267411485Y-402910428D01*
X267482914Y-402839000D01*
X267482914Y-402981857D01*
X269125771Y-402267571D02*
X269625771Y-403767571D01*
X270125771Y-402267571D01*
X271411485Y-403767571D02*
X270554342Y-403767571D01*
X270982914Y-403767571D02*
X270982914Y-402267571D01*
X270840057Y-402481857D01*
X270697200Y-402624714D01*
X270554342Y-402696142D01*
D10*
D11*
X178362914Y-403696142D02*
X178577200Y-403767571D01*
X178934342Y-403767571D01*
X179077200Y-403696142D01*
X179148628Y-403624714D01*
X179220057Y-403481857D01*
X179220057Y-403339000D01*
X179148628Y-403196142D01*
X179077200Y-403124714D01*
X178934342Y-403053285D01*
X178648628Y-402981857D01*
X178505771Y-402910428D01*
X178434342Y-402839000D01*
X178362914Y-402696142D01*
X178362914Y-402553285D01*
X178434342Y-402410428D01*
X178505771Y-402339000D01*
X178648628Y-402267571D01*
X179005771Y-402267571D01*
X179220057Y-402339000D01*
X179862914Y-403767571D02*
X179862914Y-402767571D01*
X179862914Y-402267571D02*
X179791485Y-402339000D01*
X179862914Y-402410428D01*
X179934342Y-402339000D01*
X179862914Y-402267571D01*
X179862914Y-402410428D01*
X180434342Y-402767571D02*
X181220057Y-402767571D01*
X180434342Y-403767571D01*
X181220057Y-403767571D01*
X182362914Y-403696142D02*
X182220057Y-403767571D01*
X181934342Y-403767571D01*
X181791485Y-403696142D01*
X181720057Y-403553285D01*
X181720057Y-402981857D01*
X181791485Y-402839000D01*
X181934342Y-402767571D01*
X182220057Y-402767571D01*
X182362914Y-402839000D01*
X182434342Y-402981857D01*
X182434342Y-403124714D01*
X181720057Y-403267571D01*
X183077200Y-403624714D02*
X183148628Y-403696142D01*
X183077200Y-403767571D01*
X183005771Y-403696142D01*
X183077200Y-403624714D01*
X183077200Y-403767571D01*
X183077200Y-402839000D02*
X183148628Y-402910428D01*
X183077200Y-402981857D01*
X183005771Y-402910428D01*
X183077200Y-402839000D01*
X183077200Y-402981857D01*
X184862914Y-403339000D02*
X185577200Y-403339000D01*
X184720057Y-403767571D02*
X185220057Y-402267571D01*
X185720057Y-403767571D01*
X186077200Y-402267571D02*
X187005771Y-402267571D01*
X186505771Y-402839000D01*
X186720057Y-402839000D01*
X186862914Y-402910428D01*
X186934342Y-402981857D01*
X187005771Y-403124714D01*
X187005771Y-403481857D01*
X186934342Y-403624714D01*
X186862914Y-403696142D01*
X186720057Y-403767571D01*
X186291485Y-403767571D01*
X186148628Y-403696142D01*
X186077200Y-403624714D01*
D10*
D11*
X263434342Y-406567571D02*
X263434342Y-405067571D01*
X264791485Y-406567571D02*
X264791485Y-405067571D01*
X264791485Y-406496142D02*
X264648628Y-406567571D01*
X264362914Y-406567571D01*
X264220057Y-406496142D01*
X264148628Y-406424714D01*
X264077200Y-406281857D01*
X264077200Y-405853285D01*
X264148628Y-405710428D01*
X264220057Y-405639000D01*
X264362914Y-405567571D01*
X264648628Y-405567571D01*
X264791485Y-405639000D01*
X265505771Y-406424714D02*
X265577200Y-406496142D01*
X265505771Y-406567571D01*
X265434342Y-406496142D01*
X265505771Y-406424714D01*
X265505771Y-406567571D01*
X265505771Y-405639000D02*
X265577200Y-405710428D01*
X265505771Y-405781857D01*
X265434342Y-405710428D01*
X265505771Y-405639000D01*
X265505771Y-405781857D01*
X268148628Y-406567571D02*
X267291485Y-406567571D01*
X267720057Y-406567571D02*
X267720057Y-405067571D01*
X267577200Y-405281857D01*
X267434342Y-405424714D01*
X267291485Y-405496142D01*
X269862914Y-404996142D02*
X268577200Y-406924714D01*
X271148628Y-406567571D02*
X270291485Y-406567571D01*
X270720057Y-406567571D02*
X270720057Y-405067571D01*
X270577200Y-405281857D01*
X270434342Y-405424714D01*
X270291485Y-405496142D01*
D10*
D11*
X177002200Y-397489000D02*
X285002200Y-397489000D01*
D10*
D13*
X178714580Y-398193761D02*
X179857438Y-398193761D01*
X179036009Y-400193761D02*
X179286009Y-398193761D01*
X180274104Y-400193761D02*
X180440771Y-398860428D01*
X180524104Y-398193761D02*
X180416961Y-398289000D01*
X180500295Y-398384238D01*
X180607438Y-398289000D01*
X180524104Y-398193761D01*
X180500295Y-398384238D01*
X181107438Y-398860428D02*
X181869342Y-398860428D01*
X181476485Y-398193761D02*
X181262200Y-399908047D01*
X181333628Y-400098523D01*
X181512200Y-400193761D01*
X181702676Y-400193761D01*
X182655057Y-400193761D02*
X182476485Y-400098523D01*
X182405057Y-399908047D01*
X182619342Y-398193761D01*
X184190771Y-400098523D02*
X183988390Y-400193761D01*
X183607438Y-400193761D01*
X183428866Y-400098523D01*
X183357438Y-399908047D01*
X183452676Y-399146142D01*
X183571723Y-398955666D01*
X183774104Y-398860428D01*
X184155057Y-398860428D01*
X184333628Y-398955666D01*
X184405057Y-399146142D01*
X184381247Y-399336619D01*
X183405057Y-399527095D01*
X185155057Y-400003285D02*
X185238390Y-400098523D01*
X185131247Y-400193761D01*
X185047914Y-400098523D01*
X185155057Y-400003285D01*
X185131247Y-400193761D01*
X185286009Y-398955666D02*
X185369342Y-399050904D01*
X185262200Y-399146142D01*
X185178866Y-399050904D01*
X185286009Y-398955666D01*
X185262200Y-399146142D01*
X187571723Y-398193761D02*
X187988390Y-400193761D01*
X188905057Y-398193761D01*
X189321723Y-400193761D02*
X189488390Y-398860428D01*
X189571723Y-398193761D02*
X189464580Y-398289000D01*
X189547914Y-398384238D01*
X189655057Y-398289000D01*
X189571723Y-398193761D01*
X189547914Y-398384238D01*
X191047914Y-400098523D02*
X190845533Y-400193761D01*
X190464580Y-400193761D01*
X190286009Y-400098523D01*
X190214580Y-399908047D01*
X190309819Y-399146142D01*
X190428866Y-398955666D01*
X190631247Y-398860428D01*
X191012200Y-398860428D01*
X191190771Y-398955666D01*
X191262200Y-399146142D01*
X191238390Y-399336619D01*
X190262200Y-399527095D01*
X191988390Y-400193761D02*
X192155057Y-398860428D01*
X192107438Y-399241380D02*
X192226485Y-399050904D01*
X192333628Y-398955666D01*
X192536009Y-398860428D01*
X192726485Y-398860428D01*
X196036009Y-398289000D02*
X195857438Y-398193761D01*
X195571723Y-398193761D01*
X195274104Y-398289000D01*
X195059819Y-398479476D01*
X194940771Y-398669952D01*
X194797914Y-399050904D01*
X194762200Y-399336619D01*
X194809819Y-399717571D01*
X194881247Y-399908047D01*
X195047914Y-400098523D01*
X195321723Y-400193761D01*
X195512200Y-400193761D01*
X195809819Y-400098523D01*
X195916961Y-400003285D01*
X196000295Y-399336619D01*
X195619342Y-399336619D01*
X197524104Y-400098523D02*
X197321723Y-400193761D01*
X196940771Y-400193761D01*
X196762200Y-400098523D01*
X196690771Y-399908047D01*
X196786009Y-399146142D01*
X196905057Y-398955666D01*
X197107438Y-398860428D01*
X197488390Y-398860428D01*
X197666961Y-398955666D01*
X197738390Y-399146142D01*
X197714580Y-399336619D01*
X196738390Y-399527095D01*
X198440771Y-398860428D02*
X198655057Y-400193761D01*
X199155057Y-399241380D01*
X199416961Y-400193761D01*
X199964580Y-398860428D01*
X200559819Y-400193761D02*
X200726485Y-398860428D01*
X200809819Y-398193761D02*
X200702676Y-398289000D01*
X200786009Y-398384238D01*
X200893152Y-398289000D01*
X200809819Y-398193761D01*
X200786009Y-398384238D01*
X201678866Y-398860428D02*
X201512200Y-400193761D01*
X201655057Y-399050904D02*
X201762200Y-398955666D01*
X201964580Y-398860428D01*
X202250295Y-398860428D01*
X202428866Y-398955666D01*
X202500295Y-399146142D01*
X202369342Y-400193761D01*
X203488390Y-398860428D02*
X203321723Y-400193761D01*
X203464580Y-399050904D02*
X203571723Y-398955666D01*
X203774104Y-398860428D01*
X204059819Y-398860428D01*
X204238390Y-398955666D01*
X204309819Y-399146142D01*
X204178866Y-400193761D01*
X205012200Y-398860428D02*
X205774104Y-398860428D01*
X205381247Y-398193761D02*
X205166961Y-399908047D01*
X205238390Y-400098523D01*
X205416961Y-400193761D01*
X205607438Y-400193761D01*
D10*
D11*
X178934342Y-395581857D02*
X178434342Y-395581857D01*
X178434342Y-396367571D02*
X178434342Y-394867571D01*
X179148628Y-394867571D01*
X179720057Y-396367571D02*
X179720057Y-395367571D01*
X179720057Y-394867571D02*
X179648628Y-394939000D01*
X179720057Y-395010428D01*
X179791485Y-394939000D01*
X179720057Y-394867571D01*
X179720057Y-395010428D01*
X180648628Y-396367571D02*
X180505771Y-396296142D01*
X180434342Y-396153285D01*
X180434342Y-394867571D01*
X181791485Y-396296142D02*
X181648628Y-396367571D01*
X181362914Y-396367571D01*
X181220057Y-396296142D01*
X181148628Y-396153285D01*
X181148628Y-395581857D01*
X181220057Y-395439000D01*
X181362914Y-395367571D01*
X181648628Y-395367571D01*
X181791485Y-395439000D01*
X181862914Y-395581857D01*
X181862914Y-395724714D01*
X181148628Y-395867571D01*
X182505771Y-396224714D02*
X182577200Y-396296142D01*
X182505771Y-396367571D01*
X182434342Y-396296142D01*
X182505771Y-396224714D01*
X182505771Y-396367571D01*
X182505771Y-395439000D02*
X182577200Y-395510428D01*
X182505771Y-395581857D01*
X182434342Y-395510428D01*
X182505771Y-395439000D01*
X182505771Y-395581857D01*
X184362914Y-396367571D02*
X184362914Y-394867571D01*
X184362914Y-395581857D02*
X185220057Y-395581857D01*
X185220057Y-396367571D02*
X185220057Y-394867571D01*
X186577200Y-396367571D02*
X186577200Y-395581857D01*
X186505771Y-395439000D01*
X186362914Y-395367571D01*
X186077200Y-395367571D01*
X185934342Y-395439000D01*
X186577200Y-396296142D02*
X186434342Y-396367571D01*
X186077200Y-396367571D01*
X185934342Y-396296142D01*
X185862914Y-396153285D01*
X185862914Y-396010428D01*
X185934342Y-395867571D01*
X186077200Y-395796142D01*
X186434342Y-395796142D01*
X186577200Y-395724714D01*
X187291485Y-396367571D02*
X187291485Y-395367571D01*
X187291485Y-395653285D02*
X187362914Y-395510428D01*
X187434342Y-395439000D01*
X187577200Y-395367571D01*
X187720057Y-395367571D01*
X188862914Y-396367571D02*
X188862914Y-394867571D01*
X188862914Y-396296142D02*
X188720057Y-396367571D01*
X188434342Y-396367571D01*
X188291485Y-396296142D01*
X188220057Y-396224714D01*
X188148628Y-396081857D01*
X188148628Y-395653285D01*
X188220057Y-395510428D01*
X188291485Y-395439000D01*
X188434342Y-395367571D01*
X188720057Y-395367571D01*
X188862914Y-395439000D01*
X189434342Y-395367571D02*
X189720057Y-396367571D01*
X190005771Y-395653285D01*
X190291485Y-396367571D01*
X190577200Y-395367571D01*
X191791485Y-396367571D02*
X191791485Y-395581857D01*
X191720057Y-395439000D01*
X191577200Y-395367571D01*
X191291485Y-395367571D01*
X191148628Y-395439000D01*
X191791485Y-396296142D02*
X191648628Y-396367571D01*
X191291485Y-396367571D01*
X191148628Y-396296142D01*
X191077200Y-396153285D01*
X191077200Y-396010428D01*
X191148628Y-395867571D01*
X191291485Y-395796142D01*
X191648628Y-395796142D01*
X191791485Y-395724714D01*
X192505771Y-396367571D02*
X192505771Y-395367571D01*
X192505771Y-395653285D02*
X192577200Y-395510428D01*
X192648628Y-395439000D01*
X192791485Y-395367571D01*
X192934342Y-395367571D01*
X194005771Y-396296142D02*
X193862914Y-396367571D01*
X193577200Y-396367571D01*
X193434342Y-396296142D01*
X193362914Y-396153285D01*
X193362914Y-395581857D01*
X193434342Y-395439000D01*
X193577200Y-395367571D01*
X193862914Y-395367571D01*
X194005771Y-395439000D01*
X194077200Y-395581857D01*
X194077200Y-395724714D01*
X193362914Y-395867571D01*
X194720057Y-396224714D02*
X194791485Y-396296142D01*
X194720057Y-396367571D01*
X194648628Y-396296142D01*
X194720057Y-396224714D01*
X194720057Y-396367571D01*
X195434342Y-396367571D02*
X195434342Y-394867571D01*
X195577200Y-395796142D02*
X196005771Y-396367571D01*
X196005771Y-395367571D02*
X195434342Y-395939000D01*
X196648628Y-396367571D02*
X196648628Y-395367571D01*
X196648628Y-394867571D02*
X196577200Y-394939000D01*
X196648628Y-395010428D01*
X196720057Y-394939000D01*
X196648628Y-394867571D01*
X196648628Y-395010428D01*
X198005771Y-396296142D02*
X197862914Y-396367571D01*
X197577200Y-396367571D01*
X197434342Y-396296142D01*
X197362914Y-396224714D01*
X197291485Y-396081857D01*
X197291485Y-395653285D01*
X197362914Y-395510428D01*
X197434342Y-395439000D01*
X197577200Y-395367571D01*
X197862914Y-395367571D01*
X198005771Y-395439000D01*
X199291485Y-396367571D02*
X199291485Y-395581857D01*
X199220057Y-395439000D01*
X199077200Y-395367571D01*
X198791485Y-395367571D01*
X198648628Y-395439000D01*
X199291485Y-396296142D02*
X199148628Y-396367571D01*
X198791485Y-396367571D01*
X198648628Y-396296142D01*
X198577200Y-396153285D01*
X198577200Y-396010428D01*
X198648628Y-395867571D01*
X198791485Y-395796142D01*
X199148628Y-395796142D01*
X199291485Y-395724714D01*
X200648628Y-396367571D02*
X200648628Y-394867571D01*
X200648628Y-396296142D02*
X200505771Y-396367571D01*
X200220057Y-396367571D01*
X200077200Y-396296142D01*
X200005771Y-396224714D01*
X199934342Y-396081857D01*
X199934342Y-395653285D01*
X200005771Y-395510428D01*
X200077200Y-395439000D01*
X200220057Y-395367571D01*
X200505771Y-395367571D01*
X200648628Y-395439000D01*
X201005771Y-396510428D02*
X202148628Y-396510428D01*
X202505771Y-395367571D02*
X202505771Y-396867571D01*
X202505771Y-395439000D02*
X202648628Y-395367571D01*
X202934342Y-395367571D01*
X203077200Y-395439000D01*
X203148628Y-395510428D01*
X203220057Y-395653285D01*
X203220057Y-396081857D01*
X203148628Y-396224714D01*
X203077200Y-396296142D01*
X202934342Y-396367571D01*
X202648628Y-396367571D01*
X202505771Y-396296142D01*
X204505771Y-396296142D02*
X204362914Y-396367571D01*
X204077200Y-396367571D01*
X203934342Y-396296142D01*
X203862914Y-396224714D01*
X203791485Y-396081857D01*
X203791485Y-395653285D01*
X203862914Y-395510428D01*
X203934342Y-395439000D01*
X204077200Y-395367571D01*
X204362914Y-395367571D01*
X204505771Y-395439000D01*
X205148628Y-396367571D02*
X205148628Y-394867571D01*
X205148628Y-395439000D02*
X205291485Y-395367571D01*
X205577200Y-395367571D01*
X205720057Y-395439000D01*
X205791485Y-395510428D01*
X205862914Y-395653285D01*
X205862914Y-396081857D01*
X205791485Y-396224714D01*
X205720057Y-396296142D01*
X205577200Y-396367571D01*
X205291485Y-396367571D01*
X205148628Y-396296142D01*
D10*
D11*
X177002200Y-391489000D02*
X285002200Y-391489000D01*
D10*
D11*
X178362914Y-393596142D02*
X178577200Y-393667571D01*
X178934342Y-393667571D01*
X179077200Y-393596142D01*
X179148628Y-393524714D01*
X179220057Y-393381857D01*
X179220057Y-393239000D01*
X179148628Y-393096142D01*
X179077200Y-393024714D01*
X178934342Y-392953285D01*
X178648628Y-392881857D01*
X178505771Y-392810428D01*
X178434342Y-392739000D01*
X178362914Y-392596142D01*
X178362914Y-392453285D01*
X178434342Y-392310428D01*
X178505771Y-392239000D01*
X178648628Y-392167571D01*
X179005771Y-392167571D01*
X179220057Y-392239000D01*
X179862914Y-393667571D02*
X179862914Y-392167571D01*
X180505771Y-393667571D02*
X180505771Y-392881857D01*
X180434342Y-392739000D01*
X180291485Y-392667571D01*
X180077200Y-392667571D01*
X179934342Y-392739000D01*
X179862914Y-392810428D01*
X181791485Y-393596142D02*
X181648628Y-393667571D01*
X181362914Y-393667571D01*
X181220057Y-393596142D01*
X181148628Y-393453285D01*
X181148628Y-392881857D01*
X181220057Y-392739000D01*
X181362914Y-392667571D01*
X181648628Y-392667571D01*
X181791485Y-392739000D01*
X181862914Y-392881857D01*
X181862914Y-393024714D01*
X181148628Y-393167571D01*
X183077200Y-393596142D02*
X182934342Y-393667571D01*
X182648628Y-393667571D01*
X182505771Y-393596142D01*
X182434342Y-393453285D01*
X182434342Y-392881857D01*
X182505771Y-392739000D01*
X182648628Y-392667571D01*
X182934342Y-392667571D01*
X183077200Y-392739000D01*
X183148628Y-392881857D01*
X183148628Y-393024714D01*
X182434342Y-393167571D01*
X183577200Y-392667571D02*
X184148628Y-392667571D01*
X183791485Y-392167571D02*
X183791485Y-393453285D01*
X183862914Y-393596142D01*
X184005771Y-393667571D01*
X184148628Y-393667571D01*
X184648628Y-393524714D02*
X184720057Y-393596142D01*
X184648628Y-393667571D01*
X184577200Y-393596142D01*
X184648628Y-393524714D01*
X184648628Y-393667571D01*
X184648628Y-392739000D02*
X184720057Y-392810428D01*
X184648628Y-392881857D01*
X184577200Y-392810428D01*
X184648628Y-392739000D01*
X184648628Y-392881857D01*
D10*
D12*
X178482914Y-390596142D02*
X178697200Y-390667571D01*
X179054342Y-390667571D01*
X179197200Y-390596142D01*
X179268628Y-390524714D01*
X179340057Y-390381857D01*
X179340057Y-390239000D01*
X179268628Y-390096142D01*
X179197200Y-390024714D01*
X179054342Y-389953285D01*
X178768628Y-389881857D01*
X178625771Y-389810428D01*
X178554342Y-389739000D01*
X178482914Y-389596142D01*
X178482914Y-389453285D01*
X178554342Y-389310428D01*
X178625771Y-389239000D01*
X178768628Y-389167571D01*
X179125771Y-389167571D01*
X179340057Y-389239000D01*
X179982914Y-390667571D02*
X179982914Y-389667571D01*
X179982914Y-389167571D02*
X179911485Y-389239000D01*
X179982914Y-389310428D01*
X180054342Y-389239000D01*
X179982914Y-389167571D01*
X179982914Y-389310428D01*
X181268628Y-390596142D02*
X181125771Y-390667571D01*
X180840057Y-390667571D01*
X180697200Y-390596142D01*
X180625771Y-390453285D01*
X180625771Y-389881857D01*
X180697200Y-389739000D01*
X180840057Y-389667571D01*
X181125771Y-389667571D01*
X181268628Y-389739000D01*
X181340057Y-389881857D01*
X181340057Y-390024714D01*
X180625771Y-390167571D01*
X181982914Y-390667571D02*
X181982914Y-389667571D01*
X181982914Y-389810428D02*
X182054342Y-389739000D01*
X182197200Y-389667571D01*
X182411485Y-389667571D01*
X182554342Y-389739000D01*
X182625771Y-389881857D01*
X182625771Y-390667571D01*
X182625771Y-389881857D02*
X182697200Y-389739000D01*
X182840057Y-389667571D01*
X183054342Y-389667571D01*
X183197200Y-389739000D01*
X183268628Y-389881857D01*
X183268628Y-390667571D01*
X184554342Y-390596142D02*
X184411485Y-390667571D01*
X184125771Y-390667571D01*
X183982914Y-390596142D01*
X183911485Y-390453285D01*
X183911485Y-389881857D01*
X183982914Y-389739000D01*
X184125771Y-389667571D01*
X184411485Y-389667571D01*
X184554342Y-389739000D01*
X184625771Y-389881857D01*
X184625771Y-390024714D01*
X183911485Y-390167571D01*
X185268628Y-389667571D02*
X185268628Y-390667571D01*
X185268628Y-389810428D02*
X185340057Y-389739000D01*
X185482914Y-389667571D01*
X185697200Y-389667571D01*
X185840057Y-389739000D01*
X185911485Y-389881857D01*
X185911485Y-390667571D01*
X186554342Y-390596142D02*
X186697200Y-390667571D01*
X186982914Y-390667571D01*
X187125771Y-390596142D01*
X187197200Y-390453285D01*
X187197200Y-390381857D01*
X187125771Y-390239000D01*
X186982914Y-390167571D01*
X186768628Y-390167571D01*
X186625771Y-390096142D01*
X186554342Y-389953285D01*
X186554342Y-389881857D01*
X186625771Y-389739000D01*
X186768628Y-389667571D01*
X186982914Y-389667571D01*
X187125771Y-389739000D01*
X188982914Y-390667571D02*
X188982914Y-389167571D01*
X189482914Y-390239000D01*
X189982914Y-389167571D01*
X189982914Y-390667571D01*
X190911485Y-390667571D02*
X190768628Y-390596142D01*
X190697200Y-390524714D01*
X190625771Y-390381857D01*
X190625771Y-389953285D01*
X190697200Y-389810428D01*
X190768628Y-389739000D01*
X190911485Y-389667571D01*
X191125771Y-389667571D01*
X191268628Y-389739000D01*
X191340057Y-389810428D01*
X191411485Y-389953285D01*
X191411485Y-390381857D01*
X191340057Y-390524714D01*
X191268628Y-390596142D01*
X191125771Y-390667571D01*
X190911485Y-390667571D01*
X192054342Y-390667571D02*
X192054342Y-389167571D01*
X192054342Y-389739000D02*
X192197200Y-389667571D01*
X192482914Y-389667571D01*
X192625771Y-389739000D01*
X192697200Y-389810428D01*
X192768628Y-389953285D01*
X192768628Y-390381857D01*
X192697200Y-390524714D01*
X192625771Y-390596142D01*
X192482914Y-390667571D01*
X192197200Y-390667571D01*
X192054342Y-390596142D01*
X193411485Y-390667571D02*
X193411485Y-389667571D01*
X193411485Y-389167571D02*
X193340057Y-389239000D01*
X193411485Y-389310428D01*
X193482914Y-389239000D01*
X193411485Y-389167571D01*
X193411485Y-389310428D01*
X194340057Y-390667571D02*
X194197200Y-390596142D01*
X194125771Y-390453285D01*
X194125771Y-389167571D01*
X194911485Y-390667571D02*
X194911485Y-389667571D01*
X194911485Y-389167571D02*
X194840057Y-389239000D01*
X194911485Y-389310428D01*
X194982914Y-389239000D01*
X194911485Y-389167571D01*
X194911485Y-389310428D01*
X195411485Y-389667571D02*
X195982914Y-389667571D01*
X195625771Y-389167571D02*
X195625771Y-390453285D01*
X195697200Y-390596142D01*
X195840057Y-390667571D01*
X195982914Y-390667571D01*
X196340057Y-389667571D02*
X196697200Y-390667571D01*
X197054342Y-389667571D02*
X196697200Y-390667571D01*
X196554342Y-391024714D01*
X196482914Y-391096142D01*
X196340057Y-391167571D01*
X199554342Y-389239000D02*
X199411485Y-389167571D01*
X199197200Y-389167571D01*
X198982914Y-389239000D01*
X198840057Y-389381857D01*
X198768628Y-389524714D01*
X198697200Y-389810428D01*
X198697200Y-390024714D01*
X198768628Y-390310428D01*
X198840057Y-390453285D01*
X198982914Y-390596142D01*
X199197200Y-390667571D01*
X199340057Y-390667571D01*
X199554342Y-390596142D01*
X199625771Y-390524714D01*
X199625771Y-390024714D01*
X199340057Y-390024714D01*
X200268628Y-390667571D02*
X200268628Y-389667571D01*
X200268628Y-389810428D02*
X200340057Y-389739000D01*
X200482914Y-389667571D01*
X200697200Y-389667571D01*
X200840057Y-389739000D01*
X200911485Y-389881857D01*
X200911485Y-390667571D01*
X200911485Y-389881857D02*
X200982914Y-389739000D01*
X201125771Y-389667571D01*
X201340057Y-389667571D01*
X201482914Y-389739000D01*
X201554342Y-389881857D01*
X201554342Y-390667571D01*
X202268628Y-390667571D02*
X202268628Y-389167571D01*
X202268628Y-389739000D02*
X202411485Y-389667571D01*
X202697200Y-389667571D01*
X202840057Y-389739000D01*
X202911485Y-389810428D01*
X202982914Y-389953285D01*
X202982914Y-390381857D01*
X202911485Y-390524714D01*
X202840057Y-390596142D01*
X202697200Y-390667571D01*
X202411485Y-390667571D01*
X202268628Y-390596142D01*
X203625771Y-390667571D02*
X203625771Y-389167571D01*
X203625771Y-389881857D02*
X204482914Y-389881857D01*
X204482914Y-390667571D02*
X204482914Y-389167571D01*
D10*
D11*
X179148628Y-387667571D02*
X178434342Y-387667571D01*
X178434342Y-386167571D01*
X179648628Y-387667571D02*
X179648628Y-386667571D01*
X179648628Y-386167571D02*
X179577200Y-386239000D01*
X179648628Y-386310428D01*
X179720057Y-386239000D01*
X179648628Y-386167571D01*
X179648628Y-386310428D01*
X180362914Y-386667571D02*
X180362914Y-387667571D01*
X180362914Y-386810428D02*
X180434342Y-386739000D01*
X180577200Y-386667571D01*
X180791485Y-386667571D01*
X180934342Y-386739000D01*
X181005771Y-386881857D01*
X181005771Y-387667571D01*
X182362914Y-387667571D02*
X182362914Y-386167571D01*
X182362914Y-387596142D02*
X182220057Y-387667571D01*
X181934342Y-387667571D01*
X181791485Y-387596142D01*
X181720057Y-387524714D01*
X181648628Y-387381857D01*
X181648628Y-386953285D01*
X181720057Y-386810428D01*
X181791485Y-386739000D01*
X181934342Y-386667571D01*
X182220057Y-386667571D01*
X182362914Y-386739000D01*
X183720057Y-387667571D02*
X183720057Y-386881857D01*
X183648628Y-386739000D01*
X183505771Y-386667571D01*
X183220057Y-386667571D01*
X183077200Y-386739000D01*
X183720057Y-387596142D02*
X183577200Y-387667571D01*
X183220057Y-387667571D01*
X183077200Y-387596142D01*
X183005771Y-387453285D01*
X183005771Y-387310428D01*
X183077200Y-387167571D01*
X183220057Y-387096142D01*
X183577200Y-387096142D01*
X183720057Y-387024714D01*
X185577200Y-387667571D02*
X185577200Y-386167571D01*
X185577200Y-386881857D02*
X186434342Y-386881857D01*
X186434342Y-387667571D02*
X186434342Y-386167571D01*
X187720057Y-387596142D02*
X187577200Y-387667571D01*
X187291485Y-387667571D01*
X187148628Y-387596142D01*
X187077200Y-387453285D01*
X187077200Y-386881857D01*
X187148628Y-386739000D01*
X187291485Y-386667571D01*
X187577200Y-386667571D01*
X187720057Y-386739000D01*
X187791485Y-386881857D01*
X187791485Y-387024714D01*
X187077200Y-387167571D01*
X188434342Y-387667571D02*
X188434342Y-386667571D01*
X188434342Y-386167571D02*
X188362914Y-386239000D01*
X188434342Y-386310428D01*
X188505771Y-386239000D01*
X188434342Y-386167571D01*
X188434342Y-386310428D01*
X189148628Y-386667571D02*
X189148628Y-387667571D01*
X189148628Y-386810428D02*
X189220057Y-386739000D01*
X189362914Y-386667571D01*
X189577200Y-386667571D01*
X189720057Y-386739000D01*
X189791485Y-386881857D01*
X189791485Y-387667571D01*
X190505771Y-387667571D02*
X190505771Y-386667571D01*
X190505771Y-386953285D02*
X190577200Y-386810428D01*
X190648628Y-386739000D01*
X190791485Y-386667571D01*
X190934342Y-386667571D01*
X191434342Y-387667571D02*
X191434342Y-386667571D01*
X191434342Y-386167571D02*
X191362914Y-386239000D01*
X191434342Y-386310428D01*
X191505771Y-386239000D01*
X191434342Y-386167571D01*
X191434342Y-386310428D01*
X192791485Y-387596142D02*
X192648628Y-387667571D01*
X192362914Y-387667571D01*
X192220057Y-387596142D01*
X192148628Y-387524714D01*
X192077200Y-387381857D01*
X192077200Y-386953285D01*
X192148628Y-386810428D01*
X192220057Y-386739000D01*
X192362914Y-386667571D01*
X192648628Y-386667571D01*
X192791485Y-386739000D01*
X193434342Y-387667571D02*
X193434342Y-386167571D01*
X194077200Y-387667571D02*
X194077200Y-386881857D01*
X194005771Y-386739000D01*
X193862914Y-386667571D01*
X193648628Y-386667571D01*
X193505771Y-386739000D01*
X193434342Y-386810428D01*
D10*
D11*
X178434342Y-384667571D02*
X178434342Y-383167571D01*
X178934342Y-384239000D01*
X179434342Y-383167571D01*
X179434342Y-384667571D01*
X180791485Y-384667571D02*
X180791485Y-383881857D01*
X180720057Y-383739000D01*
X180577200Y-383667571D01*
X180291485Y-383667571D01*
X180148628Y-383739000D01*
X180791485Y-384596142D02*
X180648628Y-384667571D01*
X180291485Y-384667571D01*
X180148628Y-384596142D01*
X180077200Y-384453285D01*
X180077200Y-384310428D01*
X180148628Y-384167571D01*
X180291485Y-384096142D01*
X180648628Y-384096142D01*
X180791485Y-384024714D01*
X181291485Y-383667571D02*
X181862914Y-383667571D01*
X181505771Y-383167571D02*
X181505771Y-384453285D01*
X181577200Y-384596142D01*
X181720057Y-384667571D01*
X181862914Y-384667571D01*
X182362914Y-384667571D02*
X182362914Y-383167571D01*
X183005771Y-384667571D02*
X183005771Y-383881857D01*
X182934342Y-383739000D01*
X182791485Y-383667571D01*
X182577200Y-383667571D01*
X182434342Y-383739000D01*
X182362914Y-383810428D01*
X183720057Y-384667571D02*
X183720057Y-383667571D01*
X183720057Y-383167571D02*
X183648628Y-383239000D01*
X183720057Y-383310428D01*
X183791485Y-383239000D01*
X183720057Y-383167571D01*
X183720057Y-383310428D01*
X184362914Y-384596142D02*
X184505771Y-384667571D01*
X184791485Y-384667571D01*
X184934342Y-384596142D01*
X185005771Y-384453285D01*
X185005771Y-384381857D01*
X184934342Y-384239000D01*
X184791485Y-384167571D01*
X184577200Y-384167571D01*
X184434342Y-384096142D01*
X184362914Y-383953285D01*
X184362914Y-383881857D01*
X184434342Y-383739000D01*
X184577200Y-383667571D01*
X184791485Y-383667571D01*
X184934342Y-383739000D01*
X187505771Y-384667571D02*
X186791485Y-384667571D01*
X186791485Y-383167571D01*
X188577200Y-384596142D02*
X188434342Y-384667571D01*
X188148628Y-384667571D01*
X188005771Y-384596142D01*
X187934342Y-384453285D01*
X187934342Y-383881857D01*
X188005771Y-383739000D01*
X188148628Y-383667571D01*
X188434342Y-383667571D01*
X188577200Y-383739000D01*
X188648628Y-383881857D01*
X188648628Y-384024714D01*
X187934342Y-384167571D01*
X189291485Y-384667571D02*
X189291485Y-383167571D01*
X189934342Y-384667571D02*
X189934342Y-383881857D01*
X189862914Y-383739000D01*
X189720057Y-383667571D01*
X189505771Y-383667571D01*
X189362914Y-383739000D01*
X189291485Y-383810428D01*
X190648628Y-384667571D02*
X190648628Y-383667571D01*
X190648628Y-383810428D02*
X190720057Y-383739000D01*
X190862914Y-383667571D01*
X191077200Y-383667571D01*
X191220057Y-383739000D01*
X191291485Y-383881857D01*
X191291485Y-384667571D01*
X191291485Y-383881857D02*
X191362914Y-383739000D01*
X191505771Y-383667571D01*
X191720057Y-383667571D01*
X191862914Y-383739000D01*
X191934342Y-383881857D01*
X191934342Y-384667571D01*
X193291485Y-384667571D02*
X193291485Y-383881857D01*
X193220057Y-383739000D01*
X193077200Y-383667571D01*
X192791485Y-383667571D01*
X192648628Y-383739000D01*
X193291485Y-384596142D02*
X193148628Y-384667571D01*
X192791485Y-384667571D01*
X192648628Y-384596142D01*
X192577200Y-384453285D01*
X192577200Y-384310428D01*
X192648628Y-384167571D01*
X192791485Y-384096142D01*
X193148628Y-384096142D01*
X193291485Y-384024714D01*
X194005771Y-383667571D02*
X194005771Y-384667571D01*
X194005771Y-383810428D02*
X194077200Y-383739000D01*
X194220057Y-383667571D01*
X194434342Y-383667571D01*
X194577200Y-383739000D01*
X194648628Y-383881857D01*
X194648628Y-384667571D01*
X195362914Y-383667571D02*
X195362914Y-384667571D01*
X195362914Y-383810428D02*
X195434342Y-383739000D01*
X195577200Y-383667571D01*
X195791485Y-383667571D01*
X195934342Y-383739000D01*
X196005771Y-383881857D01*
X196005771Y-384667571D01*
D10*
D11*
X197002200Y-401489000D02*
X197002200Y-404489000D01*
D10*
D11*
X261002200Y-401489000D02*
X261002200Y-407989000D01*
D14*
X263750000Y-23000000D02*
G75*
G03X263750000Y-23000000I-1750000J0D01*
G01*
X24750000Y-145000000D02*
G75*
G03X24750000Y-145000000I-1750000J0D01*
G01*
X263750000Y-145000000D02*
G75*
G03X263750000Y-145000000I-1750000J0D01*
G01*
X24750000Y-23000000D02*
G75*
G03X24750000Y-23000000I-1750000J0D01*
G01*
X24750000Y-267000000D02*
G75*
G03X24750000Y-267000000I-1750000J0D01*
G01*
X144250000Y-145000000D02*
G75*
G03X144250000Y-145000000I-1750000J0D01*
G01*
X263750000Y-267000000D02*
G75*
G03X263750000Y-267000000I-1750000J0D01*
G01*
X20000000Y-270000000D02*
X126000000Y-270000000D01*
X154500000Y-270000000D02*
X265000000Y-270000000D01*
X154500000Y-263750000D02*
X154500000Y-270000000D01*
X126000000Y-263750000D02*
X154500000Y-263750000D01*
X126000000Y-270000000D02*
X126000000Y-263750000D01*
X20000000Y-270000000D02*
X20000000Y-20000000D01*
X265000000Y-20000000D02*
X265000000Y-270000000D01*
X20000000Y-20000000D02*
X265000000Y-20000000D01*
M02*
